<svg width="62" height="59" viewBox="0 0 62 59" fill="none" xmlns="http://www.w3.org/2000/svg">
<path d="M34.5496 13.3425C34.5448 13.266 34.6393 13.0672 34.6362 13.055C34.8309 13.0791 34.5706 13.5798 34.5496 13.3425ZM44.5207 18.0985C44.4675 17.929 44.4143 17.7582 44.3611 17.5856C44.3445 17.9495 44.3671 18.3962 44.366 18.7779C44.3706 19.1253 44.3567 19.4519 44.3264 19.7557C44.3072 19.9405 44.1928 19.4528 44.1591 19.8883C44.1143 20.3324 44.3292 20.2567 44.2506 20.9323C44.3015 21.7112 42.8238 25.0849 42.024 25.8761C41.4734 26.6149 40.8712 27.2449 40.2895 27.7653C40 28.0248 39.7107 28.2603 39.4622 28.4532C39.3424 28.5465 39.2241 28.6356 39.1564 28.688C39.1222 28.7144 39.1003 28.7322 39.1138 28.7237C39.1318 28.7104 39.1713 28.6888 39.3821 28.5117C39.4325 28.4693 39.5021 28.4094 39.6042 28.3125C39.6553 28.2638 39.7147 28.2055 39.7854 28.1321C39.8668 28.0474 40.035 27.8676 40.2253 27.6225C40.427 27.352 40.6481 27.081 40.9995 26.3644C41.2997 25.6912 41.7815 24.6085 41.6472 22.7561C41.621 20.9372 40.0228 18.4976 38.9706 17.8361C36.5659 16.131 35.2216 16.4384 34.7275 16.3604C34.3483 16.3591 34.0927 16.384 33.8915 16.4071C33.693 16.4308 33.5443 16.4571 33.44 16.4769C33.3647 16.4912 33.303 16.5043 33.2508 16.5159C33.1467 16.5392 33.0795 16.5567 33.0323 16.5691C32.9606 16.5879 32.9372 16.5946 32.9357 16.5938C32.9464 16.5867 33.1568 16.5097 33.3436 16.4396C33.7467 16.2892 34.2228 16.1164 34.709 15.9604C33.0618 16.7333 34.8052 16.2355 35.2961 15.9891C35.4107 15.9359 35.2304 15.5921 37.1286 15.0334C38.3549 14.69 37.3824 15.541 39.3529 14.657C37.6627 14.797 39.2065 14.3244 40.505 13.9625C40.7211 13.8935 42.5824 13.4843 43.4709 13.3151C43.7668 13.2533 44.2018 12.9828 44.6192 12.9163C44.9101 12.8705 45.1403 12.9433 45.5838 12.8869C46.0619 12.8273 46.5573 12.7799 47.0651 12.7505C50.3905 12.5015 53.4364 14.1666 54.7486 15.1638C54.0252 14.9694 54.2379 15.1746 54.6118 15.4251C54.9864 15.678 55.4378 15.9396 55.4626 15.9731C55.5937 16.1572 55.2758 15.9663 54.9383 15.7656C54.6023 15.566 54.2678 15.3737 54.6387 15.6841C55.053 15.9716 55.3977 16.2287 55.7001 16.4545C56.7547 17.255 57.5958 18.1874 58.2352 19.0749C57.434 17.8265 59.6914 20.4602 59.6548 20.9662C59.7905 20.7702 60.4024 22.1794 60.7068 23.4169C61.809 26.5929 60.736 29.9837 59.7293 31.5369C59.4733 31.9636 59.255 32.283 59.1411 32.4766C59.0539 32.6265 59.3801 32.2701 59.3405 32.4051C59.2779 32.4935 58.9974 33.3546 56.9501 34.9556C56.5045 35.2768 56.5929 35.0446 56.371 35.2162C56.2512 35.3135 55.5872 36.2509 54.5968 36.4373C54.4234 36.4715 54.7958 36.205 54.7021 36.1762C54.6557 36.1612 54.4903 36.215 54.0992 36.3646C53.7313 36.5072 53.0212 36.7648 52.3627 36.9709C52.2803 36.9967 52.1954 37.0226 52.1079 37.0485C52.9794 37.0153 51.5116 37.5527 49.9761 37.7337C48.4245 37.9387 46.8237 37.8526 46.3387 37.7899C46.5332 37.8502 46.7317 37.9086 46.9319 37.9648C45.9461 37.8095 45.7858 37.9356 45.5684 37.9218C44.7036 37.8582 43.5843 37.6167 42.8375 37.5424C41.9644 37.4532 41.9238 37.716 40.9385 37.4635C41.1673 37.5582 41.394 37.6508 41.6273 37.7425C40.9318 37.6304 40.2473 37.5042 39.5692 37.3653C41.2092 37.3005 39.2335 37.2921 39.1054 37.2685C38.9033 37.2421 39.2198 37.1583 38.8792 37.1095C38.843 37.1048 38.8701 37.2498 38.347 37.1572C37.2578 36.9564 37.4657 36.8225 37.0041 36.7172C36.9652 36.7081 37.0592 36.827 36.5472 36.7445C36.4503 36.7271 36.3468 36.7058 36.2812 36.693C36.1641 36.6581 36.2003 36.7393 37.1179 36.8249C37.587 36.8461 38.3686 36.9028 39.6425 36.5066C40.9052 36.1508 42.5001 34.9683 43.2085 33.8747C43.3769 33.628 43.3166 33.6864 43.1751 33.8512C42.4627 34.921 41.0338 35.9836 39.9031 36.3596C38.7673 36.7655 38.0192 36.7714 37.5446 36.7753C36.6088 36.7473 36.4409 36.6483 36.3192 36.625C36.1407 36.5652 36.3863 36.61 36.393 36.6083C36.4846 36.6159 36.1606 36.2791 36.656 36.3102C36.8711 36.3209 37.2515 36.4057 37.8949 36.6051C37.1965 36.3908 37.1743 36.1498 37.0966 36.1264C37.0768 36.1201 36.9162 36.0841 36.7237 36.0402C36.485 35.9821 36.2481 35.9361 36.5431 36.0047C36.6924 36.0342 37.0157 36.0998 37.5613 36.1021C38.0841 36.1159 38.8618 35.9712 39.0604 35.911C40.3214 35.664 42.0042 34.4552 42.6296 33.4671C42.8466 33.2915 42.759 33.6393 42.8277 33.5812C42.8676 33.5507 43.0143 33.2277 43.0631 33.127C43.1237 33.0101 43.1607 33.0858 43.3783 33.1713C43.1566 33.1763 43.0677 33.1324 43.0342 33.0605C42.992 32.9979 43.0295 32.9665 42.8216 33.278C42.7557 33.3051 42.8176 33.1124 42.8182 33.0268C42.8239 32.9331 42.7926 32.9481 42.7925 32.9511C42.7622 33.0452 42.8156 33.2188 42.9308 33.233C43.0423 33.2647 43.1924 33.2492 43.289 33.3329C43.3911 33.4098 43.1038 33.6625 43.4601 33.4572C43.3803 34.1376 43.2683 33.7108 43.2346 33.7396C43.184 33.8034 43.2347 34.1216 43.219 34.1618C43.1947 34.2193 43.1097 33.9997 43.0455 34.2315C43.0354 34.2718 43.1813 34.6826 43.3226 34.1902C43.2267 34.8575 43.3956 34.8449 43.0549 35.0729C43.6255 35.6543 42.6703 35.4483 42.623 35.6723C42.5012 36.2762 42.9883 36.1291 43.0097 36.1605C43.1457 36.3676 42.9142 38.205 42.9613 38.723C42.6268 38.5056 43.0158 37.1943 42.9604 36.9212C42.7759 35.9694 42.7364 38.2605 42.3314 37.5515C42.4388 37.8533 42.5462 38.1586 42.6525 38.4723C42.3501 39.0357 42.2695 38.1957 42.296 39.7784C42.5241 40.0465 42.3109 38.6609 42.4864 38.946C42.5918 39.1056 42.57 40.0321 42.6258 40.0578C42.6963 40.0771 42.6548 39.2345 42.756 39.3728C42.9933 39.6314 42.543 42.854 42.5852 40.3949C42.5474 41.0672 42.0574 41.3881 42.1447 42.0131C42.1851 42.4494 43.1025 40.1434 42.5703 43.6759C42.3519 43.71 42.6868 42.235 42.6652 42.2043C42.6463 42.1494 42.1274 42.3618 42.0981 42.4037C42.0575 42.4747 41.7359 46.3231 41.0076 47.3519C41.113 47.2758 41.0884 47.481 40.9718 47.8408C40.6851 48.8457 39.5527 50.6559 39.4351 50.9158C39.3983 51.0206 39.7603 50.7703 39.7152 50.8779C39.4387 51.5824 38.0557 52.9273 37.4705 53.5368C36.8205 54.2402 37.0002 54.2479 36.9657 54.2885C36.6611 54.587 36.8266 54.2727 36.6446 54.4561C36.4143 54.7581 34.2781 56.5105 34.0928 56.6023C34.0578 56.6344 34.5689 56.4908 34.037 56.8983C33.9807 56.9393 33.9452 56.8848 33.581 57.0709C33.0829 57.3483 32.2385 57.8329 30.8984 58.236C28.9838 58.7062 29.6499 58.6215 30.6319 58.5035C31.6125 58.3809 33.0402 57.8166 32.189 58.3008C29.4179 58.9161 29.6769 58.907 28.9761 59.0082C28.7339 59.0262 27.0597 58.8602 25.4784 58.4777C26.6372 58.7068 27.8533 58.7767 29.1437 58.6176C27.8483 58.7501 25.5904 58.4737 24.7338 58.1027C24.6338 58.0654 24.5809 58.0309 24.5462 57.9972C24.3668 57.8507 24.4779 57.8198 23.422 57.3337C23.2892 57.2714 22.932 57.1938 22.9143 57.2905C22.8877 57.3676 23.2606 57.7533 24.4998 58.1376C24.6914 58.191 24.9156 58.2435 25.1798 58.2894C25.2717 58.4237 24.9035 58.3375 24.4818 58.1922C24.0316 58.0417 23.5367 57.8218 23.1699 57.6579C23.0556 57.5958 22.3438 57.6438 21.4375 56.6768C21.3336 56.5673 22.072 56.8436 21.9425 56.5551C21.9487 56.3129 20.3461 55.3556 18.886 52.6634C18.7938 52.496 18.9436 53.1474 18.8509 52.9859C18.7483 52.8462 18.3488 51.5307 18.3283 51.44C18.2732 51.3096 18.3182 51.9166 18.2496 51.7639C17.8864 50.9417 18.1678 49.9061 18.5036 51.4702C18.4065 50.8918 18.373 50.4022 18.3615 49.9481C18.076 50.4911 18.1421 49.2393 18.1017 48.748C17.86 45.6333 17.7365 47.7296 17.5854 47.1992C17.3745 46.4157 18.0038 46.9784 17.8171 45.8855C17.8044 45.8061 17.5111 47.0282 17.7052 44.5982C17.7072 44.9447 17.7104 45.3013 17.7166 45.6743C18.0716 45.451 17.7163 44.3848 17.7145 44.3046C17.6909 43.4029 17.8017 44.0001 17.658 42.6992C17.6452 42.5805 17.7398 42.342 17.703 42.0971C17.5512 41.0961 17.5558 43.4114 17.4087 43.4971C17.3391 43.4988 17.429 41.0083 17.4593 40.9448C17.6157 40.5922 17.4988 42.0515 17.6887 41.7787C17.7329 41.7058 17.7323 40.2226 17.7146 39.0458C17.7034 38.0815 17.7725 37.1788 17.8369 36.7933C18.0476 35.5409 18.6674 35.0262 18.1323 34.9197C18.7245 34.6523 18.4459 34.2587 18.4939 34.0799C19.1213 32.0179 19.1574 31.9825 19.9829 30.2161C20.1798 29.8286 20.5057 29.6046 20.5611 29.4639C20.5938 29.3817 20.3592 29.4261 20.5451 29.0383C20.6715 28.7667 21.2961 27.9162 21.8788 27.3053C22.4701 26.6758 22.9025 26.3188 22.9771 26.303C23.0593 26.283 22.9375 26.433 22.7885 26.6252C22.6417 26.8147 22.4784 27.0392 22.6149 27.0026C22.9149 26.6748 23.1598 26.4023 23.3181 26.2146C23.2079 26.3437 23.3773 26.1049 23.805 25.5667C24.1529 25.1458 24.0629 25.4328 24.2218 25.2453C24.2265 25.2399 24.2365 25.2276 24.2512 25.2092C24.2956 25.156 24.3698 25.047 24.1772 25.2743C24.0806 25.3986 23.907 25.5955 23.6266 26.1246C23.3726 26.6356 22.8879 27.6568 22.9766 29.2803C23.0529 30.9198 23.9482 32.3889 24.5194 32.9957C25.1111 33.653 25.5182 33.9059 25.7643 34.0767C26.2703 34.4006 26.387 34.4377 26.3549 34.4396C26.3073 34.4245 26.1874 34.388 25.8413 34.1918C25.524 33.9383 24.8267 33.8199 23.6468 31.9353C23.0836 31.005 22.708 29.3793 22.8779 28.1624C23.0236 26.9316 23.4051 26.2196 23.6345 25.797C24.1209 24.9835 24.253 24.9358 24.1029 25.0825C23.7506 25.4832 23.4437 25.8893 23.3087 26.0539C23.1667 26.2281 23.188 26.1749 23.2134 26.122C23.1023 26.2132 23.0529 26.2202 23.1271 26.0641C23.1289 26.0601 23.1312 26.056 23.134 26.0519C23.0986 26.0788 23.1129 26.1459 23.1665 26.1044C23.2153 26.0688 23.2756 25.9582 23.1306 25.905C23.2768 25.721 23.5749 25.3287 23.9249 24.9303C24.051 24.799 23.9848 24.8254 23.6169 25.3724C23.4373 25.6647 23.142 26.1026 22.8591 27.0423C22.5718 27.9353 22.4385 29.6435 23.0009 31.0988C24.2882 34.0489 25.611 34.2532 26.0479 34.5908C26.5727 34.8499 26.7779 34.8929 26.9256 34.9381C27.1894 35.0063 27.1703 34.9845 27.1214 34.9739C27.0647 34.9595 26.9475 34.9389 26.808 34.9197C25.1579 34.7112 23.489 34.5516 21.8046 34.4337C23.4118 34.2773 25.1823 34.6003 26.8252 34.7494C26.8349 34.7503 26.8444 34.7511 26.8538 34.7519C26.9296 34.7581 27.0821 34.783 27.146 34.7809C27.2179 34.7802 27.1789 34.7419 27.2041 34.6675C27.2398 34.6644 27.0576 34.6307 26.8393 34.6094C25.6399 34.4857 24.3216 34.4175 23.2451 34.2744C23.2012 34.2684 23.3712 34.1389 23.2076 34.107C22.9058 34.0464 21.8834 34.22 21.7199 34.1559C21.6904 34.1407 22.2727 33.984 22.1038 33.8592C21.6693 33.5388 21.5246 34.1971 21.1421 34.1741C20.8471 34.1516 18.8424 33.7763 18.3323 33.9767C17.7945 34.1832 19.8186 34.1285 19.663 34.3049C18.2987 34.4478 16.917 34.2496 15.5871 34.2756C15.5639 34.2762 15.7673 34.4142 15.4712 34.4343C14.9534 34.4697 14.811 34.2742 14.5573 34.2438C14.2839 34.2121 13.2633 34.2427 13.1027 34.1687C13.0843 34.1593 13.3021 33.9654 13.3361 33.9599C13.7949 33.8804 13.9454 34.132 13.9871 34.1352C14.143 34.1444 14.2804 34.047 14.418 34.0522C14.6405 34.0608 14.7615 34.1498 15.0465 34.1566C15.2431 34.1616 15.0519 33.9903 15.243 33.9974C15.3163 34.0005 16.0559 34.3917 16.1259 33.991C16.1282 33.9521 15.5729 33.9097 14.7383 33.8766C14.3227 33.8598 13.8439 33.8456 13.3036 33.8296C13.0393 33.8214 12.7442 33.8129 12.4268 33.7995C12.0739 33.7802 11.8041 33.7855 11.0337 33.6903C9.28446 33.4629 7.56266 32.8722 7.16825 32.7473C8.0047 33.1224 8.83798 33.4041 9.63817 33.6194C8.03836 33.2255 5.73844 32.5278 5.82936 32.0079C5.21006 31.6868 4.59714 31.2956 4.1441 30.9758C2.42798 29.741 1.92633 28.4374 1.61922 27.6703C1.32919 26.8643 1.2468 26.3273 1.17939 25.8659C1.063 24.9653 1.07119 24.3725 1.07748 23.8232C1.10172 22.7468 1.18288 21.9166 1.25386 21.1185C1.74754 16.5517 4.47438 14.2658 5.8406 12.8905C6.46187 12.2988 7.14142 11.8245 7.79894 11.4644C9.3242 10.7755 8.72263 11.2742 10.8472 10.6061C10.2933 10.6292 9.68933 10.6967 9.02916 10.8499C9.67531 10.6086 11.2655 10.2381 12.4706 10.1753C13.7031 10.0872 14.6696 10.1344 14.9394 10.1039C15.0036 10.098 15.1298 9.81797 15.9068 9.82482C16.5797 9.83346 16.6547 10.047 16.9748 10.1031C17.1062 10.1265 17.2428 10.1284 17.3511 10.1259C17.7279 10.116 18.7509 10.3875 19.1129 10.4927C19.2848 10.5487 19.425 10.5934 19.4759 10.62C19.5539 10.6614 19.5389 10.7909 19.7228 10.8921C20.273 11.2041 19.9588 10.6767 20.3413 11.2977C20.2023 11.2508 20.0648 11.2058 19.9208 11.1597C20.5813 11.5137 21.3094 12.0873 20.3657 11.7313C20.1988 11.6705 20.3882 11.6242 20.2684 11.5686C19.7685 11.3396 19.3176 11.1561 18.9174 11.0125C18.5897 10.9173 17.6639 10.6716 17.3229 10.6806C15.8161 10.6357 16.3981 10.7485 17.3164 10.8089C17.6491 10.8001 18.5525 11.0399 18.8721 11.1328C19.6309 11.4247 20.388 11.7647 20.9198 11.9598C21.2747 12.3169 23.3527 13.3466 23.3871 13.4207C23.4519 13.5184 23.0434 13.4473 23.4202 13.8123C23.5146 13.8809 26.0906 15.3599 25.055 14.9996C24.8481 14.9246 23.6576 14.1362 23.349 13.968C23.8664 14.7089 25.74 15.2365 25.9093 15.3667C26.593 15.8756 24.3574 14.7693 25.9415 15.836C27.1478 16.662 26.1382 15.6979 26.6693 15.9141C26.9712 16.0343 28.1824 17.1893 28.3477 16.8626C28.8377 17.1502 28.454 17.1225 28.504 17.1735C28.5533 17.2208 29.5273 17.7617 29.7762 18.0329C29.8062 18.0658 29.585 18.1425 29.6128 18.1811C29.6584 18.2392 30.2614 18.6397 30.5039 18.7927C30.5205 18.8027 30.5655 18.8394 30.5818 18.8498C30.6382 18.8871 30.6751 18.9103 30.6834 18.9129C30.7007 18.9176 30.6694 18.8189 30.662 18.7427C30.6452 18.732 30.5988 18.6943 30.5818 18.684C30.5772 18.6317 30.5847 18.5902 30.6296 18.6018C30.6323 18.6025 30.6353 18.6035 30.6385 18.6047C30.6559 18.6153 30.7033 18.6538 30.7204 18.6647C30.8742 18.7238 31.6845 19.3925 31.7644 19.4002C31.8732 19.3889 30.7719 18.6032 31.0625 18.5932C31.5235 18.9959 32.4218 19.549 32.8766 19.7427C32.7611 19.6987 32.2514 19.2882 32.0907 19.1436C32.3324 18.9774 33.4411 19.9098 32.9213 19.7554C33.2386 19.874 33.1141 19.6865 33.3225 19.722C33.3773 19.7313 33.7345 20.0404 33.8348 20.07C33.8502 20.0697 33.5519 19.6649 33.662 19.6894C33.87 19.723 34.9171 20.7597 34.9145 20.8052C34.9786 20.9221 34.8416 20.8424 34.6412 20.7087C34.4423 20.5759 34.1746 20.3903 34.0999 20.3992C34.0943 20.4128 34.5958 21.2219 34.5644 21.2216C34.4727 21.4285 33.8574 20.608 33.7981 20.8223C33.9631 21.0356 34.1165 21.2448 34.2437 21.4292C33.4833 20.9023 32.0488 19.5647 31.6048 19.5146C32.7081 20.2731 33.9215 21.4628 33.5239 21.78C33.3813 21.932 32.8525 21.592 32.8302 21.6469C32.7774 21.8544 33.5047 22.2806 33.5011 22.2935C33.5085 22.3173 33.5074 22.3323 33.4997 22.3401C33.4997 22.3401 33.4997 22.3401 33.4996 22.3401C33.4498 22.4432 32.5433 21.6687 32.4489 21.6623C32.3135 21.6596 32.4547 22.3017 32.3931 22.3593C32.3718 22.3562 31.6844 21.8467 31.7997 22.1472C31.9201 22.447 32.4331 22.9517 32.4325 22.9747C32.4793 23.1353 31.5137 22.3209 31.4442 22.341C31.4139 22.3454 31.804 22.9219 31.7823 22.9686C31.7636 23.0129 31.323 22.7368 31.0783 22.7164C30.8969 22.6991 31.1597 23.046 31.0917 23.0081C31.0468 22.9719 30.186 22.2344 30.1313 22.2225C30.0507 22.193 30.1701 22.4572 30.1205 22.4584C30.0499 22.4598 29.8017 22.1995 29.8081 22.2663C29.8197 22.31 30.5883 23.5441 30.4914 23.6317C30.346 23.7643 29.5697 22.4794 30.0468 23.9532C30.0501 23.9623 30.3257 24.1368 30.328 24.1467C30.3688 24.3875 29.48 23.8627 30.4038 24.6805C28.5475 23.3229 29.9963 24.7076 29.514 24.7303C29.3363 24.7388 28.6507 24.2269 28.6315 24.2413C28.5908 24.4228 28.8816 24.4975 28.8988 24.6203C28.9087 24.6851 28.2117 24.3364 28.2712 24.5345C28.3068 24.6347 28.9217 25.1308 28.9342 25.163C29.0901 25.4491 28.7325 25.2843 28.7315 25.387C28.7318 25.4542 29.0649 25.7681 29.0667 25.7848C29.0669 25.8083 28.4721 25.5431 28.325 25.517C28.2152 25.4957 28.4305 25.8024 28.3631 25.7762C27.9712 25.6194 27.5151 24.765 27.8377 25.7142C27.8578 25.7725 28.1001 25.9654 28.1025 25.977C28.1462 26.2136 27.7129 25.8506 27.5511 25.8775C27.2834 25.926 27.9816 26.3636 27.3682 26.0385C27.6758 26.4773 27.8545 26.6255 28.3074 27.0153C27.0708 25.9943 26.305 26.1041 27.5877 27.2062C27.2066 26.8414 27.0416 27.1147 26.919 27.0137C26.8532 26.9552 26.3965 26.1903 26.2618 26.9635C26.2483 27.0608 26.6843 27.2845 26.4569 27.3223C25.5795 26.5434 26.3765 27.3961 26.3528 27.4106C26.2129 27.5713 25.605 27.0723 24.8675 26.4823L24.9531 26.545C24.2683 26.0175 23.5806 25.4656 23.347 25.331C22.7667 24.9949 22.0986 24.9292 21.9799 24.8502C21.5857 24.5867 22.0023 24.671 21.9472 24.5628C21.8911 24.4516 20.5975 23.9733 20.5535 23.9279C20.3719 23.7301 20.6969 23.7115 20.6796 23.6889C20.4719 23.4097 18.8833 22.5973 18.4887 22.3218C18.4384 22.4341 19.2761 22.9486 18.647 22.8034C17.9211 22.6416 18.163 22.1541 18.1587 22.1229C17.1221 21.5238 15.9937 20.936 15.2844 20.6717L16.7992 20.9871C15.6335 20.9259 14.6884 20.8754 13.9604 20.9125C13.2431 20.9248 12.7919 21.1398 13.1163 20.989C13.1889 21.1222 12.9989 21.225 13.0862 21.1767C13.1526 21.1378 13.4494 21.0475 13.4621 21.0673C13.5373 21.1435 13.2622 21.2286 13.1474 21.2892C13.0912 21.3168 13.0923 21.3334 13.1833 21.2909C13.2706 21.251 13.4448 21.1357 13.5896 20.9831C13.3111 21.2338 13.1287 21.3926 13.0506 21.4361C13.234 21.3206 13.4366 21.1933 13.6569 21.0535C13.6323 21.0929 13.6073 21.1308 13.5824 21.167C13.6323 21.1669 13.6829 21.1555 13.7336 21.1335C13.4184 21.6732 12.633 22.0274 12.6408 22.2763C12.639 22.364 12.8258 22.3196 12.8354 22.3232C12.8762 22.4871 12.7649 22.4832 12.6487 22.3388C12.7323 22.5199 12.5986 22.4003 12.6036 22.339C12.606 22.3288 12.7136 22.4367 12.801 22.3472C12.8221 22.325 12.8605 22.2097 12.8906 22.0802C12.8821 22.4047 12.8899 22.6923 12.941 22.7657C12.9855 22.8317 13.551 22.3102 13.1086 22.197C13.1173 22.1635 13.1255 22.1312 13.1331 22.1002C13.2417 22.5954 12.8977 22.1954 12.8737 22.3557C12.8718 22.3666 12.9351 22.3773 12.9708 22.4256C13.0118 22.4633 12.9943 22.5952 12.9392 22.5672C13.1321 22.6846 13.1827 22.666 13.2097 22.5211C13.2365 22.3805 13.195 22.1698 13.2249 22.1222C13.2282 22.1171 13.2314 22.1125 13.2346 22.1086C13.2493 22.1758 13.2731 22.1705 13.3006 22.1141C13.3514 22.177 13.3707 22.4073 13.321 22.555C13.271 22.7083 13.2004 22.723 13.0816 22.6465C13.3963 22.8113 13.1017 22.7006 13.172 22.6221C13.2608 22.5268 13.312 22.6353 13.37 22.5627C13.582 22.3153 13.3016 22.2551 13.7263 22.1322C13.18 21.9913 13.5875 21.7831 14.128 21.5454C14.0131 21.7702 13.9006 21.9564 13.8431 22.0561C13.98 21.9801 14.1419 21.8702 14.3034 21.7286C13.9616 22.0907 13.7068 22.3926 13.566 22.6001C13.6065 22.6089 13.6474 22.6175 13.6887 22.6258C13.6219 22.6947 13.5694 22.7515 13.5316 22.7926C13.5091 22.7643 13.4872 22.7352 13.4659 22.7054C13.4572 22.9051 13.4746 22.8796 13.4478 22.8502C13.4257 22.8159 13.3765 22.7687 13.3783 22.7616C13.4072 22.6756 13.4943 22.4178 13.5117 22.1315C13.4518 22.7969 13.4075 23.42 13.3965 23.8363C13.3951 23.8912 13.4516 23.9037 13.4853 23.9878C13.5023 24.028 13.5137 24.0874 13.5113 24.1483C13.5069 24.1994 13.4993 24.2918 13.4386 24.1574C13.3942 24.0476 13.3255 24.0128 13.2779 24.0187C13.2201 23.9966 13.2166 24.0744 13.1091 23.654C13.1619 23.1229 12.8164 22.3376 12.3918 21.8479C11.9619 21.3405 11.5617 21.0943 11.1386 20.8466C11.1405 20.8702 11.1457 20.8897 11.1605 20.8998C11.3691 21.0408 11.4471 20.9395 11.4645 20.9494C11.5794 20.9933 11.743 21.0872 12.0065 21.1371C12.0106 21.1363 11.9262 20.9609 12.0693 21.0435C12.0999 21.0602 12.2494 21.3539 12.6217 21.5419C12.335 21.5538 12.5361 21.6097 12.6714 21.622C12.8298 21.6383 13.0408 21.6319 13.2489 21.5931C12.9679 21.5493 12.6877 21.5024 12.5414 21.4531C12.5548 21.5331 15.241 21.3596 14.59 21.1931C14.1895 21.0919 13.281 21.5016 13.2014 21.1076C13.8922 21.2232 18.9533 21.0414 19.3432 21.1633C19.3969 21.1774 19.061 21.2982 19.1356 21.3159C19.1909 21.3281 20.3546 21.325 20.5031 21.3796C20.5925 21.4111 20.0833 21.475 20.1216 21.522C20.1546 21.5536 21.6017 21.6547 21.6895 21.5007C21.3311 21.5496 20.3332 21.4627 20.8636 21.3449C20.9302 21.3302 21.2755 21.4449 21.3593 21.4269C22.1299 21.2577 19.8488 21.2268 19.5022 21.2234C20.9292 21.0472 23.1399 21.374 24.8144 21.3579C25.4797 21.5352 23.8052 21.4956 24.5574 21.6547C26.1195 21.9903 24.9908 21.5 25.0415 21.4863C25.442 21.3772 26.7273 22.2015 26.771 21.6587C27.338 21.7917 27.1457 21.8419 27.9635 21.8494C27.8601 21.8011 27.7569 21.7531 27.6538 21.7052C27.798 21.6697 27.9646 21.6636 28.1429 21.6792C28.7887 21.7491 29.4931 21.9334 30.7145 22.445C31.3273 22.7384 32.2214 23.0416 33.4732 24.2551C34.0661 24.8365 34.6126 25.7226 34.8285 26.2818C35.0625 26.8703 35.0834 27.0607 34.9651 26.7247C34.0236 24.4142 32.4155 23.6268 31.7564 23.273C30.9953 22.9037 30.5627 22.7839 30.2057 22.6637C29.5203 22.4479 29.1584 22.3451 29.0837 22.3332C28.9582 22.3205 28.6576 22.5018 28.0626 22.4758C27.793 22.4684 27.4438 22.3916 26.9634 22.1692C26.5678 22.3837 27.6592 22.5093 28.0482 22.6182C28.246 22.6656 28.2992 22.7045 28.0366 22.7331C27.9863 22.7415 27.9214 22.7498 27.8401 22.7582C27.894 22.7608 27.9587 22.7658 28.0326 22.7729C28.4283 22.8186 28.9343 22.8603 29.9759 23.1231C30.255 23.1992 30.5646 23.2833 31.0576 23.4846C31.5589 23.7669 32.2489 23.7668 33.686 25.5019C34.3907 26.358 34.9545 28.1793 34.7542 29.4542C34.5948 30.7384 34.1924 31.389 33.9528 31.8127C33.443 32.6188 33.2209 32.7806 33.18 32.8407C33.1181 32.8961 33.0198 33.0141 32.832 33.2669C32.6496 33.5134 32.3899 33.8523 32.2152 34.0776C32.1824 34.125 32.1586 34.1642 32.1438 34.1953C32.1301 34.2418 32.5481 34.3337 31.8774 34.795C31.573 34.9988 32.1541 34.3478 31.9854 34.4089C31.8434 34.4738 31.433 34.858 31.1285 35.1989C30.814 35.553 30.5979 35.8745 30.4332 36.2709C30.0854 37.0176 30.0245 38.4763 30.0495 39.0394C30.0499 39.0679 30.0501 39.0946 30.0504 39.1195C30.0507 39.2159 29.9357 39.1805 29.9366 39.2748C29.9407 39.5616 30.1016 40.6136 30.0373 41.1147C30.2702 40.0687 30.2477 42.1155 30.2063 42.6144C30.1484 43.3798 29.9472 43.3217 29.8944 43.6482C29.6862 44.9128 30.1301 46.718 29.7305 47.3931C29.9522 47.3581 29.912 47.6806 29.8354 47.9669C29.7567 48.2634 29.6483 48.4569 29.6191 48.3757C29.6698 48.3406 29.1883 47.2122 29.8757 47.8477C29.6406 47.411 28.7898 46.7243 28.3159 46.5902C28.2953 46.5615 28.2475 46.5203 28.1385 46.5061C28.1001 46.5019 28.1543 46.6325 28.0895 46.6225C28.0821 46.6213 28.0735 46.4902 27.9889 46.4858C27.6013 46.4724 27.2431 46.7221 27.2631 46.7849C27.2514 46.8656 27.4128 46.8761 27.285 46.9955C27.2653 47.0142 27.246 47.0328 27.227 47.0511C27.3011 47.0442 27.3625 47.024 27.4055 47.0019C27.3546 47.0407 27.3059 47.0768 27.2631 47.1079C27.7069 46.8522 27.9303 46.8577 28.0405 46.8533C28.1514 46.8564 28.1736 46.8748 28.1874 46.8768C28.1641 46.9821 28.1556 46.9949 28.0532 46.9916C27.9563 46.9918 27.7063 46.9779 27.3157 47.1909C27.4202 47.1038 27.5386 47.0088 27.6261 46.9677C27.6383 46.9621 27.6961 47.1152 27.7073 47.1082C27.7075 47.108 27.7078 47.1079 27.708 47.1077C27.8245 47.0584 28.5446 46.333 28.2578 46.3354C28.1872 46.3336 27.8361 46.6691 27.4742 46.9487C27.5522 46.8484 27.3741 46.7603 27.3871 46.7415C27.5349 46.5379 28.2117 46.1667 28.4182 45.9741C28.4653 45.9326 28.3805 45.8577 28.3873 45.8502C28.5732 45.6892 28.7475 45.9766 28.6667 45.5662C29.2729 45.4922 28.1403 46.2319 28.377 46.3378C28.4681 46.3915 29.053 45.8561 29.4429 45.2366C29.8465 44.617 29.9958 44.0153 29.8475 43.96C29.8815 43.967 29.9333 43.9557 30.0031 43.9153C30.0503 43.8881 30.1037 43.8128 30.1491 43.7205C30.2424 43.5485 30.3195 43.1609 30.3012 43.0566C30.2955 43.0315 29.995 42.9679 29.9987 42.9403C30.0114 42.9119 30.45 41.8805 30.3147 41.3577C30.243 41.6057 30.1683 41.8403 30.0902 42.0621C30.2837 40.6211 30.1449 40.7826 30.0045 41.2987C30.0008 41.3236 29.9864 41.3464 29.9824 41.3698C29.8709 41.7539 29.7347 42.1792 29.7095 42.1789C29.6621 42.1858 29.7184 41.6359 29.7879 41.0488C29.8593 40.4702 29.9534 39.8908 30.0769 40.1745C30.115 40.2672 29.8707 41.4858 30.132 40.8973C30.18 40.8013 30.1868 39.9683 30.2103 39.9202C30.3858 39.6463 30.4331 41.4587 30.6571 41.2533C30.5024 40.8154 30.6541 40.263 30.6344 39.7292C30.6257 39.4863 30.4749 39.4172 30.4738 39.3872C30.4578 38.9336 30.6054 39.1951 30.6092 39.0429C30.6116 38.9648 30.3081 38.0271 30.7736 38.2202C30.5452 35.0198 30.4666 37.4104 30.4058 39.2195C30.2649 38.6488 30.3921 37.4779 30.3731 36.9173C30.3661 36.7187 30.2035 36.8316 30.1852 36.4907C30.1315 35.8534 30.5013 32.2023 30.8873 30.8409C30.8006 31.5929 31.0088 31.4041 31.1088 30.8367C31.2233 30.2471 30.8919 30.6928 30.8926 30.5725C30.8984 30.5034 31.0482 29.8261 31.3816 28.9314C31.6871 28.0553 32.3541 26.8837 32.6684 26.4536C32.8351 26.2161 33.0036 26.0121 33.171 25.8311C32.9821 26.0349 32.8176 26.2404 32.6681 26.4534C31.7196 27.9603 31.7459 28.4181 31.7823 28.3945C31.8767 28.3509 32.0739 27.7823 32.8877 26.608C33.5672 25.5857 34.8608 24.7569 35.7521 24.5038C34.8948 24.7618 33.6091 25.5753 32.9205 26.6311C32.7573 26.9268 32.6163 27.2268 32.5046 27.5053C32.6191 27.2754 32.7869 26.9894 33.0025 26.6888C33.6098 25.7849 34.7098 25.0127 35.5503 24.7239C36.3995 24.4144 36.9914 24.3866 37.4055 24.3742C38.2269 24.3733 38.546 24.4704 38.8116 24.5222C39.302 24.6391 39.4426 24.7043 39.5535 24.7464C39.9488 24.8939 40.3471 25.0286 40.5288 25.0285C40.5859 25.0282 40.4211 24.8443 40.4529 24.8441C40.7695 24.8558 41.7938 25.2064 41.8512 25.1636C41.8998 25.1313 41.4738 24.9282 41.6516 24.9011C41.6894 24.8956 42.0844 25.1689 42.5191 25.1916C42.6801 25.2001 42.6068 25.0497 42.6479 25.0484C42.9865 25.0354 42.7594 25.2353 43.3654 25.2861C43.8091 25.32 44.1609 25.1395 44.7418 25.2717C42.8208 24.7633 44.4664 25.0923 45.2578 25.0622C45.3828 25.0559 45.3025 24.8103 46.0226 24.9679C44.4208 25.3209 46.4817 25.2452 46.8397 25.2277C46.8604 25.229 46.869 25.3934 47.0567 25.3935C47.072 25.3929 47.0496 25.2836 47.2178 25.271C48.0047 25.2029 48.0802 25.1827 48.0789 25.2228C48.0679 25.2592 47.9174 25.3325 48.0547 25.3738C48.1932 25.4129 48.7627 25.1655 48.8423 25.1329C48.8668 25.1263 48.888 25.2403 48.9765 25.2117C48.9837 25.2093 48.9905 25.2067 48.9971 25.2039C49.3255 25.0918 49.3227 24.966 49.3582 24.9426C49.3538 24.9441 49.4612 25.0941 49.4312 25.0433C49.4187 25.0313 49.3646 24.9891 49.3588 24.9318C49.3299 24.8213 49.4367 24.8839 48.9547 25.0555C48.8261 25.1153 48.6179 25.165 48.426 25.1249C48.1055 25.0611 48.7245 24.9349 48.8985 24.8593C49.1342 24.7857 49.1648 24.7708 49.1826 24.765C49.2009 24.7585 49.0721 24.8958 49.2321 24.8613C49.375 24.8288 49.2064 24.5327 49.0678 24.7204C49.0565 24.7328 49.1131 25.0376 49.1335 25.0421C49.1522 25.0341 49.3363 24.9592 49.3555 25.0436C49.3621 25.0479 49.2755 25.1154 49.3012 25.1717C49.3279 25.2418 49.7893 25.7464 49.8021 25.7585C49.8172 25.8057 49.7094 25.6921 49.7046 25.7153C49.7009 25.7326 49.7081 25.7748 49.7226 25.8011C49.6189 26.0614 49.5873 26.3968 49.4347 26.397C49.4441 26.2515 49.4684 26.1132 49.5053 25.9821C49.3616 26.3335 49.343 26.4747 49.301 26.4988C49.2642 26.5277 49.2343 26.4596 49.2062 26.5223C49.1513 26.6629 49.3465 26.6312 49.3885 26.9365C49.3936 26.9627 49.4062 27.1896 49.4926 27.4654C49.3314 27.0719 49.1392 26.7106 49.096 26.7453C49.4705 27.2939 49.142 27.1809 49.1482 27.2039C49.1708 27.3003 49.2982 27.3854 49.379 27.5064C49.3739 27.4668 49.3666 27.4282 49.3546 27.3909C49.1083 26.0882 49.0829 27.4399 48.9797 27.1433C48.9366 27.0224 49.0457 26.7859 49.0412 26.7438C49.0211 26.5961 48.8624 26.5843 48.8834 26.4822C48.9394 26.2541 49.1352 26.5473 49.1507 26.5258C49.2803 26.3498 49.3394 25.6594 48.9625 26.0016C48.9688 25.6923 49.2623 25.7892 49.2492 25.5552C49.249 25.5463 49.2489 25.5377 49.2487 25.5294C49.1765 25.4313 49.1357 25.4193 49.1001 25.4443C49.0163 25.55 48.9358 25.7448 48.8877 25.827C48.5882 26.4083 48.5691 26.7096 48.8475 27.6983C48.8249 27.6398 48.8005 27.5793 48.7743 27.5174C48.6503 27.2214 48.3962 26.9962 48.3462 26.9059C48.3134 26.8266 48.5181 26.1228 47.8435 26.5627C47.8547 26.4295 48.2206 26.0551 48.2091 26.0775C48.2076 26.1064 48.0234 26.3194 48.0172 26.3286C48.0151 26.3372 48.0293 26.3491 48.0497 26.3662C47.9298 26.2752 47.8026 26.1824 47.732 26.1561C47.5814 26.1018 47.5706 26.2273 47.3709 26.1351C46.922 25.9479 47.1569 25.7715 47.126 25.7263C47.0484 25.5513 47.0392 25.6066 46.995 25.672C46.9565 25.7416 46.9066 25.8402 46.8981 25.8544C46.8949 25.8618 46.8927 25.8592 47.0486 25.8956C47.1949 25.9321 47.5281 25.9645 47.7404 25.9399C47.4312 25.9469 47.121 25.9854 46.99 26.0377C47.1416 25.9615 47.2871 25.8889 47.4319 25.8192C47.1493 25.6612 46.873 25.9918 46.8285 25.673C46.8405 26.1928 46.1848 25.9393 45.9866 25.9921C45.9119 26.0113 45.9341 26.0973 45.8398 26.119C45.4762 26.1989 44.5842 26.3332 44.3773 26.4356C43.5112 26.8502 45.9215 26.5873 46.0558 26.6123C45.7369 26.6405 43.701 27.2701 44.7082 27.2757C44.8624 27.2767 45.0625 26.99 45.1412 26.9629C45.6693 26.7832 45.2889 27.0819 45.3361 27.0916C45.4148 27.1061 45.7223 26.8349 45.8179 26.8413C45.8479 26.8441 45.6972 27.0628 46.1841 26.9761C45.9976 27.182 44.5272 27.3657 44.3283 27.4736C44.258 27.5119 44.8146 27.7522 43.412 27.7577C43.4376 27.788 43.4632 27.8184 43.4886 27.8488C42.7643 28.0768 42.0207 28.3347 41.2633 28.6145C41.3175 28.507 41.6932 28.1993 41.1641 28.4203C40.8595 28.549 41.1521 28.6438 41.1259 28.6588C41.0358 28.7077 40.4973 28.9014 39.7078 29.195C39.3157 29.3404 38.8707 29.5079 38.3388 29.7034C38.0505 29.8082 37.8046 29.9007 37.3422 30.0527C37.2345 30.0877 37.0723 30.139 36.902 30.1874C36.8319 30.2075 36.6756 30.2507 36.5262 30.2867C36.448 30.3056 36.3625 30.3253 36.2656 30.3456C36.1821 30.363 36.0327 30.3938 35.8208 30.4261C35.6125 30.4571 35.3609 30.4895 35.0068 30.5052C34.918 30.509 34.8225 30.5114 34.7185 30.5118C34.6665 30.5119 34.6124 30.5116 34.5559 30.5105C34.4502 30.5085 34.3312 30.5039 34.2037 30.4953C33.6927 30.4538 33.0058 30.3886 31.9869 29.9866C30.9577 29.5197 29.6736 28.9556 28.4016 26.7974C27.2399 24.6984 27.4653 22.5189 27.792 21.4321C27.9469 20.8704 28.181 20.3618 28.2887 20.1512C28.3704 19.9887 28.4494 19.8463 28.5248 19.7187C28.6757 19.4637 28.8116 19.2667 28.9332 19.1012C29.1766 18.7724 29.3651 18.5641 29.5236 18.395C29.6204 18.2926 29.7028 18.2105 29.7795 18.1363C29.9321 17.989 30.056 17.8793 30.1671 17.7839C30.6087 17.4141 30.673 17.3855 30.7763 17.3062C30.8605 17.245 30.9033 17.2145 30.9338 17.1923C30.9937 17.1489 31.0072 17.1384 31.0116 17.1355C31.0171 17.1319 30.9743 17.1684 30.9249 17.2204C30.8217 17.3251 30.6902 17.503 30.6223 17.609C30.4733 17.7743 30.0752 18.5041 30.0872 18.5556C30.0549 18.6822 30.0366 18.9375 30.058 19.1151C30.0651 18.4408 30.0829 17.713 30.0656 17.5059C30.0478 17.2929 29.8961 17.4984 29.8995 17.3085C29.9029 17.1327 30.0572 17.3116 30.0625 17.2593C30.1162 16.7768 29.8215 13.7179 29.8848 13.2152C29.889 13.5152 30.2867 15.6291 30.3847 15.6108C30.3993 15.5982 30.4949 15.0578 30.4339 14.9525C30.5574 14.766 30.1314 14.1821 30.1877 13.8776C30.1936 13.8446 30.4277 13.956 30.426 13.4201C30.425 13.2372 30.2102 12.79 30.3473 12.3873C30.2922 12.1988 30.1747 11.5565 30.1982 11.5928C30.2299 11.6121 30.306 11.9114 30.8699 12.5131C31.4084 13.1258 32.6141 13.7363 33.3503 13.841C33.1086 13.8079 32.9692 13.8185 32.9297 13.8671C32.9186 13.8769 33.2354 14.0076 32.9997 14.0716C32.7177 14.1665 32.9923 13.7553 32.7218 13.6903C32.7094 13.6839 32.4968 13.6876 32.5654 13.7021C32.5975 13.7074 32.7178 13.7063 32.8959 13.6764C33.0701 13.6491 33.2878 13.5868 33.3142 13.5843C33.8904 13.4983 33.3045 13.836 32.9674 13.9598C32.6195 14.0899 32.5803 14.1043 32.58 14.1227C32.593 14.1535 32.6195 14.2039 33.0177 14.1421C33.2131 14.1093 33.5158 14.0292 33.8329 13.8951C34.1457 13.766 34.443 13.5875 34.4805 13.5592C34.4726 13.5973 32.1139 14.3778 34.5568 13.2289C34.498 13.2733 34.4357 13.3215 34.3719 13.3724C34.4425 13.347 34.517 13.3189 34.596 13.2876C34.3521 13.4758 34.1313 13.6182 33.9388 13.7321C34.1751 13.6344 34.4181 13.5028 34.64 13.3536C34.2579 13.6034 34.1556 13.4736 34.053 13.5282C33.709 13.7042 33.6927 14.1465 33.3736 13.8677C33.2864 13.7949 33.2219 13.6844 33.2122 13.6705C33.0768 13.5879 33.366 13.8774 33.1902 13.6182C33.1823 13.6106 33.124 13.6024 33.0887 13.5705C33.0588 13.5279 32.9998 13.5478 33.1223 13.3667C33.1558 13.3152 33.1866 13.2657 33.2147 13.2188C33.1932 13.268 33.1684 13.321 33.1395 13.378C33.1431 13.4128 33.147 13.446 33.1515 13.4773C33.1678 13.4752 33.1917 13.4613 33.2226 13.4323C33.6223 12.8361 33.6319 12.6923 33.6385 12.7358C33.6353 12.7753 33.5977 12.9388 33.5841 12.9734C33.4698 13.2933 33.3293 12.9391 33.2792 13.3286C33.4433 13.2288 33.4783 13.4669 33.446 13.7638C33.4139 14.0542 33.317 14.3961 33.2008 14.3381C33.4757 14.5668 33.0938 15.8643 33.0379 16.5304C32.9986 16.9418 33.075 17.8113 33.0518 17.9455C33.0224 18.1087 32.8151 18.0468 32.751 18.3413C32.7323 18.4256 32.8365 19.3237 32.5869 20.1083C32.5386 20.2599 32.1694 20.5703 32.0916 20.2797C31.9577 19.7806 32.2906 18.8705 32.08 18.8726C31.8526 18.873 31.9278 20.1286 31.8872 20.4661C31.6952 22.0244 31.4883 21.1152 31.4137 21.1516C31.2332 21.2506 31.2132 22.1115 31.1969 22.1471C31.1224 22.2947 30.9998 21.6788 30.8927 21.6667C30.7524 21.6507 30.477 22.4777 30.4349 22.2869C30.3743 22.0143 30.6083 21.2539 30.6003 21.2054C30.4857 20.5695 30.1324 21.4246 29.9669 21.6594C29.9158 21.7305 29.8441 21.4392 29.8279 21.4988C29.5833 22.4131 30.2766 21.7067 30.2153 22.3152C30.1616 22.8618 29.9664 22.1517 29.9543 22.1733C29.9404 22.1983 29.9129 22.8541 29.8358 22.9532C29.7949 23.0056 29.4263 21.2914 29.2406 21.357C29.2644 21.9005 29.291 22.4479 29.3203 22.9913C29.0771 23.0283 29.2734 22.249 29.251 22.1685C29.2052 22.0045 29.071 22.4549 28.9952 22.4344C28.9467 22.4219 28.7868 21.8839 28.7029 22.3647C28.6741 22.5313 28.8348 22.8836 28.6502 23.4843C28.4739 21.3729 28.3063 22.8302 28.219 22.8895C28.1319 22.9501 27.9526 21.9352 27.9614 23.1623C27.4896 23.2064 27.8129 23.1321 27.7378 22.7817C27.6466 22.3526 27.4656 23.337 27.6241 21.7766C27.4 21.8598 27.3854 23.116 27.3676 23.1843C27.3504 23.2417 27.2477 22.959 27.209 23.0583C26.7604 24.2312 26.9704 23.424 26.6922 23.762C26.6668 23.7901 26.5502 24.9129 26.5227 24.0559C26.4752 22.5018 26.8105 21.8616 26.1497 21.5795C25.8244 22.7272 26.234 24.1284 26.2375 24.4805C26.2416 25.0134 26.112 24.4596 26.073 24.525C26.0603 24.5454 26.0664 25.0116 26.0556 25.0165C25.5407 25.3401 26.0725 22.9584 26.0079 22.2047C25.9265 22.4051 25.8454 22.6055 25.7647 22.8042C25.7676 22.5328 25.7713 22.2552 25.7756 21.9834C25.5897 23.2843 25.7153 22.0285 25.3129 21.6905C25.2223 21.6147 25.357 22.4798 25.1274 21.4904C25.0472 22.214 24.9692 21.9791 25.0697 22.6385C24.9035 22.6185 24.7555 21.1366 24.6939 20.5487C24.4418 22.6049 25.082 21.4462 24.7204 23.2181C24.9186 23.5518 24.8958 22.7011 24.9284 22.7717C25.0444 23.0234 24.8392 23.6021 25.2554 24.3092C25.3239 24.4234 25.5451 23.9472 25.5257 24.6561C25.5231 24.7372 25.3347 25.1892 25.3216 25.1817C25.178 25.1224 25.2367 24.6709 25.1769 24.6505C25.1201 24.6332 25.149 25.138 25.1334 25.138C24.9527 25.1527 25.0686 24.7184 25.0115 24.7807C24.8871 24.9144 24.4813 26.7261 24.6193 24.3605C24.8025 26.3226 24.8128 24.6148 24.7477 23.8484C24.7312 23.6541 24.6243 23.5997 24.592 23.3224C24.5503 22.9644 24.6115 22.5459 24.5964 22.3599C24.58 22.1597 24.2955 23.2883 24.4147 21.649C24.1359 22.4797 24.3778 23.9547 24.1921 24.7746C23.8163 26.4245 23.7667 23.6158 23.7423 23.3198C23.7343 23.2419 23.584 23.4995 23.576 23.4479C23.5621 23.3651 23.6661 21.7649 23.5523 21.603C23.4363 21.4423 23.5415 22.1896 23.4153 22.2362C23.3276 22.2695 23.2368 20.3265 23.1469 21.3739C23.0839 22.0979 23.3963 23.4328 23.0285 23.6516C23.0164 22.5876 23.0131 21.5261 23.0215 20.4573C22.8616 21.0354 22.7051 21.6169 22.5517 22.1956C22.5381 20.9974 22.7313 19.9667 22.5877 18.8112C22.0216 21.5463 22.2701 17.9004 22.2283 17.8503C22.1956 17.835 21.7778 18.9102 21.7051 19.082C21.5984 18.1201 21.7422 15.1139 21.1758 16.8397C21.2962 16.5277 21.1069 15.7327 21.0882 15.7398C20.8792 15.8308 20.8937 17.5252 20.7356 17.239C20.5491 16.9077 20.8579 16.4776 20.873 15.9821C20.9887 13.3789 19.8342 14.0996 20.4464 11.1666C20.3996 11.2211 20.353 11.2759 20.3065 11.3311C20.4134 10.7668 20.5375 10.1656 20.7357 9.44294C20.988 8.6749 21.0389 7.99743 22.1429 6.19105C23.9281 3.56738 26.0581 2.44077 26.9563 1.83958C29.0848 0.520179 30.3918 0.496287 31.432 0.370251C32.6887 0.0814909 34.4087 0.0787342 35.8414 0.267923C37.8892 0.550985 40.027 1.89837 41.0799 3.10808C42.1912 4.32964 42.6488 5.31612 42.9591 6.01068C43.0963 6.31531 43.3751 7.15158 43.5124 7.82013C43.6572 8.48995 43.7165 9.04017 43.7189 9.1189C43.7383 9.43142 43.3377 7.81672 43.4133 8.57803C43.4255 8.65942 43.6105 9.58219 43.717 10.321C43.8321 11.0733 43.9155 11.7013 43.9942 11.5952C43.9886 11.2901 43.7641 10.2645 43.7687 10.0681C43.8133 9.40781 44.194 11.5711 44.2664 13.4167C44.3648 15.3085 44.3498 17.0989 44.417 17.2685C44.471 17.1152 44.525 16.9609 44.5788 16.8057C44.56 17.2454 44.5401 17.6767 44.5207 18.0985ZM33.9823 13.2716C34.1539 13.1285 34.2319 12.9486 34.2328 12.9264C34.2372 12.8952 34.1949 12.9633 34.2009 13.0458C34.216 13.2579 34.7787 14.0057 34.153 13.6279C34.1705 13.3683 34.1929 13.1319 34.1997 12.9973C34.191 12.8836 34.2443 12.7746 33.9823 13.2716ZM29.7312 11.788C29.8034 11.7002 30.1744 11.6016 30.0582 11.7876C30.0463 11.817 29.6511 11.9882 29.7312 11.788ZM32.5586 14.1042C32.5473 14.0986 32.619 14.1109 32.6321 14.1181C32.6826 14.1979 32.6051 14.2228 32.5757 14.2169C32.5451 14.2109 32.5619 14.1705 32.5586 14.1042ZM42.6413 27.8033C42.1746 27.9691 42.6206 28.1884 42.8702 27.9619C42.8861 27.9475 42.6723 27.7926 42.6413 27.8033ZM42.3007 27.9023C41.8354 27.7262 41.2784 28.5794 41.8557 28.317C41.9135 28.2902 42.3213 27.9109 42.3007 27.9023ZM30.27 12.4039C30.2931 12.3373 30.1886 12.167 30.1128 12.0437C30.0305 11.9119 29.9696 11.8316 29.9374 11.7955C29.8888 11.8185 29.907 11.8755 29.9748 11.9855C30.0415 12.0957 30.1796 12.2752 30.27 12.4039ZM30.7809 17.6392C30.8253 17.6583 30.6941 17.8845 30.5773 18.1862C30.4564 18.4873 30.3917 18.7756 30.3275 18.7993C30.3607 18.7265 30.3922 18.4219 30.5014 18.1244C30.6068 17.8267 30.7451 17.6191 30.7809 17.6392ZM38.9044 29.184C38.8579 29.1844 38.2366 29.4431 38.2823 29.5134C38.6419 29.4952 39.131 29.1767 38.9044 29.184ZM46.6313 26.8895C46.6483 26.8685 46.2541 26.3885 47.0704 26.6284C47.186 26.6647 46.8107 26.8495 46.8515 26.8641C46.9398 26.8889 47.0058 26.8978 47.0571 26.8946C46.7208 26.9784 46.3338 27.0662 46.2898 27.0419C46.0862 26.9246 46.6262 26.8969 46.6313 26.8895ZM46.8466 26.2694C46.907 26.2032 47.2059 26.4699 47.2982 26.5858C47.3122 26.6048 47.0994 26.7247 47.3086 26.8623C47.4816 26.9778 47.3712 26.6195 47.6615 26.8691C47.6578 26.867 47.6538 26.8649 47.6494 26.8629C47.5468 26.8138 47.5418 26.9336 47.5528 27.0099C47.501 26.9949 47.4646 26.9848 47.4709 26.9936C47.4763 27.001 47.4978 27.0166 47.5305 27.0388C47.4666 26.9765 47.4057 26.8425 47.3336 26.9265C47.2841 26.9738 47.3668 27.0445 47.4708 27.1161C47.3709 27.0354 47.2909 26.9718 47.2463 26.9461C47.0675 26.8447 47.1537 27.1155 46.9249 26.9003C46.7946 26.7771 47.0454 26.6015 47.0239 26.5676C47.0143 26.5531 46.868 26.4958 46.7992 26.4535C46.7291 26.4101 46.7123 26.3612 46.8466 26.2705C46.8466 26.2701 46.8466 26.2698 46.8466 26.2694ZM47.148 26.8709C47.1236 26.8836 47.0936 26.8924 47.0571 26.8946C47.0874 26.887 47.1182 26.8787 47.148 26.8709ZM33.4133 13.9183C33.4664 13.9897 33.5691 14.0587 33.5701 13.8707C33.4796 13.8365 33.3822 13.932 33.4133 13.9183ZM47.432 26.6048C47.9059 26.6438 47.5832 26.7581 47.148 26.8709C47.283 26.801 47.2668 26.5954 47.432 26.6048ZM30.4339 14.9525C30.4136 14.9832 30.3806 15.0035 30.3254 15.0082C30.3827 14.9273 30.4149 14.9191 30.4339 14.9525ZM30.3876 16.67C30.5703 17.2754 30.535 16.0385 30.4135 16.0562C30.3683 16.059 30.3806 16.645 30.3876 16.67ZM43.2496 27.634C43.1966 27.6332 43.7905 26.9218 42.8277 27.6118C43.4162 27.4949 42.8321 27.7309 42.8523 27.7719C42.9157 27.8837 43.8309 27.4833 44.0498 27.485C44.1522 27.2176 43.4232 27.6362 43.2508 27.6336C43.2504 27.6337 43.25 27.6339 43.2496 27.634ZM48.2188 24.8446C48.1803 24.8427 48.1455 24.8562 48.1151 24.8797C47.9426 25.0834 47.8003 25.4844 47.7326 25.7967C47.8788 25.66 48.0054 25.2365 48.1816 24.9178C48.1936 24.8923 48.206 24.8674 48.2188 24.8446ZM12.2447 21.0394C12.3968 21.0514 12.5471 21.072 12.6798 21.0972C12.4368 21.0735 12.5166 21.0955 12.5468 21.1069C12.5966 21.121 12.656 21.1375 12.7153 21.1553C12.825 21.1904 12.9025 21.2302 12.9042 21.2654C12.9084 21.3006 12.8341 21.3311 12.7233 21.3458C12.6615 21.353 12.5989 21.3563 12.5417 21.354C12.5051 21.3547 12.4098 21.3361 12.6464 21.353C12.5766 21.3356 12.5038 21.313 12.4297 21.2843C12.4031 21.2769 12.1706 21.0817 12.2447 21.0394ZM33.8865 33.7054C33.6711 33.6971 33.8022 33.4119 33.8368 33.4021C33.8706 33.346 34.2005 33.1144 34.8281 32.093C34.9574 31.8633 35.2312 31.4259 35.4856 30.6296C35.7506 29.8612 35.8529 28.6256 35.7467 27.8511C35.6477 27.0781 35.5735 26.7734 35.7762 27.4568C35.9975 28.0326 36.0959 30.2806 35.3725 31.7026C35.3299 31.6109 34.9503 32.279 34.5872 32.705C34.2255 33.1481 33.9257 33.4258 33.8953 33.4521C33.8679 33.4622 33.8574 33.5451 33.8865 33.7054ZM47.6885 26.4325C47.7072 26.4073 47.7326 26.388 47.7626 26.3736C47.6029 26.3168 47.225 26.3672 47.0514 26.3382C47.1179 26.4825 47.5647 26.5106 47.7663 26.4461C47.738 26.4417 47.7116 26.4371 47.6885 26.4325ZM18.6083 21.4033C18.8637 21.4251 19.0439 21.2207 18.9989 21.2026C18.7983 21.1196 18.3194 21.2809 18.6083 21.4033ZM46.1639 26.5984C46.1263 26.5054 46.7866 26.3073 46.8563 26.5391C46.7212 26.5373 46.1944 26.6517 46.1639 26.5984ZM48.0114 25.4284C48.003 25.5422 48.1561 25.2458 48.3212 24.9978C48.3596 24.9483 48.395 24.8938 48.4025 24.8536C48.3598 24.8287 48.2872 24.882 48.2341 24.9479C48.1082 25.1347 48.0158 25.3691 48.0114 25.4284ZM22.7629 21.4615C22.9941 21.4903 23.5739 21.5269 23.6435 21.4471C23.7296 21.3461 22.8749 21.3362 22.7629 21.4615ZM20.7527 25.1114C20.7517 25.1551 19.9447 24.9527 19.6878 24.7085C19.2018 24.241 20.742 25.0674 20.7527 25.1114ZM16.2002 21.4936C15.4854 21.2965 16.2774 21.4872 16.2479 21.2793C15.765 21.2711 14.5872 21.2658 15.3986 21.4674C15.5554 21.5064 15.9726 21.48 16.2002 21.4936ZM16.8576 21.5643C16.9317 21.497 17.456 21.2873 17.0048 21.3003C16.799 21.3067 16.4682 21.542 16.8576 21.5643ZM16.6583 22.7276C16.2734 22.295 18.3758 23.6 18.4322 23.6903C18.4565 23.7249 18.4699 23.7518 18.4753 23.7709C18.5861 23.7693 19.0077 24.0161 18.9792 24.1727C18.8591 24.0834 18.5138 23.8871 18.4825 23.8492C18.4692 23.833 18.4599 23.8197 18.4547 23.8088C18.2369 23.8166 16.7189 22.7886 16.6583 22.7276ZM15.0596 21.9725C15.6496 21.7206 15.7727 22.1933 15.7098 22.2042C15.025 22.3624 15.4807 22.0421 15.4593 22.0249C15.4079 21.9953 14.955 22.1379 15.0614 21.9726C15.0608 21.9725 15.0602 21.9725 15.0596 21.9725ZM15.9992 22.2942C16.0187 22.296 16.4388 22.5312 16.4553 22.5495C16.7286 22.8671 15.5535 22.2111 15.9992 22.2942ZM47.8016 26.6031C47.8231 26.7315 47.6108 26.7021 47.6392 26.6351C47.6436 26.6314 47.7885 26.5043 47.8016 26.6031ZM17.2118 21.5201C17.3083 21.547 19.9516 21.7084 19.7986 21.4535C19.5674 21.47 16.5729 21.3072 17.2118 21.5201ZM31.2235 36.5428C31.2865 36.4125 31.4392 36.6538 31.3286 36.6872C31.2863 36.7014 31.2075 36.5765 31.2235 36.5428ZM45.1657 26.5762C44.8343 26.7887 44.8071 26.3366 45.1572 26.4139C45.1708 26.417 45.1786 26.5679 45.1657 26.5762ZM32.3137 35.2834C31.9487 35.8004 31.7947 35.7655 31.7226 35.6281C31.6855 35.4514 31.7113 35.2191 32.5995 34.4173C32.6178 34.3988 32.6359 34.3804 32.6539 34.3621C32.6419 34.3855 32.6297 34.4091 32.6172 34.4329C32.5956 34.4993 32.575 34.5642 32.5555 34.6278C32.5996 34.5824 32.643 34.5375 32.6854 34.4932C33.2856 33.8276 33.4122 33.6361 33.5005 33.5449C33.5773 33.4592 33.5836 33.4609 33.5646 33.492C33.5295 33.5401 33.3117 33.8765 32.7401 34.5415C32.5545 34.7546 32.4109 34.9188 32.3351 35.0175C32.2114 35.179 32.4179 35.1412 32.3152 35.283C32.3147 35.2831 32.3142 35.2832 32.3137 35.2834ZM30.9404 37.4231C30.6086 37.7415 30.5855 37.5634 30.6598 37.2574C30.734 36.9508 30.9186 36.6358 30.945 36.4917C31.0401 36.8428 30.9042 37.1957 31.2812 36.7847C31.183 37.1212 31.1183 37.2687 31.0624 37.2733C31.0075 37.2847 30.9694 37.1891 30.9566 37.2044C30.9269 37.2394 30.9685 37.3986 30.9404 37.4231ZM31.4673 36.0712C31.4685 36.0375 31.7165 35.8833 31.7884 35.7688C31.8015 36.0388 31.4431 36.3029 31.4673 36.0712ZM13.775 21.9736C13.6739 21.8644 13.5155 21.8407 13.3966 21.9501C13.4593 22.004 13.6166 22.001 13.775 21.9736ZM33.4126 12.6624C33.421 12.5847 33.2686 12.9546 33.4457 12.8814C33.4527 12.8796 33.4778 12.7744 33.4794 12.7231C33.484 12.6613 33.4542 12.6749 33.4126 12.6624ZM24.9264 21.9078C25.0017 21.926 27.0472 22.1015 26.3531 21.8843C26.1436 21.8139 24.2805 21.7032 24.9264 21.9078ZM14.511 21.622C14.6663 21.6227 15.3341 21.5926 15.3483 21.5582C15.3931 21.4387 14.574 21.5075 14.511 21.622ZM33.0995 13.3966C33.0772 13.4089 32.9774 14.2498 33.0627 14.1701C33.2179 13.998 33.1698 13.2857 33.0995 13.3966ZM48.4119 27.0787C48.4385 27.128 48.3209 27.2591 48.3268 27.2786C48.3342 27.2989 48.4502 27.5525 48.5329 27.8118C48.3793 27.4056 48.3097 27.084 48.2836 27.4949C48.2837 27.522 48.3114 27.6603 48.3856 27.865C48.2976 27.6146 48.1696 27.2418 48.0743 26.9952C47.977 26.7412 47.9185 26.6091 47.9081 26.5746C48.071 26.4156 48.0725 26.8517 48.154 26.992C48.1677 27.0128 48.3393 26.9488 48.4109 27.0786C48.4113 27.0787 48.4116 27.0787 48.4119 27.0787ZM13.6248 21.9747C13.6285 21.9048 13.8423 21.8226 14.1553 21.7949C14.4593 21.766 14.8321 21.7934 14.8208 21.8768C14.3187 21.8873 13.8963 21.9232 13.6248 21.9747ZM13.3476 21.9945C13.2671 21.9133 13.3972 21.8468 13.5546 21.8723C13.5469 21.9648 13.3336 22.0093 13.3476 21.9945ZM18.2577 22.1457C18.4604 22.1143 17.8415 21.9054 17.981 21.8678C18.0688 21.8441 18.5209 21.9254 18.664 21.8647C18.7046 21.8451 18.2498 21.6491 18.1144 21.6559C17.9258 21.6648 18.1063 21.8159 17.902 21.8148C17.2184 21.8113 16.6153 21.7031 15.9833 21.7061C15.926 21.7066 16.3695 21.8116 15.8827 21.8106C15.8133 21.8106 15.3527 21.6544 14.7846 21.6803C14.2664 21.8833 13.8106 21.9222 13.3703 21.9072C13.1513 21.8996 12.9396 21.8784 12.7475 21.8564C12.6532 21.8455 12.569 21.8342 12.5089 21.825C12.4627 21.8177 12.4036 21.8035 12.5847 21.8248C12.4488 21.8066 12.3112 21.7959 12.1698 21.7995C12.1804 21.8279 12.3668 21.9144 12.5645 21.9796C12.3985 21.9754 12.4514 21.998 12.4801 22.0087C12.5141 22.0208 12.5634 22.0293 12.5692 22.0305C13.4845 22.1392 16.1066 22.1094 17.5078 22.1282C17.879 22.1316 17.7025 22.0273 17.8603 22.025C17.986 22.0235 17.8319 22.2121 18.2577 22.1457ZM33.2977 12.6692C33.1595 12.4954 33.226 12.6537 33.1679 12.8711C33.3461 12.8401 33.312 12.4948 33.2977 12.6692ZM12.9776 22.933C12.9719 23.1035 12.8889 23.5643 12.9462 23.5945C13.0161 23.6569 13.1013 22.9894 12.9776 22.933ZM48.258 25.0314C48.2525 25.0384 47.9894 25.0579 47.9768 25.0521C47.7328 24.9258 48.5 24.8692 48.258 25.0314ZM39.7466 24.0964C39.7368 24.0948 39.7271 24.0933 39.7175 24.0919C39.56 24.0996 38.9075 23.8708 37.6075 23.6867C39.5174 23.8257 39.6285 24.02 39.7287 24.0471C39.749 24.0625 39.757 24.0789 39.7466 24.0964ZM29.7386 42.2949C29.948 42.2946 29.6888 42.9167 29.6433 42.992C29.5682 42.9474 29.5913 42.3186 29.7386 42.2949ZM13.4676 21.4168C13.2198 21.582 13.157 21.2541 13.1533 21.4106C13.173 21.4259 13.3057 22.0672 13.4116 21.7569C13.4402 21.6899 13.1832 21.669 13.4676 21.4168ZM33.063 33.8754C33.0947 33.7273 33.2269 33.5126 33.3189 33.3805C33.4148 33.2435 33.4757 33.1868 33.5073 33.1573C33.5377 33.1987 33.5287 33.2369 33.449 33.3539C33.3753 33.4629 33.1894 33.7071 33.063 33.8754ZM32.7316 14.9253C32.5116 15.1507 32.5383 16.3972 32.6908 16.1033C32.7087 16.0619 32.7039 15.0812 32.7316 14.9253ZM47.0895 25.7387C47.0386 25.6427 47.0869 25.6099 47.1712 25.6224C47.2566 25.6367 47.4261 25.6905 47.5087 25.7673C47.423 25.7608 47.0784 25.7528 47.0895 25.7387ZM30.1415 39.4421C30.1468 39.4687 30.0994 39.9974 30.0899 40.0177C29.9078 40.4394 30.0404 38.9471 30.1415 39.4421ZM42.6999 24.9465C42.4982 25.0431 41.297 24.7238 41.0538 24.5429C41.3513 24.4317 42.9485 24.838 42.6999 24.9465ZM12.9364 22.1686C13.0574 22.0106 13.2617 21.8437 13.5065 21.672C13.5207 21.7307 13.3654 21.8854 13.23 21.9981C13.0916 22.1131 12.9726 22.185 12.9364 22.1686ZM30.0045 41.2987C30.0008 41.3236 29.9864 41.3464 29.9824 41.3698C29.9897 41.3457 29.9974 41.322 30.0045 41.2987ZM11.39 21.8189C11.5013 21.9043 11.5401 21.7159 11.5335 21.7079C11.4617 21.6184 11.276 21.7232 11.39 21.8189ZM33.0428 12.554C32.8769 12.5065 32.9288 12.821 32.8405 13.0687C32.9844 13.0189 33.0468 12.5828 33.0428 12.554ZM30.4839 38.2463C30.2695 38.5242 30.1707 37.3137 30.3517 37.1637C30.453 37.1538 30.4975 38.1808 30.4839 38.2463ZM47.5453 25.5748C47.5157 25.4397 46.9768 25.6535 47.1012 25.7053C47.1834 25.7349 47.5673 25.6549 47.5453 25.5748ZM30.5454 36.7369C30.5307 36.645 30.715 36.5266 30.7691 36.612C30.8399 36.7153 30.5509 36.7576 30.5454 36.7369ZM21.1362 22.3315C21.2194 22.3534 22.3386 22.2615 21.8831 22.1068C21.5662 21.9993 21.5112 22.1906 21.4346 22.1883C21.3472 22.1824 19.5692 21.891 21.1362 22.3315ZM30.2674 47.9221C30.1927 47.7409 30.2286 47.418 30.2144 47.102C30.2979 47.2525 30.3638 47.8587 30.2674 47.9221ZM47.2114 25.4949C47.2021 25.453 47.049 25.3567 47.1604 25.4103C47.2636 25.4501 47.3599 25.5104 47.1235 25.5271C47.1105 25.5289 47.0289 25.5156 47.0682 25.5334C47.0993 25.5478 47.2151 25.593 47.2114 25.4949ZM13.4676 21.4168C13.5016 21.3925 13.5407 21.3576 13.585 21.3064C13.5362 21.351 13.4989 21.3879 13.4676 21.4168ZM12.6333 23.128C12.5432 23.0025 12.4807 23.6102 12.5307 23.7501C12.6447 23.8154 12.6425 23.1607 12.6333 23.128ZM30.0781 47.0831C30.0159 46.9067 30.0692 46.5458 30.0631 46.2874C30.1515 46.3358 30.1648 47.0148 30.0781 47.0831ZM29.9369 43.4703C29.9059 43.5194 29.8795 43.5676 29.8597 43.6103C29.7939 43.7579 29.7579 43.9171 29.8307 43.9551C29.8129 43.9523 29.7914 43.9551 29.7666 43.9646C29.7439 43.973 29.6734 44.2311 29.5792 44.3188C29.3052 44.5716 29.6309 43.9727 29.7997 43.5875C29.8797 43.4242 29.9759 43.1989 30.0342 43.1625C30.0935 43.1137 30.1171 43.317 30.0618 43.6873C30.0577 43.7098 30.0531 43.7334 30.0479 43.7581C30.039 43.7288 30.0297 43.6999 30.0201 43.6714C29.9924 43.6077 29.9647 43.5407 29.9369 43.4703ZM44.2896 25.4271C44.5079 25.589 45.1593 25.4779 44.9984 25.4102C44.8902 25.3676 44.0758 25.2682 44.2896 25.4271ZM30.9689 32.9282C30.998 32.8408 31.0258 31.8905 30.9665 31.841C30.8012 32.404 30.8115 33.3674 30.9689 32.9282ZM46.0073 25.7214C46.1445 25.7478 46.3227 25.536 46.3069 25.5261C46.1756 25.4441 45.783 25.5904 46.0073 25.7214ZM12.9692 21.1412C12.7748 21.2438 12.5432 21.7323 12.6151 21.8775C12.5836 21.8722 12.5269 21.8838 12.4486 21.9136C12.4487 21.9135 12.4488 21.9133 12.449 21.9131C12.4217 21.9206 12.2623 22.109 12.2177 22.1792C12.1669 22.2631 12.2237 22.1374 12.2373 22.0262C12.1894 22.7921 12.2063 23.1172 12.3829 22.0382C12.3954 22.0857 12.4034 22.1517 12.4072 22.212C12.4103 22.2328 12.2904 22.1901 12.296 22.2417C12.2969 22.2438 12.3937 22.2846 12.3963 22.2914C12.3997 22.3 12.4114 22.3089 12.4699 22.2294C12.5238 22.156 12.6348 22.0051 12.6469 21.9253C12.6627 21.9367 12.6824 21.9418 12.7076 21.9381C12.896 21.9328 13.0925 21.0807 12.9692 21.1412ZM30.8469 34.642C30.8947 34.4834 30.8967 33.9378 30.8096 33.8746C30.7404 34.1458 30.7326 35.023 30.8469 34.642ZM47.3832 25.1549C47.2938 25.0145 47.2235 25.1451 47.2008 25.2167C47.187 25.2364 47.1963 25.2238 47.2637 25.226C47.3271 25.2262 47.4173 25.2266 47.3832 25.1549ZM32.1506 28.0654C31.4023 29.6695 31.4997 29.7377 31.538 29.6386C31.6034 29.5251 31.8145 29.0903 31.8038 29.3389C31.8826 28.9451 31.9927 28.5173 32.1506 28.0654ZM16.7663 21.3114C16.5918 21.2837 16.6493 21.1837 16.7914 21.1418L15.2299 20.8167C15.2809 20.8003 15.3531 20.8192 15.3987 20.9013C15.4339 20.964 15.233 21.0092 15.1694 20.9776L16.7826 21.3134C16.777 21.3129 16.7716 21.3122 16.7663 21.3114ZM24.7572 26.7455C24.7447 26.661 24.7909 26.6495 24.8586 26.6769L24.7702 26.6122C24.956 26.689 25.2814 27.0739 24.9701 26.9883C24.9549 26.9822 24.7699 26.791 24.696 26.7114L24.7865 26.7777C24.7695 26.7603 24.7587 26.7485 24.7572 26.7455ZM17.8762 22.1347C17.6502 22.1925 17.5442 22.1522 17.1563 21.8937C17.7832 22.1884 17.2885 21.748 17.8762 22.1347ZM29.8475 43.96C29.841 43.9587 29.836 43.9578 29.8307 43.9551C29.8368 43.956 29.8422 43.9577 29.8475 43.96ZM47.2725 25.6908C47.4401 25.8251 47.8674 25.7876 47.7308 25.6579C47.7198 25.6473 47.3375 25.5891 47.2725 25.6908ZM12.6151 21.8775C12.6432 21.882 12.6505 21.898 12.6469 21.9253C12.6321 21.9145 12.6225 21.8989 12.6151 21.8775ZM44.6387 25.6922C44.6685 25.5948 43.8804 25.4669 43.8457 25.4721C43.3642 25.5894 44.3141 25.6704 44.6387 25.6922ZM45.1129 25.3793C45.0768 25.3979 45.3821 25.6021 45.5116 25.4712C45.6139 25.3689 45.2523 25.3068 45.1129 25.3793ZM19.3335 22.9228C19.5665 23.0655 19.8966 23.2718 19.8917 23.417C19.7436 23.3004 19.28 22.9974 19.3335 22.9228ZM24.5011 26.3516C24.1411 26.2761 23.5159 25.8364 23.1282 25.5404C23.2317 25.3743 24.2178 26.2038 24.5011 26.3516ZM13.3709 20.8461C13.372 20.8427 13.387 20.8235 13.4099 20.7956C13.2655 20.9133 13.0256 21.136 13.1398 21.1633C13.2646 21.1959 13.4141 21.0257 13.4944 20.8838C13.4159 20.9121 13.3555 20.8983 13.3709 20.8461ZM46.2774 25.3018C46.5198 25.173 45.8842 24.9937 45.6405 25.2594C45.521 25.3911 46.2411 25.3192 46.2774 25.3018ZM48.5492 25.7608C48.7833 25.6485 48.1534 25.6098 48.0519 25.7494C48.186 25.7486 48.4676 25.8018 48.5492 25.7608ZM31.5378 31.4086C32.3192 29.5686 31.4105 30.4427 31.3854 30.8288C31.3811 30.8819 31.5185 31.4551 31.5378 31.4086ZM31.6911 17.9956C31.7339 18.1831 31.9734 17.508 31.8506 17.4115C31.7729 17.3521 31.6633 17.873 31.6911 17.9956ZM27.4055 47.0019C27.4278 46.9848 27.4507 46.967 27.4742 46.9487C27.4599 46.9669 27.4375 46.9855 27.4055 47.0019ZM49.9658 25.879C49.6406 25.4324 49.8721 25.789 49.8608 25.7933C49.8399 25.7983 49.7218 25.6938 49.6273 25.7559C49.7223 25.653 49.7401 25.5678 49.7061 25.5156C49.6759 25.4928 49.7188 25.4375 49.1017 25.5697C48.8959 25.5997 48.6423 25.6318 48.638 25.669C48.6263 25.8041 49.0412 25.6777 49.0395 25.6848C49.0561 25.6956 49.1798 25.9693 49.2305 26.0198C49.2386 26.0238 49.2457 26.0258 49.2517 26.0253C49.3358 26.0137 49.6884 25.9159 49.8061 25.8723C49.9458 25.8216 49.9364 25.8423 49.9658 25.879ZM36.3073 24.7734C35.2708 24.9436 33.7945 25.8795 33.1799 26.8137C32.9845 26.9982 32.8598 27.0749 32.7868 27.2398C32.7544 27.3167 32.8545 27.4049 32.7554 27.6534C32.8891 27.3957 33.0505 27.1187 33.231 26.8497C34.0127 25.6619 35.506 24.9225 36.3073 24.7734ZM49.4069 25.8572C49.4437 25.9644 49.514 25.8554 49.5944 25.7276C49.6127 25.7085 49.6276 25.6508 49.6223 25.6423C49.5769 25.5695 49.458 25.5916 49.4473 25.6433C49.4074 25.724 49.3901 25.8051 49.4069 25.8572ZM45.0208 25.8467C45.0601 25.8627 45.842 25.9663 45.8376 25.872C45.6421 25.7989 44.5858 25.6901 45.0208 25.8467ZM32.6132 27.9414C32.2528 28.5836 31.7943 29.5762 32.028 29.5173C32.0282 29.5165 32.0285 29.5157 32.0287 29.5149C32.1671 29.0291 32.3413 28.5174 32.6132 27.9414ZM47.0751 24.7663C46.5743 24.4992 46.854 24.8723 47.2529 24.9386C47.3575 24.7844 47.1556 24.8102 47.0751 24.7663ZM45.4989 24.7627C45.355 24.7193 43.8849 25.1287 44.152 25.2442C44.2489 25.2789 45.0593 24.9341 45.0994 24.9411C45.1607 24.9463 44.9363 25.1849 45.3697 25.0571C45.3307 24.9995 45.5503 24.7722 45.4989 24.7627ZM46.6669 24.6063C46.155 24.4287 46.1134 24.896 46.4719 24.8427C46.6108 24.8234 46.7379 24.6329 46.6669 24.6063ZM47.499 24.5362C47.5294 24.5032 47.6215 24.458 47.6705 24.5738C47.6547 24.5816 47.6392 24.5901 47.6242 24.5993C47.6401 24.599 47.6559 24.5987 47.6717 24.5984C47.61 24.6181 47.4604 24.604 47.4466 24.608C47.4724 24.5269 47.4646 24.5665 47.4992 24.5363C47.4991 24.5363 47.4991 24.5362 47.499 24.5362ZM27.5911 27.3609C27.3988 26.999 28.0799 27.5872 28.1179 27.6752C28.1362 27.8412 27.6632 27.5064 27.5911 27.3609ZM27.4319 21.5217C27.377 21.6537 27.2064 21.7388 27.2863 22.0373C27.4181 21.7422 27.5508 21.4482 27.6843 21.1546C27.4081 20.9136 27.4924 21.3769 27.4319 21.5217ZM26.3647 22.6363C26.3589 22.5934 25.9166 22.8162 26.2214 22.2735C26.4257 21.91 26.5728 23.9237 26.3775 24.2835C26.2925 23.8807 26.4118 23.0016 26.3647 22.6363ZM24.4282 26.1533C24.3929 26.177 24.3462 25.4053 24.3719 25.3138C24.505 24.8427 24.6142 26.0273 24.4282 26.1533ZM24.5369 23.6915C24.446 24.0526 24.4048 23.2483 24.459 23.0104C24.5405 22.9898 24.5499 23.6343 24.5369 23.6915ZM27.7884 19.5208C27.6333 19.0519 26.978 19.3763 27.5514 19.6159C27.5785 19.6273 27.7939 19.5423 27.7884 19.5208ZM23.9922 25.3949C24.0798 25.0325 24.1281 25.8324 24.0787 26.0764C23.9972 26.0979 23.9791 25.4509 23.9922 25.3949ZM27.962 18.7811C27.6464 18.3041 27.395 19.0015 27.4324 19.0621C27.5924 19.3093 28.5127 19.6082 28.7087 19.6619C27.5082 18.9516 28.1078 19.0057 27.962 18.7811ZM25.7002 17.7729C25.2498 17.5676 26.2122 18.3774 26.5211 18.3469C26.3141 18.2186 25.8283 17.8303 25.7002 17.7729ZM23.2912 15.9721C23.078 15.8107 22.4196 15.3486 22.2438 15.3782C22.5106 15.5081 23.1375 16.0132 23.2912 15.9721ZM22.944 15.3688C22.656 15.0198 22.3425 15.3534 22.8307 15.4878C22.8497 15.4931 22.9528 15.384 22.944 15.3688ZM20.9189 14.038C20.7431 13.7437 20.253 13.9772 20.6607 14.2029C20.782 14.2698 20.9368 14.0707 20.9189 14.038ZM27.8507 17.7693C27.5711 17.4863 26.9821 17.4613 27.6505 17.9564C27.3834 17.8314 27.1138 17.7062 26.8455 17.5833C27.6512 18.335 27.8246 17.9381 28.0724 18.1288C28.4194 18.3985 28.1868 18.669 28.0526 18.7113C28.3706 18.729 29.1734 19.2381 29.8583 19.6944C29.8708 19.7019 29.9049 19.7297 29.9172 19.7375C30.1325 19.8876 30.3381 20.0342 30.5162 20.1591C30.3593 20.0075 30.1772 19.8324 29.9835 19.6489C29.9708 19.6408 29.9356 19.6122 29.9227 19.6044C29.4028 19.1282 28.7865 18.5784 28.351 18.2264C28.1803 18.088 27.9522 18.0492 27.8045 17.9352C27.5679 17.7519 27.8658 17.7859 27.852 17.7702C27.8516 17.7699 27.8511 17.7696 27.8507 17.7693ZM16.784 12.5538C16.0056 12.3115 16.4904 12.7714 16.9279 12.7174C16.947 12.7124 16.8037 12.5598 16.784 12.5538ZM22.6676 26.4313C22.8548 25.3768 23.0837 26.1469 22.7464 23.9367C22.9917 24.8693 22.9315 23.9908 23.0332 24.1735C23.1134 24.322 23.0387 24.8579 23.2087 24.5475C23.0203 24.9597 23.0617 26.7657 23.0343 26.8407C23.0343 26.8399 23.0343 26.8392 23.0343 26.8384C23.0169 26.8847 22.6092 26.7718 22.6676 26.4313ZM23.8777 15.0001C23.9169 14.4079 23.3949 15.0679 23.15 14.4161C22.2117 14.5916 24.8568 15.4394 24.8312 16.0726C22.4146 14.4866 26.1601 17.5378 24.8848 15.7859C26.1299 16.9247 25.3979 15.9954 25.6698 16.0475C25.9599 16.1033 26.6796 16.7173 26.7468 16.5275C26.7464 16.5272 26.7459 16.527 26.7455 16.5267C26.2597 16.2219 25.7703 15.9205 25.2755 15.6225C25.5237 16.2821 24.6014 15.5441 24.4371 15.04C24.2506 15.026 24.0651 15.0133 23.8777 15.0001ZM26.4104 17.0822C26.3721 17.0429 25.2965 16.413 25.3188 16.5304C25.4307 16.6621 26.9338 17.5763 26.4104 17.0822ZM31.0045 20.2108C30.7303 19.9937 30.3767 19.6671 30.0914 19.5048C30.078 19.4964 30.0411 19.4663 30.0275 19.4581C29.9285 19.4049 29.8381 19.3713 29.7627 19.3688C29.8294 19.4166 29.9013 19.4716 29.9762 19.5298C29.9894 19.5378 30.0254 19.5672 30.0385 19.5755C30.3716 19.8447 30.7591 20.1825 31.0045 20.2108ZM6.54541 15.1941C6.18588 15.7448 7.60529 14.3711 7.09496 14.6634C7.07275 14.6718 6.56578 15.1603 6.54541 15.1941ZM22.6962 14.3906C22.256 13.9515 22.2519 14.539 22.6968 14.6429C22.7229 14.649 22.7164 14.4107 22.6962 14.3906ZM22.6092 25.5765C22.4826 25.5361 22.5871 24.0057 22.5922 23.7352C22.7043 23.8898 22.7511 25.6201 22.6092 25.5765ZM31.9655 20.3818C31.6158 19.6678 30.8245 19.2918 30.3837 19.1144C30.3686 19.1048 30.3268 19.0708 30.3115 19.0615C30.1437 18.9992 30.0248 18.9613 29.9969 18.9375C29.8975 18.8525 30.1785 18.8103 30.1574 18.7888C30.111 18.7399 28.9622 17.9515 28.8969 17.9252C28.8512 17.9065 28.8997 18.2779 28.6141 18.1858C28.9052 18.2863 29.6033 18.7596 30.2124 19.1999C30.2271 19.2088 30.2672 19.2414 30.2817 19.2506C30.8412 19.6712 31.3424 20.0871 31.4052 20.1192C31.5086 20.1726 31.0255 19.4052 31.9642 20.3808C31.9646 20.3811 31.965 20.3815 31.9655 20.3818ZM29.7647 18.6985C29.9812 18.9941 29.1777 18.4432 29.0088 18.2743C28.6349 17.8957 29.737 18.6599 29.7647 18.6985ZM27.8969 17.2713C27.8205 17.1863 26.9931 16.6022 26.8493 16.6635C27.1559 17.0668 28.0725 17.4638 27.8969 17.2713ZM16.2041 11.6364C15.942 11.6382 15.1594 11.5122 15.1061 11.6262C15.4067 11.6142 16.1609 11.7466 16.2041 11.6364ZM21.7334 20.3063C21.6229 20.7363 21.6211 19.7305 21.6801 19.4382C21.7556 19.426 21.7422 20.2697 21.7334 20.3063ZM23.1497 13.4037C23.0602 13.2816 19.979 11.7256 19.2945 11.5615C19.9148 11.8502 22.9079 13.461 23.0263 13.5112C23.0704 13.5222 23.1649 13.4188 23.1497 13.4037ZM29.0705 17.1299C29.404 17.1579 29.4471 17.4317 29.4759 17.4547C29.7559 17.6802 30.3868 18.0807 30.1605 18.1171C29.6823 17.6962 28.4047 17.072 29.0705 17.1299ZM16.0044 10.8728C14.8563 10.8855 17.0301 11.1576 16.7359 10.9724C16.7232 10.9609 16.128 10.8711 16.0044 10.8728ZM23.4966 13.5493C23.8002 13.5495 26.5075 15.3719 26.9197 15.6623C26.3981 15.6172 26.1884 15.2558 25.6543 14.9315C25.5093 14.844 25.4925 14.9556 25.477 14.946C25.2281 14.7947 25.4768 14.8104 25.3248 14.7127C25.24 14.647 23.1058 13.5309 23.4966 13.5493ZM29.2725 17.1294C29.432 17.1467 30.491 17.8379 30.9514 18.1678C30.9707 18.1795 31.0234 18.2224 31.0424 18.2345C31.1725 18.3314 31.2551 18.3969 31.2671 18.4127C31.396 18.5887 31.2368 18.5131 30.9665 18.3359C30.9479 18.3241 30.8965 18.2822 30.8776 18.2708C30.3466 17.939 29.3462 17.2061 29.2725 17.1294ZM23.3419 13.2039C23.8059 13.1335 25.1129 14.1492 24.0758 13.6922C23.9795 13.6495 23.6489 13.3078 23.3419 13.2039ZM16.138 10.6039C16.1007 10.5894 14.8432 10.491 14.8021 10.5883C15.0307 10.6158 16.776 10.7257 16.138 10.6039ZM16.7476 10.3239C16.7191 10.3247 16.9762 10.5149 16.4481 10.4651C16.3986 10.4614 16.3465 10.2554 15.6133 10.3C15.464 10.3095 15.2217 10.4347 15.2388 10.4434C16.0802 10.7731 18.0406 10.2932 16.7476 10.3239ZM29.3942 17.0177C29.3538 16.8876 29.7089 16.8303 29.8286 17.0678C29.8792 17.1697 29.6409 17.1852 29.3942 17.0177ZM11.6136 10.6909C12.0974 10.5445 11.581 10.5548 10.837 10.6958C10.0996 10.8226 9.07675 11.2051 8.98048 11.2759C9.06387 11.2894 9.7609 11.0544 10.3823 10.922C11.0098 10.7803 11.5632 10.7072 11.6136 10.6909ZM20.6093 19.2387C20.6093 19.2393 20.6092 19.2398 20.6092 19.2403C20.6684 18.6895 20.7785 19.0375 20.7836 19.0117C21.0247 17.8432 20.7275 18.1407 20.7031 17.9534C20.6532 17.5503 20.9937 17.6378 20.893 16.9541C21.0355 18.0818 21.0091 17.0612 21.1344 17.0382C21.6417 16.9466 20.8109 18.4995 20.8945 19.0526C20.9053 19.1294 21.0923 18.574 21.1285 18.7718C21.2438 19.4119 20.3931 21.3463 20.6093 19.2387ZM29.9883 17.1527C30.1647 17.1683 30.7676 17.6116 31.1215 17.9302C31.1419 17.9425 31.1975 17.9878 31.2176 18.0005C31.4667 18.2316 31.5992 18.3996 31.3944 18.3058C31.375 18.2968 31.2708 18.2274 31.124 18.1255C31.1045 18.1131 31.0504 18.0691 31.0306 18.0572C30.5639 17.7476 29.6567 17.1223 29.9883 17.1527ZM39.8155 48.8423C39.6307 49.5234 40.4632 48.134 40.4677 47.7903C40.4802 47.6376 39.9021 48.5574 39.8155 48.8423ZM42.2553 39.5682C42.2574 38.9942 41.7478 38.3938 41.8011 39.0879C41.8072 39.1608 42.1785 39.629 42.2553 39.5682ZM19.2697 33.9167C18.8695 34.7149 19.2335 34.7411 19.3778 34.1285C19.432 33.9136 19.2829 33.8922 19.2697 33.9167ZM33.9704 56.0961C34.059 56.0569 34.8147 55.4475 34.7301 55.404C34.4436 55.5885 33.4639 56.3524 33.9704 56.0961ZM19.2964 33.633C19.2197 34.1509 19.6891 33.3686 19.6784 32.6748C19.581 32.9956 19.3027 33.579 19.2964 33.633ZM22.6044 11.8917C22.2586 11.8664 21.4755 11.4025 20.953 11.1808C20.9992 10.9861 22.2823 11.7452 22.6044 11.8917ZM41.8623 42.0984C41.7886 41.4924 41.5534 42.7562 41.7363 42.6621C41.7487 42.6462 41.8667 42.1216 41.8623 42.0984ZM19.6153 33.8705C19.965 33.7663 18.8672 33.5902 19.1662 33.7944C19.1832 33.8026 19.5955 33.8761 19.6153 33.8705ZM14.7366 33.7706C15.0157 33.8068 16.1723 33.7924 15.7212 33.6839C15.6484 33.6669 14.7653 33.6675 14.7366 33.7706ZM20.5696 17.913C20.3673 18.0603 20.4659 17.1461 20.5093 17.0148C20.5261 16.965 20.8313 17.7224 20.5696 17.913ZM18.6077 39.056C18.6328 39.3234 18.5812 40.0146 18.6805 40.1388C18.6649 39.8087 18.8104 38.9694 18.6077 39.056ZM41.4374 45.0012C41.7729 44.4399 41.8927 43.4733 41.5854 43.672C41.4298 44.7382 41.8734 43.559 41.4374 45.0012ZM20.2098 30.708C20.0145 31.0527 20.1335 31.4321 20.1624 31.3978C20.4394 31.0733 20.4793 30.4148 20.2098 30.708ZM19.867 53.5446C19.8241 53.5833 20.0867 54.0983 20.4488 54.5695C20.8037 55.0427 21.242 55.4412 21.1433 55.2865C21.11 55.2357 20.724 54.7858 20.4256 54.3447C20.1263 53.9137 19.8976 53.5043 19.867 53.5446ZM7.24817 11.4763C6.4277 11.8324 8.73176 10.378 9.36578 10.3893C9.54247 10.4231 9.07473 10.592 8.51263 10.8419C7.95245 11.0825 7.29851 11.4484 7.24817 11.4763ZM26.1725 34.078C26.1797 34.105 26.1191 34.0944 25.9539 34.0118C25.7959 33.9291 25.5365 33.7924 25.1071 33.4299C24.6957 33.0664 23.9549 32.3782 23.4271 31.0101C22.875 29.6388 23.0117 27.9588 23.2883 27.149C23.8742 25.4949 24.1605 25.4944 24.2429 25.353C24.2902 25.3122 24.3099 25.3108 24.3051 25.3422C24.2968 25.3805 24.273 25.4281 24.1274 25.6763C24.0584 25.8159 23.8674 26.0314 23.5519 26.8569C23.2284 27.5662 22.9167 29.7662 23.7674 31.4135C24.5524 32.9832 25.3272 33.4316 25.6588 33.7132C26.014 33.9731 26.1676 34.0564 26.1725 34.078ZM18.1391 34.1848C18.8821 33.9901 15.7727 33.827 16.5892 34.0812C16.65 34.0974 18.0746 34.199 18.1391 34.1848ZM12.8606 34.0532C13.0009 34.0751 12.9786 34.6432 12.2384 34.4083C12.1427 34.378 12.6041 34.241 12.5214 34.2047C12.5107 34.1985 12.3589 34.1849 12.1331 34.1644C11.874 34.1394 11.6151 34.1264 10.9881 34.0391C10.6437 33.9802 10.3493 33.9214 10.3144 33.9208C10.2224 33.9205 10.2982 34.1159 10.2034 34.1203C10.0993 34.1316 8.99688 33.7576 8.3756 33.5668C7.20624 33.2153 7.01369 33.2596 6.91475 33.2303C6.62592 33.1183 6.1802 32.82 5.61089 32.5287C5.00963 32.225 4.32547 31.8108 3.81057 31.4588C1.85045 30.0483 1.32666 28.5669 0.99898 27.7197C0.694114 26.8283 0.613451 26.2422 0.547063 25.7432C0.43354 24.7641 0.450752 24.1336 0.469866 23.5617C0.520526 22.445 0.646629 21.662 0.807747 21.0817C0.819596 21.0102 0.832218 20.9404 0.845527 20.8722C0.83545 20.9421 0.826189 21.0122 0.817751 21.0825C0.64878 22.466 0.456356 23.3271 0.910641 26.3713C0.73886 25.9477 0.662823 26.8832 1.78078 28.9266C2.31947 29.9314 3.59616 31.02 3.77585 31.1165C3.86908 31.1802 3.64134 31.0595 3.14288 30.6304C2.6477 30.2091 1.95389 29.412 1.49803 28.5575C1.74911 28.9308 2.00992 29.9283 3.90156 31.327C5.05825 32.2863 9.11331 33.8309 11.0034 33.9218C11.8962 34.025 12.1053 34.0068 12.392 34.0251C12.6363 34.0357 12.7978 34.0436 12.8588 34.0532C12.8594 34.0532 12.86 34.0532 12.8606 34.0532ZM42.5015 37.4124C42.6807 37.7305 42.7009 36.118 42.4878 35.9973C42.4457 36.1854 42.4809 37.3644 42.5015 37.4124ZM41.8619 46.7732C41.8236 46.9863 42.0447 47.2495 41.6956 48.1164C41.6292 48.2767 41.5417 48.4545 41.4261 48.6499C41.4256 48.651 41.4251 48.6522 41.4246 48.6534C41.2146 49.0037 41.3118 48.5443 41.2524 48.5999C41.2333 48.6287 40.5549 49.6648 40.9477 48.7266C41.4654 47.3663 41.297 48.501 41.5238 48.0509C41.542 48.0129 41.5625 47.9643 41.5855 47.9029C41.6514 47.7803 41.9153 46.2177 41.8301 46.3104C41.8251 46.3138 41.743 46.766 41.7013 46.8352C41.5503 47.0925 41.4794 46.9223 41.4622 46.9598C41.4416 47.0052 41.3474 47.4107 41.18 47.92C40.9373 48.6839 40.5283 49.5782 40.3348 49.7133C40.282 49.7499 40.7052 48.8653 41.0421 47.8675C41.3926 46.8524 41.5768 45.9541 41.61 45.888C41.6497 45.8041 41.9563 45.9188 42.0098 45.8333C42.0523 45.7729 42.2146 44.3622 42.2593 44.2075C42.276 44.1595 42.2913 44.1232 42.3034 44.0968C42.1775 44.2736 42.3555 43.11 42.4574 43.1663C42.5022 43.1876 42.3634 43.985 42.3477 44.0164C42.3424 44.0287 42.3362 44.0391 42.3314 44.049C42.4048 43.9734 42.3363 44.6246 42.2348 45.277C42.139 45.919 42.0022 46.5726 42.1833 46.2495C42.0258 47.208 41.9683 46.039 41.8619 46.7732ZM40.0492 51.2548C40.0728 51.1527 40.0956 51.0503 40.1178 50.9476C39.3138 52.4418 38.0388 53.7845 36.725 55.049C36.3853 55.3715 36.9238 55.1536 36.4314 55.5326C36.034 55.8358 35.4804 56.0406 35.661 55.8334C35.7096 55.7845 36.5471 55.2154 36.8865 54.8519C37.8864 53.7808 37.4774 53.9132 37.5375 53.8513C37.5976 53.783 38.2956 53.1769 38.6002 52.7681C39.3601 51.7339 39.6194 51.2266 40.6143 49.6501C40.2153 50.654 40.7263 50.2771 40.0492 51.2548ZM23.9143 34.7131C23.8693 34.8227 23.2306 34.6815 22.995 34.6853C23.0376 34.5739 23.6798 34.7133 23.9143 34.7131ZM42.3751 25.3029C42.446 25.0244 41.922 25.7427 41.4177 26.2991C40.9164 26.8654 40.4665 27.3121 40.8537 27.0437C41.0288 26.9509 42.1071 25.7628 42.3751 25.3029ZM36.5424 15.5089C36.7459 15.3825 35.8149 15.5705 35.8643 15.7063C35.885 15.7471 36.5107 15.5264 36.5424 15.5089ZM17.6522 48.5521C17.6377 48.4848 17.6346 47.6689 17.6463 47.6506C17.7357 47.3907 17.7705 47.8872 17.7824 48.3519C17.794 48.806 17.7735 49.2245 17.6522 48.5521ZM46.8284 12.9104C46.4009 12.9888 46.6687 13.0051 47.0779 13.0007C48.2034 12.934 49.9537 13.2149 48.8408 12.9665C48.7756 12.9448 47.6948 12.8521 47.0726 12.8965C46.9396 12.9019 46.843 12.9078 46.8284 12.9104ZM53.9656 14.7604C53.7494 14.6005 52.2744 13.766 52.1814 13.8156C52.1466 13.8496 52.6109 14.0935 53.0343 14.3301C53.4643 14.5663 53.8565 14.7843 53.9656 14.7604ZM19.7153 30.1453C19.4441 30.1698 20.5247 28.6307 20.8738 28.1613C21.1246 28.1469 19.9823 29.5291 19.7153 30.1453ZM17.5046 39.8189C17.4958 39.5333 17.4883 39.2823 17.4822 39.0459C17.4554 36.9274 17.7247 35.8914 17.7518 36.0096C17.8 36.1049 17.6699 37.2939 17.6477 39.0458C17.6415 39.3543 17.6276 39.6897 17.6037 40.063C17.4698 40.0662 17.5125 40.0768 17.5046 39.8189ZM18.8758 31.6274C18.8869 31.9416 18.5493 32.7428 18.3841 33.2912C18.3125 33.1721 18.7205 32.0372 18.8758 31.6274ZM44.4186 20.7023C44.4591 21.0712 44.2609 22.0806 43.9318 22.8801C43.6121 23.6849 43.2276 24.2549 43.3285 23.9766C43.3525 23.9137 43.7562 23.0619 44.0054 22.2118C44.2672 21.3643 44.3882 20.564 44.4186 20.7023ZM17.4404 48.0365C17.233 48.1613 17.2681 46.4377 17.3231 46.3484C17.4979 45.8437 17.3684 47.8341 17.4404 48.0365ZM25.9394 35.0201C26.5001 35.3837 26.9098 35.4932 27.0021 35.5137C27.1106 35.5351 27.0275 35.496 26.9393 35.4849C26.9848 35.4215 27.1003 35.4199 27.0645 35.4119C27.0243 35.3886 26.8082 35.4247 25.9394 35.0201ZM22.3625 26.0096C22.3782 25.9851 22.618 25.7314 22.6902 25.6596C22.6741 25.6809 22.6672 25.6922 22.6669 25.6951C22.6761 25.7677 22.7043 25.7796 22.7658 25.7265C22.6591 25.8804 22.1643 26.3567 22.3625 26.0096ZM19.0525 19.9436C19.048 19.9227 19.0774 19.4472 19.0843 19.4307C19.254 19.0127 19.1653 20.4382 19.0525 19.9436Z" fill="#F2FF43"/>
</svg>
