<svg width="84" height="93" viewBox="0 0 84 93" fill="none" xmlns="http://www.w3.org/2000/svg">
<path d="M41.9982 15.4696C41.9761 15.2767 42.0338 14.5846 42.0423 14.3856C42.1796 14.5484 42.114 15.4598 42.055 15.6189C42.0455 15.6451 42.0355 15.6474 42.0257 15.6191C42.016 15.5956 42.0064 15.5463 41.9982 15.4696ZM53.2329 39.9798C53.6025 39.5124 54.0958 38.914 54.6574 37.9156C53.576 39.5917 52.5634 40.3835 52.3322 40.647C52.069 40.9096 51.8456 41.1136 51.8122 41.1418C51.8076 41.1447 51.8184 41.1335 51.8735 41.0748C51.9388 40.9991 52.0111 40.9476 52.3471 40.508C52.447 40.3718 52.5379 40.2495 52.7107 39.9672C52.889 39.6461 53.0815 39.4024 53.4093 38.4022C53.5656 37.8145 54.4944 34.9838 52.1528 31.9428C49.8325 29.3717 48.1614 29.5718 47.6341 29.4017C47.2749 29.354 46.9706 29.3423 46.7491 29.3415C46.569 29.3411 46.4148 29.3474 46.2792 29.3564C46.1437 29.3654 46.0267 29.3772 45.9231 29.3897C45.8395 29.3998 45.77 29.4098 45.704 29.4201C45.4322 29.4636 45.3057 29.4956 45.1968 29.5219C44.9133 29.5982 45.1023 29.5855 45.3152 29.5767C45.4173 29.5737 45.5023 29.5766 45.398 29.6124C45.3019 29.6457 45.0439 29.7195 44.9278 29.7584C44.7411 29.8211 44.8152 29.749 44.8042 29.6973C44.8144 29.6388 44.8366 29.5729 45.0002 29.4958C45.0343 29.4798 45.0772 29.4616 45.1394 29.4364C45.9024 29.124 48.0077 28.3976 48.7791 28.0947C51.9357 26.8458 55.1859 25.5189 58.7699 24.6036C55.194 25.8025 58.8527 24.8572 59.8928 24.5413C60.1329 24.4914 59.9392 24.0391 63.8568 23.3811C66.3641 23.0545 64.1313 23.8328 68.2571 23.132C65.0103 23.1019 68.1939 22.7255 70.6709 22.6312C70.8999 22.6202 72.0208 22.596 73.2024 22.609C74.1568 22.6218 75.3917 22.6838 76.9603 23.2453C78.5217 23.7654 80.2509 25.1117 81.0565 26.2297C81.6348 26.9675 82.1538 27.871 82.481 28.6179C82.8558 29.4358 83.153 30.3887 83.2639 31.2602C83.3913 32.3401 83.3134 33.1655 83.1368 34.5456C82.6422 37.7555 81.4174 39.7938 80.2656 41.5362C79.0847 43.2692 77.6534 44.8195 76.0922 46.1221C77.5618 44.1935 74.548 47.1714 74.3508 47.1896C73.5333 47.6754 76.8677 44.9849 75.4924 45.9867C73.6683 47.5109 71.7114 48.6969 69.7694 49.6434C71.4064 48.9309 67.807 51.0304 67.0639 51.0737C67.4147 51.4143 61.2018 52.9047 58.4744 53.2704C57.3986 53.4705 56.7776 53.5107 56.4586 53.5731C56.2774 53.6067 56.791 53.6164 56.6543 53.6758C56.5413 53.7272 55.6031 53.8918 53.3888 53.8657C52.9166 53.8589 53.0955 53.7258 52.8523 53.7392C52.7099 53.7482 51.8282 54.1627 51.0188 53.929C50.8699 53.8865 51.2728 53.7979 51.1891 53.7325C51.149 53.6999 50.9751 53.6719 50.5834 53.6615C50.3888 53.6565 50.1395 53.656 49.8741 53.666C49.7443 53.671 49.6083 53.6792 49.5115 53.6897C49.4261 53.6966 49.3238 53.7241 49.5651 53.6901C49.4153 53.7618 49.4484 53.7916 49.445 53.8248C49.4575 53.8543 49.4489 53.8853 49.6157 53.8757C49.9672 53.8052 50.4135 53.8049 51.5122 53.145C52.5241 52.599 53.7994 50.8639 54.003 49.6849C54.2607 48.5515 54.1202 48.0531 54.1003 47.8742C54.062 47.6894 54.0627 47.7592 54.1055 47.8913C54.2895 48.5116 54.9561 49.8835 55.1468 50.3083C55.072 50.0543 55.0097 49.8193 54.9474 49.5787C55.3777 50.7104 55.6489 50.8688 55.7853 51.1279C56.3456 52.1708 57.1205 53.7356 57.7609 54.7715C58.5086 55.9845 58.7405 55.8495 59.5256 57.3796C59.368 56.9968 59.2113 56.6186 59.054 56.2413C59.6442 57.2578 60.2394 58.2978 60.8324 59.3827C59.1279 57.0959 61.1188 59.9081 61.2381 60.1326C61.4268 60.4517 61.0468 60.0528 61.358 60.5885C61.3907 60.6453 61.4665 60.4905 61.9357 61.3493C62.9086 63.1763 62.6032 62.9863 62.9885 63.7984C63.0212 63.8817 63.0213 63.5284 63.6889 65.0277C65.6998 70.2882 63.6224 64.9389 63.5008 64.8619C63.3668 64.6719 63.6415 66.3212 62.0166 62.4846C62.5732 63.7389 62.4236 63.9908 62.4844 64.1296C62.5511 64.2337 63.5536 66.5928 63.5995 66.7862C64.1099 68.0638 63.8721 66.8686 63.9831 67.1138C64.0346 67.2338 64.4218 68.5705 64.7244 70.0355C64.868 70.6751 65.0269 71.2568 65.232 71.5021C65.04 72.6395 64.8988 71.6262 64.5995 70.0567C64.4668 69.3453 64.2739 68.5871 64.0534 67.9012C63.9128 67.6437 64.2692 68.9915 64.413 70.0885C64.461 70.4526 64.4946 70.7344 64.5012 70.7771C64.9368 74.2052 65.0328 72.2762 65.3416 73.0125C65.4979 73.4081 65.3394 74.8667 65.5728 73.5141C65.7587 76.7404 65.4784 74.7886 65.4681 74.9976C65.4424 75.3143 65.5313 76.444 65.5117 76.5902C65.4892 76.7992 65.3973 76.0699 65.3392 76.8927C65.3306 77.0244 65.4669 78.3747 65.6166 76.6521C65.5067 78.9546 65.6238 78.7961 65.2319 79.5483C65.628 81.2553 64.7135 80.6756 64.5769 81.3002C64.156 82.9863 64.6928 82.6168 64.7045 82.708C64.6996 82.9354 64.5639 83.6041 64.2602 84.5359C63.8946 85.5125 63.6947 86.4795 62.2683 88.4639C59.7954 91.4282 57.5735 91.5589 56.8893 91.8299C57.2001 91.4728 59.5425 91.4722 62.1664 88.3857C63.6881 86.2903 63.8477 85.4264 64.0421 84.9226C64.3872 83.5064 64.084 84.4254 63.5701 85.5388C63.1283 86.5905 61.792 88.4786 62.5326 86.8436C62.3754 87.1981 62.1742 87.6096 61.8263 88.125C60.7045 89.7358 59.1556 90.6749 58.0219 91.166C57.2259 91.3711 56.9776 91.3438 56.8294 91.3339C56.6875 91.3166 56.6783 91.2797 56.5401 91.2821C56.3158 91.2622 55.2525 91.5472 53.1304 91.5142C52.7939 91.6153 53.4871 91.6583 54.3454 91.618C55.1797 91.5914 56.293 91.3876 55.7655 91.561C55.4499 91.6666 54.4994 91.7822 53.7826 91.7972C53.0528 91.8199 52.4831 91.7918 52.4557 91.8204C52.4318 91.8535 52.9309 91.8897 53.4609 91.9028C53.9832 91.919 54.5523 91.9017 54.3447 91.963C52.9115 92.3784 46.8345 91.1978 51.6765 91.7306C50.5021 91.6079 49.9405 91.2099 49.2138 91.0536C48.7627 90.9709 48.2901 90.8716 47.7631 90.7365C46.9307 90.5196 48.6774 91.2601 49.1521 91.4426C49.1981 91.4937 49.2032 91.5367 49.133 91.563C48.8867 91.565 48.2265 91.5532 46.9207 91.0887C45.6483 90.6519 43.6782 89.4641 42.289 87.6772C42.3051 87.5067 42.9845 88.4172 44.145 89.3592C45.2752 90.3237 46.9142 91.0303 46.9885 91.0346C47.2092 91.1032 46.3156 90.197 46.175 90.0753C45.9917 89.9747 44.0628 88.9095 42.7962 87.3188C41.4949 85.7804 40.7129 84.0265 40.3868 83.3762C39.5965 81.6403 39.6453 81.1416 39.5188 80.5562C39.4372 80.0198 39.4179 79.667 39.4235 79.4301C39.1191 79.8433 38.9731 74.6676 38.9039 74.2405C38.8736 74.1017 38.7218 74.6322 38.6966 74.4836C38.5413 73.55 38.7654 71.0958 38.7329 69.9877C38.6957 68.741 38.5498 68.9053 38.5475 68.8353C38.5349 68.2923 38.6543 68.7223 38.6411 68.3895C38.6253 67.8788 38.4896 64.4576 38.4533 64.2934C38.4439 64.2437 38.3011 64.8066 38.2284 64.0699C38.2174 63.966 38.3593 63.9912 38.2878 62.8021C38.2883 62.8039 38.2871 62.8396 38.3023 62.9624C38.3082 63.0119 38.3267 63.1372 38.3663 63.3039C38.3866 63.3889 38.4129 63.4887 38.4501 63.6072C38.4688 63.6669 38.4894 63.7287 38.5154 63.8009C38.5488 63.8926 38.5883 63.993 38.6364 64.103C38.8001 64.4755 39.0301 64.8951 39.3893 65.3504C39.8228 65.9025 40.4381 66.4475 41.1054 66.8308C42.4897 67.6419 43.8972 67.7063 44.5733 67.663C45.8217 67.5567 45.9712 67.4108 45.9066 67.4718C45.7785 67.5028 45.4205 67.7416 44.07 67.7713C42.6409 67.8991 40.0348 66.6983 39.1542 65.3486C38.7529 64.837 38.5122 64.3726 38.3565 64.0173C38.2103 63.6771 38.1609 63.5226 38.1054 63.353C38.0046 63.0225 37.9849 62.9581 37.9524 62.8963C37.8976 62.8116 37.8473 62.7989 37.803 62.9011C37.9595 63.0444 37.7871 63.8244 39.2406 65.6885C40.0976 66.7306 41.5771 67.5897 42.8753 67.8328C43.5103 67.9652 44.0714 67.9846 44.515 67.9645C44.9008 67.947 45.215 67.9013 45.4781 67.851C46.5389 67.6209 46.7841 67.4575 47.0631 67.3503C47.319 67.2373 47.5123 67.1258 47.6236 67.0387C47.6658 67.0065 47.7664 66.9083 47.8103 66.8371C47.8474 66.7726 47.8358 66.7348 47.7646 66.762C47.6205 66.8157 47.2893 67.0972 46.9576 67.5267C47.1855 67.2082 47.3948 66.9283 47.5373 66.7428C47.6108 66.6471 47.6601 66.5846 47.6534 66.5769C47.639 66.571 47.585 66.6318 47.2242 66.8557C47.5782 66.6115 47.6422 66.5171 47.6144 66.5456C47.5859 66.5693 47.4602 66.7021 47.3304 66.8534C47.0495 67.1776 46.71 67.6105 46.483 67.8624C46.2557 68.1176 46.2699 67.7471 45.8187 68.3537C45.7154 68.502 45.7815 69.2446 46.7354 67.6298C46.9708 67.6265 46.3468 68.2303 46.1176 68.6266C46.0807 68.6896 46.1853 69.061 45.6825 69.4212C45.553 69.5242 45.7735 67.6842 43.918 71.3426C43.857 71.4622 44.2187 71.1553 44.1614 71.2738C44.1225 71.3546 43.4673 72.1787 43.4084 72.2858C43.3514 72.393 43.7534 72.0498 43.6885 72.1797C43.3526 72.8519 42.3919 73.3395 43.3176 72.1368C42.9669 72.5157 42.6239 72.8821 42.2668 73.2638C42.8879 73.04 41.8727 73.973 41.4436 74.5567C38.6366 78.3116 40.74 75.9753 40.3429 76.6903C39.6651 77.85 39.832 76.6647 38.6991 78.3213C38.5654 78.476 40.4585 76.7783 37.1 80.3315C37.5964 79.7823 38.0658 79.2366 38.5163 78.6946C38.003 78.768 36.8049 80.6553 36.6701 80.7848C35.2632 82.2594 36.2742 81.1936 33.9811 83.463C33.7875 83.6447 33.2868 83.9623 32.8141 84.3372C32.7672 84.3744 32.7207 84.4121 32.6747 84.4503C31.7646 85.1828 32.1301 84.9754 32.8948 84.4462C33.9948 83.6944 35.5029 82.3038 35.6181 82.3009C35.6616 82.3022 34.5157 83.4638 32.9985 84.5861C31.6113 85.6276 30.0925 86.4043 29.9854 86.4403C29.0199 86.8408 32.7533 84.7469 31.9396 84.9914C31.8083 85.0422 29.6261 86.5487 26.9899 87.4813C24.366 88.4676 21.4849 88.8082 20.5537 88.8315C18.367 88.9004 17.4746 88.323 17.4367 88.8756C16.8645 88.3269 16.3472 88.6533 16.0796 88.6292C14.9677 88.5246 14.2631 88.4118 13.7843 88.3428C11.1088 88.009 7.99999 86.2482 6.45811 82.7415C5.95734 81.6046 5.95967 80.7818 5.85582 80.4613C5.80449 80.2824 5.68648 80.6372 5.4786 79.775C4.9714 78.2202 5.53789 73.0724 5.74176 72.8415C5.87127 72.4851 5.55007 74.8909 5.7578 74.4803C5.93479 72.6914 6.16159 71.1373 6.4978 69.5543C6.64001 68.9014 6.67792 69.2603 6.73933 68.9797C6.75852 68.8527 7.17795 66.6303 7.12163 66.7191C6.90089 66.8158 5.64203 73.9759 5.80429 72.0691C5.82088 71.6792 6.29981 70.4288 5.96221 70.5805C6.72522 66.7027 7.81833 63.1165 8.88313 59.7721C10.5569 54.9613 13.4477 52.9886 15.8169 51.2813C13.6719 53.0524 10.7457 54.9603 9.03668 59.8187C8.65744 60.9961 8.25484 62.2588 7.91213 63.5047C7.77845 63.9736 7.30851 65.6174 7.51397 65.4548C8.0003 63.682 8.58126 61.6509 9.13412 59.8483C10.0166 57.0409 11.534 55.3074 12.7777 54.0877C12.8764 53.9932 12.6221 54.4465 12.9981 54.1005C13.6929 53.3938 15.7778 51.5226 16.1872 51.3609C16.2573 51.3183 15.103 52.3648 15.5555 52.1856C16.6994 51.7361 16.5756 51.0359 17.4358 50.521C18.1043 50.0243 22.6394 48.2286 23.7041 47.7172C24.8212 47.0428 20.3473 48.904 20.6145 48.6564C21.9463 47.9578 23.3324 47.4121 24.7411 46.9655C26.8139 46.3081 28.7773 46.0434 30.592 45.877C30.6503 45.8721 30.1315 45.7746 30.8692 45.6963C32.1545 45.5755 32.4836 45.7804 33.0926 45.803C33.7547 45.8115 36.0297 45.8949 36.3063 46.0056C36.3441 46.0176 35.8844 46.1772 35.8133 46.1785C34.8363 46.1933 34.4925 45.9387 34.4 45.9307C34.0641 45.9105 33.7204 46.0016 33.4139 45.9949C32.9007 45.9852 32.6129 45.8971 31.9235 45.9154C31.4478 45.9312 31.9163 46.0807 31.4554 46.0967C31.3 46.0873 29.4028 45.8664 29.2718 46.3036C29.2601 46.342 30.3244 46.2171 31.8545 46.1836C32.6211 46.1663 33.5058 46.1727 34.4357 46.2176C34.9008 46.2399 35.3821 46.2717 35.8633 46.3124C36.0984 46.3323 36.3452 46.3554 36.5737 46.3784C36.6847 46.3896 36.7979 46.4014 36.8942 46.4115C36.9379 46.4161 36.9834 46.4208 36.9983 46.4227C37.0054 46.4236 37.0071 46.424 36.9817 46.4226C36.9616 46.4226 36.9079 46.4146 36.6511 46.4134C36.8465 46.4157 36.9616 46.4173 37.095 46.417C37.143 46.4174 37.202 46.4152 37.1269 46.4202C37.1043 46.4219 37.0694 46.4244 37.0119 46.4298C36.983 46.4325 36.9483 46.436 36.9049 46.441C36.9016 46.4423 36.7237 46.4577 36.4359 46.5148C36.2831 46.5462 36.0886 46.5868 35.7706 46.6884C35.4469 46.8041 35.0116 46.9204 34.1896 47.4692C33.7826 47.7557 33.2493 48.1705 32.6857 48.9528C32.233 49.4599 31.2625 51.6176 31.6267 53.4038C31.9208 55.2214 32.8129 56.2634 33.3674 56.8231C33.9555 57.3942 34.3709 57.6309 34.6829 57.811C35.2998 58.1448 35.5771 58.2162 35.7956 58.2912C35.9015 58.3246 35.9841 58.3476 36.0534 58.366C36.1273 58.3854 36.1118 58.3811 36.1392 58.388C36.2153 58.4067 36.2727 58.4193 36.3195 58.4292C36.6615 58.4951 36.5403 58.4658 36.5301 58.4663C36.4836 58.4593 36.431 58.4522 36.3623 58.4436C36.2071 58.4244 36.0749 58.4091 35.8989 58.3898C35.2412 58.3179 34.5888 58.2541 33.9935 58.1968C32.8194 58.0845 31.9129 58.0046 31.6316 58.0005C32.6622 58.1515 33.6933 58.2969 34.6931 58.4399C32.6587 58.1337 30.0668 58.1931 29.9376 57.7001C25.5919 57.1392 21.839 56.9737 16.3087 55.2316C11.8334 53.6025 8.18278 50.6068 5.44779 47.6706C4.43674 46.5264 5.17334 46.8914 3.56072 45.2039C3.87385 45.7065 4.20861 46.2333 4.56637 46.7715C4.3208 46.4715 3.81126 45.8582 3.27016 45.2034C1.7933 43.5871 0.842257 40.9089 0.738662 39.1092C0.586521 37.2706 0.793634 36.1422 0.808828 35.7396C0.818397 35.6297 0.657453 35.4025 0.721823 34.5406C0.835672 33.799 1.06303 32.8874 1.70343 31.8174C3.23288 29.4997 4.51174 29.1681 5.22721 28.8246C5.96047 28.5476 6.48897 28.4474 7.14006 28.3093C8.2538 28.0808 9.17161 27.9934 9.41895 27.9897C9.60368 27.9907 9.70905 28.1102 10.1118 28.1281C11.3912 28.2134 10.4036 27.8279 11.573 28.2964C11.2812 28.2923 11.0117 28.2942 10.6982 28.3015C12.2075 28.4016 13.8969 28.8343 11.9541 28.7098C11.6054 28.6969 11.9155 28.5991 11.6499 28.579C9.14876 28.3683 6.85488 28.8122 5.6055 29.451C5.01565 29.7362 4.74645 29.9404 4.8513 29.8856C4.94224 29.8446 5.38674 29.5933 5.93939 29.3805C8.45379 28.3799 11.4658 28.6866 13.113 28.8004C14.0167 29.0305 18.3529 29.8968 18.4555 30.0003C18.6345 30.1014 17.8865 30.052 18.7868 30.4213C19.0089 30.4553 24.4216 32.0691 22.4111 31.6795C22.0049 31.5872 19.4265 30.7487 18.7748 30.5945C20.1893 31.3501 23.7401 31.9382 24.1172 32.0996C25.6261 32.6862 21.0703 31.3998 24.4979 32.6333C27.1157 33.6193 24.7336 32.4788 25.7849 32.7472C26.3782 32.8849 29.2255 34.3247 29.2849 33.9665C30.3108 34.3554 29.6449 34.2859 29.7638 34.3508C29.8812 34.4072 31.914 35.1809 32.5394 35.5781C32.6146 35.6247 32.2823 35.6764 32.3579 35.7298C32.4348 35.782 33.0362 36.0648 33.5809 36.3353C33.6358 36.3608 33.7913 36.453 33.8443 36.4821C34.1724 36.6701 34.5365 36.858 34.5684 36.8675C34.6109 36.879 34.333 36.531 34.5003 36.5792C34.6512 36.6178 36.2841 37.5488 36.4404 37.5857C36.5687 37.5701 34.5151 36.5025 34.9592 36.5318C35.5639 36.9083 36.6295 37.4051 37.5663 37.86C37.9172 38.03 38.2372 38.1874 38.4712 38.2926C38.3585 38.2451 37.9797 38.0145 37.6045 37.7963C37.2732 37.6025 36.9559 37.4202 36.7937 37.3208C36.9064 37.2668 37.2866 37.4063 37.7068 37.6252C38.4135 37.9893 39.1538 38.568 38.5533 38.3237C39.1489 38.5851 38.8218 38.2896 39.1821 38.4054C39.282 38.4363 40.0058 38.9608 40.1564 39.0225C40.1871 39.0299 39.5164 38.4021 39.6939 38.4661C40.097 38.6051 41.956 40.1587 42.0403 40.2803C42.3927 40.6756 40.918 39.5454 40.6888 39.5193C40.6808 39.5273 41.768 40.7286 41.7584 40.7523C41.7033 40.9793 40.4377 39.7222 40.4621 39.9976C40.7911 40.3167 41.0995 40.6286 41.3968 40.9349C40.4654 40.3117 38.7205 38.8899 37.3672 38.1929C36.8667 37.9236 36.4895 37.7577 36.2626 37.7026C36.5994 37.8782 36.9521 38.0683 37.3154 38.2795C39.4697 39.5368 40.8148 40.91 40.536 41.1974C40.405 41.358 39.4933 40.7682 39.4866 40.8354C39.5087 41.0896 40.7607 41.8677 40.7867 41.9078C40.8123 41.9451 40.8203 41.9668 40.8131 41.9752C40.8131 41.9752 40.8131 41.9752 40.8131 41.9752C40.7563 42.0639 39.0926 40.7846 38.942 40.7511C38.7451 40.71 39.2736 41.6041 39.2118 41.6644C39.1902 41.6565 37.9045 40.7751 38.2346 41.2111C38.5839 41.6502 39.5657 42.4712 39.586 42.5111C39.7314 42.7344 37.9241 41.3632 37.8031 41.3647C37.7689 41.363 38.6511 42.2532 38.6392 42.3103C38.6369 42.3654 37.8492 41.8629 37.4564 41.7596C37.1705 41.6813 37.7646 42.2289 37.64 42.1578C37.5818 42.1052 36.1733 41.1109 35.7482 40.8993C35.692 40.8677 35.6547 40.848 35.6427 40.8435C35.5644 40.8144 35.6281 40.9012 35.6942 40.9894C35.7548 41.0698 35.8169 41.1512 35.7791 41.1462C35.7523 41.1427 35.701 41.1183 35.6377 41.084C35.4334 40.9726 35.1131 40.7681 35.1535 40.8334C35.1644 40.8513 35.3326 40.9945 35.5671 41.202C36.1917 41.7296 37.1494 42.7559 37.077 42.8165C36.9466 42.9396 34.9578 41.0013 36.5793 43.1131C36.5912 43.126 37.1093 43.4529 37.1183 43.4685C37.3168 43.8157 35.668 42.7904 37.5344 44.2354C33.9158 41.7697 36.9341 44.1252 36.2077 44.0027C35.9412 43.9377 34.5727 43.0871 34.5439 43.1137C34.5941 43.3363 35.0937 43.5013 35.1911 43.6686C35.2299 43.7312 34.5809 43.4228 34.2771 43.3584C34.1579 43.3315 34.0955 43.3383 34.1582 43.413C34.1682 43.425 34.1877 43.4419 34.2147 43.4628C34.5034 43.6672 35.5253 44.3512 35.5627 44.4051C35.9738 44.8501 35.3203 44.504 35.3795 44.6454C35.4173 44.7314 36.1311 45.2968 36.1448 45.3244C36.1601 45.3547 35.0627 44.76 34.8264 44.6972C34.6441 44.6356 35.1556 45.1124 35.0361 45.0576C34.3434 44.7066 33.1396 43.5596 34.1933 44.8309C34.255 44.9062 34.7385 45.2289 34.749 45.2477C34.953 45.5777 34.0771 44.9642 33.8501 44.9772C33.4728 44.9793 34.7763 45.6982 33.6634 45.1439C34.3644 45.7582 34.7533 46.052 35.736 46.8173C34.3738 45.7345 33.5277 45.4246 33.2412 45.4198C32.9876 45.4592 33.3594 45.7386 34.7054 46.796C33.8364 46.1029 33.775 46.4652 33.5265 46.2924C33.446 46.2372 33.1227 45.9187 32.8312 45.7754C32.5773 45.6491 32.385 45.6597 32.5117 46.1015C32.5171 46.1217 32.5467 46.1495 32.5885 46.1811C32.7967 46.334 33.2637 46.5823 33.0051 46.5863C32.8126 46.4538 32.6544 46.3547 32.5296 46.2797C31.968 45.9494 32.204 46.1331 32.4894 46.3468C32.6942 46.5015 32.9021 46.6692 32.8983 46.6772C32.8489 46.7405 32.6712 46.6829 32.3734 46.5407C31.7671 46.2371 30.4768 45.5666 28.9446 44.6238L29.2344 44.7853C28.1517 44.1935 27.0021 43.6439 26.601 43.4886C25.4393 43.039 24.29 42.9263 24.0327 42.8249C23.2014 42.4988 23.95 42.6189 23.7857 42.4908C23.6186 42.3518 21.1156 41.7553 21.0001 41.7069C20.5576 41.4798 21.0928 41.4643 21.0478 41.4384C20.5085 41.1051 17.2118 40.2058 16.3265 39.9443C16.3235 40.0658 18.131 40.5989 16.9436 40.4628C15.5709 40.317 15.6451 39.7856 15.6135 39.7496C13.9985 39.3353 12.3654 39.0033 11.0248 38.8932C10.3725 38.8331 9.74238 38.8659 9.64358 38.8961C9.60652 38.8919 9.74188 38.9286 10.2665 38.5858C10.7853 38.2924 11.5453 37.2054 11.6225 36.4472C11.4731 37.2716 11.4506 37.8293 11.4813 38.046C11.5243 38.2773 11.4751 38.0519 11.4247 38.0192C12.1641 38.8589 12.8365 39.6189 13.5118 40.3193C13.6095 40.1575 12.4562 38.9565 11.5249 37.9309C11.5548 37.988 11.5802 38.0797 11.5903 38.0715C11.6652 38.0709 11.6725 37.9537 11.6195 37.8475C13.0594 39.4538 15.2521 41.6601 15.6169 41.9978C15.2305 41.5881 14.8532 41.1564 14.4771 40.7002C15.4159 41.1797 16.7172 42.8527 17.8888 43.3616C18.259 43.5306 17.6643 43.0166 17.685 43.0144C18.1347 43.1544 18.7045 43.5843 18.1522 43.4709C19.187 43.857 18.9585 43.9349 19.7058 44.2813C19.7436 44.296 19.4761 44.0452 20.0874 44.2292C20.1316 44.2419 20.2042 44.266 20.2972 44.2964C20.548 44.3921 21.953 44.7162 22.2034 44.6573C22.3069 44.6313 21.4876 43.9123 21.2877 44.3209C20.5046 44.016 20.4769 44.0104 20.4186 44.0612C20.3769 44.1123 20.4101 44.2248 20.3222 44.2279C20.2862 44.2235 20.2362 44.2097 20.167 44.1822C20.0751 44.1241 20.3705 44.0608 18.8094 43.4168C19.1231 43.2662 19.8356 43.6513 20.4371 43.9129C20.6325 44.0154 21.0064 44.1559 21.134 44.1676C21.3137 44.1853 21.2709 44.1377 21.106 44.0602C20.9352 43.9815 20.6405 43.8649 20.4817 43.7907C19.876 43.5463 19.1412 43.2142 18.8278 43.2419C19.2073 43.0397 18.6749 43.1205 18.131 42.7668C17.54 42.3713 17.8597 42.4494 17.5391 42.231C16.6689 41.5967 16.8722 42.061 16.2954 41.3017C16.5554 42.4406 14.9892 40.312 14.5665 39.5545C15.5114 40.4773 16.4369 41.2589 17.3658 41.8925C17.3354 41.825 17.3056 41.7574 17.2762 41.6897C17.5099 41.871 17.7455 42.0437 17.9806 42.2058C17.9229 42.2096 17.865 42.2131 17.807 42.2162C19.162 42.8336 19.3404 43.1322 19.4459 43.2018C19.7885 43.3761 20.1494 43.5363 20.5232 43.6769C21.2204 43.9514 23.0408 44.325 24.5126 44.5569C24.826 44.6021 24.6154 44.3613 26.9125 44.8579C27.6509 45.0124 26.9214 45.097 27.7756 45.1794C28.9025 44.8334 28.8373 45.2102 29.1576 45.249C30.0762 45.3557 30.6537 45.2964 30.7422 45.305C31.8921 45.4114 33.5655 45.5969 34.8666 45.7017C34.8914 45.7022 34.2243 45.49 35.0677 45.614C35.1899 45.6325 35.7198 45.8015 36.5085 45.996C36.9306 46.097 37.3214 46.1913 37.941 46.3091C38.0249 46.3248 38.1307 46.3436 38.2327 46.3629C38.2863 46.373 38.3343 46.3823 38.4021 46.3952C38.5001 46.4129 38.6073 46.4326 38.7585 46.4648C38.8348 46.4811 38.9225 46.5006 39.0367 46.5292C39.0653 46.5364 39.0956 46.5442 39.1282 46.5528C39.166 46.5626 39.3184 46.6029 39.4605 46.6482C39.7881 46.7858 40.1319 46.7587 41.3806 47.648C41.9493 48.1335 43.1966 49.0397 43.6781 51.4806C43.8922 52.6588 43.6756 54.0392 43.2142 55.0129C42.8278 55.8393 42.4643 56.2757 42.0971 56.6756C40.6167 58.1062 39.9646 58.1005 39.5206 58.3C39.0852 58.4371 38.8552 58.4746 38.6679 58.5088C38.4988 58.5383 38.3135 58.5597 38.2954 58.5612C37.9727 58.5933 37.8097 58.5944 37.6476 58.5986C37.4622 58.5995 37.2385 58.5978 37.1026 58.5954C36.9627 58.5931 36.8136 58.5915 36.6511 58.5911C36.1644 58.5841 36.1625 58.5711 36.0454 58.5652C35.9698 58.5595 35.9061 58.5544 35.8564 58.5507C35.7556 58.5432 35.6763 58.5382 35.5919 58.5341C35.4392 58.5271 35.2899 58.5251 35.1514 58.5296C35.2895 58.5524 35.4372 58.5772 35.5879 58.6029C35.671 58.6165 35.7496 58.6298 35.8494 58.6448C35.8995 58.6523 35.962 58.6609 36.0385 58.67C36.156 58.6792 36.158 58.6955 36.6511 58.7054C36.8188 58.7145 36.9725 58.723 37.1177 58.7306C37.2822 58.7377 37.4642 58.7449 37.7261 58.7425C37.5572 58.7444 37.4426 58.7439 37.2285 58.7455C37.0513 58.7462 36.8909 58.7471 36.6511 58.7486C36.3675 58.7478 36.2265 58.7354 36.1702 58.7327C36.0994 58.7283 36.0297 58.7231 35.9937 58.7204C35.9102 58.7142 35.841 58.7086 35.7837 58.7043C35.6625 58.6951 35.5646 58.6882 35.4614 58.6818C35.2589 58.6692 35.0599 58.6602 34.857 58.6548C34.4565 58.6441 34.0538 58.6498 33.7211 58.6694C33.0528 58.7093 32.6598 58.7939 33.0361 58.8544C33.5959 58.9373 35.0555 58.6062 35.2022 59.0203C34.2856 58.8004 30.4196 58.8805 28.8719 59.5292C27.86 59.8679 27.1198 60.1763 26.9496 60.2161C26.8704 60.234 27.2753 59.9315 27.1678 59.9579C27.0745 59.968 25.5505 60.6744 25.347 60.7382C25.2155 60.769 25.8401 60.3795 25.7691 60.3647C25.6874 60.3425 23.8523 61.2475 23.8729 61.452C24.2305 61.1457 25.5129 60.5485 24.9212 61.0072C24.845 61.0644 24.3738 61.2044 24.2888 61.2792C23.4732 61.9486 26.1827 60.4143 26.7145 60.2533C24.9153 61.1581 21.9511 62.813 21.6606 63.6203C21.5307 63.6879 21.5314 63.5938 21.576 63.4597C21.6231 63.3246 21.7016 63.1681 21.4927 63.3274C21.126 63.6163 21.255 63.5549 21.308 63.6001C21.3786 63.6289 21.5118 63.6195 21.5163 63.6288C21.5289 63.7296 21.3768 63.7053 21.3307 63.5486C21.0591 64.1476 20.8768 64.6546 21.1287 64.7251C20.7643 65.6581 20.7863 65.329 20.472 66.6769C20.5578 66.5142 20.6437 66.3526 20.7317 66.1851C20.5881 67.7491 19.0559 70.5954 19.0616 70.3556C19.0417 69.7057 19.7054 68.1648 19.7415 68.0206C19.7909 67.8161 19.3893 67.11 20.5394 64.9786C20.4481 63.9461 19.2615 68.495 19.6062 66.3709C19.1841 67.7856 17.6368 73.3209 17.7849 74.0457C17.7977 74.1329 18.2039 73.7936 17.8629 75.0175C17.7059 75.5964 17.8698 74.1696 17.756 74.4272C17.6615 74.6297 17.4615 75.706 17.4425 76.8423C17.4243 77.3825 17.5154 77.9812 17.5281 77.9742C17.5197 77.9714 17.4702 77.7167 17.0532 77.2759C16.6537 76.8266 15.8173 76.4539 15.3943 76.4226C18.528 76.9033 20.9875 76.4306 21.8025 76.1943C21.9165 76.1646 21.9036 76.2869 22.0166 76.2556C22.3783 76.1716 23.5128 75.5875 24.0617 75.3424C22.9147 75.6754 24.7843 74.7707 25.3676 74.2873C25.4049 74.261 25.439 74.2369 25.4685 74.2161C26.2733 73.6293 26.3762 73.7772 26.7616 73.4913C28.2988 72.3433 30.1236 69.383 31.5447 68.2488C31.1336 68.0678 33.5761 65.9244 34.4653 64.6895C35.1552 63.7432 35.9522 62.1483 34.853 63.3529C36.1513 61.658 37.1012 59.9664 39.2304 57.7663C39.6677 57.3583 39.1035 58.0308 39.9243 57.3035C39.9698 57.2653 40.0003 57.1961 40.1436 57.043C40.3127 56.8873 40.4522 56.6681 41.3954 56.1734C41.845 55.9461 42.8509 55.5244 44.0714 55.5048C45.4853 55.4324 47.1976 56.1179 48.1054 56.9597C49.1249 57.8881 49.3605 58.4438 49.648 58.9881C49.9169 59.561 49.9936 59.8441 50.0813 60.1405C50.1621 60.4291 50.2143 60.6773 50.2539 60.8995C50.2854 61.0777 50.3061 61.226 50.323 61.3662C50.3561 61.6441 50.3704 61.8678 50.378 62.0553C50.3936 63.0135 50.1846 62.1774 50.1581 62.7112C50.137 63.1255 50.1312 63.4317 50.1358 63.6536C50.1024 63.1393 50.0648 62.6051 50.0247 62.0771C50.0094 61.8558 49.9877 61.6317 49.9567 61.4005C49.9245 61.1688 49.8901 60.9419 49.809 60.5876C49.6215 59.9749 49.5498 59.0827 48.2485 57.615C47.5277 56.8371 46.3261 56.1334 45.091 55.9502C43.805 55.7656 43.0662 55.9681 42.4275 56.1546C42.2712 56.2043 42.1263 56.2573 41.9912 56.3117C41.875 56.3587 41.7803 56.4005 41.6834 56.4456C41.4923 56.5348 41.3225 56.6252 41.1681 56.7143C41.0152 56.8024 40.8695 56.8949 40.7511 56.9746C40.6472 57.0445 40.5508 57.1131 40.4602 57.1803C39.1243 58.2337 38.8419 58.7153 38.5692 58.9903C38.8375 58.8595 39.1557 58.3855 40.4923 57.327C40.8462 57.0827 41.304 56.6852 42.4654 56.2885C43.1059 56.0999 43.8844 55.8911 45.1811 56.1051C46.436 56.3196 47.5892 57.0578 48.2687 57.8338C48.9164 58.5748 49.1409 59.0753 49.3655 59.6024C49.5433 60.0488 49.624 60.3477 49.7019 60.6764C49.8438 61.3205 49.8739 61.6436 49.9126 62.084C50.0044 63.0511 50.0771 63.934 50.0732 64.4057C50.0727 64.451 49.9077 64.3017 49.9089 64.3476C49.909 64.3486 49.909 64.3495 49.9091 64.3505C49.9268 64.844 50.1167 67.9396 50.2763 67.2937C50.3188 67.1191 50.2634 65.6966 50.1574 63.9929C50.2164 64.4524 50.3745 64.0989 50.3862 64.1799C50.527 65.1654 50.4573 67.5776 50.4647 68.4216C50.4671 68.6166 50.5793 68.598 50.5808 68.6299C50.5841 69.3966 50.2505 69.0993 50.6114 69.869C50.2617 71.2743 50.4547 67.2686 50.2025 67.5542C50.015 67.8182 50.444 76.5836 50.8101 76.3782C50.7785 76.4082 50.7446 76.5262 50.7145 76.7468C50.6819 76.9871 50.7186 77.6396 50.7912 78.1282C50.8265 78.3734 50.8726 78.5688 50.891 78.601C50.9135 78.6486 50.8729 78.4424 50.7554 78.1807C50.7649 78.1962 50.7735 78.2099 50.7812 78.2218C50.8302 78.2946 51.0905 78.1282 51.1395 78.2211C51.21 78.3493 51.5179 79.1477 51.7048 79.5288C51.8016 79.7301 51.8756 79.8424 51.8853 79.8472C51.898 79.8547 51.8358 79.7651 51.7721 79.6683C51.99 79.7676 52.0333 79.8 51.9823 79.6508C52.1189 79.8249 51.958 79.6075 51.7843 79.5019C51.6085 79.3825 51.474 79.3222 51.4402 79.2908C51.3552 79.2276 51.6491 79.2613 51.9281 79.3937C51.9526 79.4089 51.9811 79.4147 52.0018 79.4283C52.1901 79.5249 52.2565 79.573 52.2469 79.5134C52.2403 79.4606 52.1907 79.3408 52.2011 79.3338C52.2107 79.3039 52.4062 79.5292 52.3312 79.417C52.2919 79.3672 52.1492 79.2267 51.9035 79.0946C51.662 78.9611 51.351 78.8733 51.1489 78.8566C51.9691 79.016 52.4043 79.1303 52.024 79.1842C51.9674 79.1917 51.5611 79.1228 51.1188 79.0462C51.5117 79.0977 51.9302 79.3203 51.4096 79.2367C51.3652 79.2333 51.2316 79.194 51.0989 79.1718C51.7015 79.2655 52.4402 79.3434 52.486 79.3628C52.7547 79.4768 51.9561 79.4767 51.0572 79.4348C51.3896 79.5733 51.6291 79.8511 51.4913 79.8805C51.406 79.7348 51.1916 79.623 51.0327 79.5893C51.6688 79.6736 52.2884 79.7897 52.8064 79.8143C53.2011 79.8322 53.2853 79.6801 53.3299 79.6812C53.9271 79.6758 53.5841 79.8166 53.7678 79.8199C53.8139 79.8211 54.0881 79.732 54.1432 79.6958C54.2154 79.6568 54.0462 79.7229 54.1626 79.9405C54.0428 79.9044 53.1076 80.2244 52.5164 80.9867C52.3174 81.2254 52.3336 81.1993 52.3171 81.1876C52.3103 81.166 52.3168 81.1176 52.3185 81.0798C52.3245 80.9981 52.3182 80.9526 52.2956 80.9621C52.2744 80.9678 52.2348 81.0304 52.2005 81.0804C52.1859 81.11 52.0765 81.2225 52.3381 80.85C52.6752 80.3968 53.15 80.0295 53.4907 79.8527C53.837 79.6692 54.0446 79.6274 54.1149 79.6119C54.2558 79.5933 53.9443 79.6391 53.5537 79.618C53.828 79.5697 54.1836 79.5213 54.1303 79.5098C54.1006 79.5114 53.9422 79.523 53.5834 79.6873C53.2346 79.843 52.6598 80.2354 52.2493 80.7819C52.0028 81.1198 52.0662 81.0614 52.0606 81.0363C52.0835 80.9479 51.9084 80.9676 51.9707 80.7178C52.2595 80.3837 52.9733 75.4984 52.7461 74.1883C52.856 74.9738 53.0149 74.7346 52.9574 74.1198C52.8917 73.5059 52.7085 74.043 52.6733 73.9253C52.654 73.8579 52.5997 72.9849 52.4711 72.1198C52.4319 71.7472 52.2554 71.1287 52.1824 70.963C52.5106 71.8309 52.5677 71.9956 52.6233 71.9496C52.6652 71.8921 52.658 71.5285 52.3942 70.7395C52.5206 70.9518 52.635 71.1478 52.7423 71.3444C52.4953 70.5692 51.7355 68.2448 51.3252 67.6491C51.2653 67.5577 51.3114 67.9714 51.2774 67.9196C50.9712 67.4133 50.0728 65.4597 49.9701 65.3914C49.8936 65.3369 50.2373 66.2038 50.0185 65.9327C49.9729 65.8752 49.7111 65.0032 49.216 64.249C49.0326 63.9691 49.0159 64.2117 48.9667 64.143C48.5532 63.568 48.9677 63.8145 48.2694 62.7126C47.7546 61.9034 47.188 61.4021 46.5476 60.1944C48.5918 64.1399 46.785 60.918 45.7258 59.3166C45.5538 59.0505 45.4818 59.4339 44.6361 57.7405C47.0339 60.9326 44.266 56.6982 43.739 55.6305C43.7112 55.5733 43.8415 55.4768 43.5853 54.9732C43.5625 54.9274 43.4993 55.0532 43.2483 54.5678C42.0635 52.2471 41.8925 51.2135 41.9492 51.3559C42.0033 51.4305 42.3095 52.1781 42.151 51.5121C42.1092 51.1884 41.6849 50.4288 41.6128 48.4241C41.5984 47.3875 41.8345 45.777 42.8574 44.335C43.8942 42.875 45.1381 42.2745 45.7173 42.0205C46.1585 41.8552 46.1109 41.8974 47.2718 41.6589C47.3948 41.6384 47.5346 41.616 47.6833 41.5936C49.3976 41.3763 50.0678 41.3238 50.745 41.2968C50.8121 41.2965 50.849 41.4758 51.9543 41.4222C52.2609 41.407 52.5957 41.3432 52.1688 41.2902C51.7075 41.2341 51.0998 41.2212 50.3567 41.2361C49.5565 41.2721 48.9205 41.2276 47.2444 41.516C45.9651 41.7406 43.8836 42.6077 42.6414 44.5431C41.4815 46.3806 41.4839 47.8435 41.4526 48.7172C41.4541 49.4405 41.4806 49.6253 41.4443 49.5228C41.4168 49.4014 41.3341 49.0236 41.343 48.2127C41.3804 47.4041 41.4355 45.9029 42.7088 44.1054C44.0452 42.2633 46.0215 41.5272 47.2053 41.3123C48.1416 41.1395 48.5895 41.1344 48.9634 41.1074C49.3201 41.0881 49.5344 41.0836 49.5906 41.0817C49.7084 41.0763 48.5223 41.2048 49.7218 41.1858C50.7136 41.177 52.2072 40.8925 53.2802 40.9475C53.3697 40.9538 54.2002 41.1994 54.1583 41.2141C54.1451 41.2317 52.8315 41.3084 53.0171 41.381C53.047 41.3911 53.885 41.3775 53.9833 41.4294C54.1124 41.4958 54.4789 42.1647 54.6444 42.1723C55.0594 42.1901 54.7848 42.0512 55.0412 42.044C55.2802 42.0379 55.7998 42.0298 56.0508 41.9991C56.8077 41.8705 57.512 41.7077 57.5222 41.5712C57.1466 41.6452 56.7675 41.7167 56.385 41.7862C58.4736 41.2898 57.5511 41.3889 57.8369 41.2788C58.1377 41.1558 58.1019 41.3815 58.7917 41.2254C58.9629 41.2089 61.7145 40.3498 61.6147 40.2655C60.1689 40.8796 60.6376 40.4494 60.5705 40.4694C60.3017 40.5336 60.001 40.7719 59.6357 40.8704C57.04 41.5345 59.5982 40.6267 58.9705 40.731C58.7572 40.7676 58.3658 40.9942 58.2736 41.0104C57.9747 41.0637 57.9314 40.9081 57.7379 40.9684C57.284 41.1081 57.8755 41.2011 57.8418 41.2211C57.467 41.4635 55.7773 41.6565 56.7482 41.1858C56.3007 41.2214 56.1633 41.3869 55.9384 41.4763C55.9116 41.4988 55.8674 41.5085 55.7926 41.4856C55.3742 41.3775 55.7356 41.3105 55.8929 41.265C56.1034 41.2153 56.3104 41.1669 56.4236 41.1298C57.7902 40.671 58.2424 40.7 60.0947 40.1309C60.7585 39.9233 61.4702 39.5327 61.7563 39.4228C61.9441 39.368 63.8175 39.1795 63.5308 38.4182C64.1716 38.2293 65.328 38.2392 65.8823 37.8798C66.3735 37.5609 66.0603 37.4157 66.1018 37.3788C66.1648 37.3235 66.7407 36.9706 66.8921 36.8058C67.0721 36.6147 66.9091 36.6056 67.1965 36.3267C67.8818 35.628 68.0242 35.8437 68.1171 35.7915C69.0787 35.1373 68.4179 35.2044 68.5634 35.0055C68.6111 34.9335 68.961 34.5692 69.3266 34.0644C69.6345 33.6453 69.8955 33.1917 69.9961 32.9394C70.1019 32.675 70.0745 32.6602 70.0421 32.6938C70.104 32.66 70.1587 32.7141 70.1825 32.8295C70.4131 32.6679 70.0949 32.7239 70.4207 32.751C70.0013 32.7048 70.1401 33.0559 70.3102 33.2849C70.3639 33.3811 70.4477 33.5329 70.513 33.6542C70.6558 33.9029 70.5529 33.9343 70.8529 34.3139C71.2076 34.7849 72.0724 35.3679 72.5858 35.5029C73.1115 35.6628 73.2417 35.6155 73.2128 35.6183C72.7351 35.613 72.3417 35.6194 72.1636 35.6404C71.1305 35.7706 72.0429 35.8729 73.2131 35.982C73.2505 36.0146 72.7848 36.1497 71.7593 35.6501C70.7196 35.1267 70.1354 34.2321 70.0671 34.1239C70.2105 34.3992 70.985 35.3883 71.9351 35.8235C72.8591 36.2563 73.2146 36.1943 73.2133 36.2345C72.1019 36.2957 71.3206 36.4199 72.4207 36.5316C72.6376 36.5546 72.9628 36.4517 73.2134 36.3826C73.2062 36.3506 73.1844 36.3248 73.1678 36.321C73.0743 36.3027 72.898 36.2781 72.8129 36.2716C72.7229 36.2647 72.7162 36.284 72.7555 36.3169C72.8391 36.3848 73.0077 36.4664 72.9658 36.4702C72.9024 36.4746 72.6984 36.4169 72.2822 36.2284C71.8759 36.054 71.2877 35.6516 71.0495 35.4694C70.9671 35.4115 71.1556 35.6158 71.0342 35.5854C70.9743 35.5687 70.8279 35.4991 70.55 35.2636C70.2822 35.041 69.8561 34.5691 69.5942 34.065C69.6445 34.2111 69.7641 34.4831 70.0665 34.8777C70.3597 35.2666 70.8869 35.7607 71.4415 36.0757C72.6179 36.7239 73.1943 36.62 73.2136 36.6321C72.4215 36.6212 71.7367 36.6241 71.5585 36.6486C71.4191 36.6797 72.3208 36.9925 69.6739 36.7763C69.7069 36.8102 69.7398 36.8441 69.7726 36.8781C68.3254 37.001 66.9337 37.2054 65.5235 37.5031C65.6609 37.3897 66.4266 37.0714 65.4286 37.3017C64.8555 37.4406 65.3209 37.5351 65.2691 37.5512C64.8778 37.4344 55.2418 40.519 53.2225 41.4913C52.5574 41.76 50.7825 42.6435 50.6311 42.7102C50.619 42.7154 50.6065 42.7207 50.5935 42.7263C50.4676 42.7792 50.3192 42.8398 50.1125 42.92C49.8908 43.0034 49.7025 43.0835 49.1455 43.2609C48.988 43.3085 48.8283 43.361 48.4448 43.4504C48.2622 43.4899 48.0066 43.552 47.4999 43.6073C47.3503 43.6227 47.1812 43.6361 46.9826 43.6431C46.8833 43.6466 46.7765 43.6484 46.6606 43.6474C46.5076 43.6461 46.3315 43.64 46.1369 43.6246C45.9417 43.6091 45.7249 43.5845 45.4805 43.543C45.2315 43.4981 44.9944 43.4573 44.5163 43.3109C43.601 42.972 42.6359 42.7211 41.1299 41.0627C40.4756 40.3019 39.9562 39.3014 39.704 38.418C39.4572 37.5819 39.3907 36.7994 39.4094 36.1507C39.4186 35.8249 39.4485 35.5292 39.489 35.2619C39.5275 35.013 39.5598 34.86 39.6013 34.6811C39.6822 34.3383 39.7748 34.0517 39.8665 33.8049C40.0685 33.2762 40.1858 33.0683 40.3126 32.8299C40.4317 32.6117 40.5621 32.4059 40.6313 32.3019C40.9675 31.8031 41.1319 31.6298 41.2669 31.4703C41.527 31.1766 41.6359 31.0757 41.7382 30.9737C42.0923 30.6331 42.1547 30.5853 42.1897 30.5548C42.8057 29.9718 42.8907 29.8605 42.6792 30.1358C42.464 30.3788 41.9443 31.4191 41.831 32.0964C41.7042 32.7208 41.6923 32.8859 41.6524 32.8999C41.6189 32.9223 41.5847 32.8294 41.5579 33.1139C41.552 33.0999 41.5493 33.0787 41.5511 33.0464C41.5607 32.8628 41.7087 33.0556 41.7157 33.0009C41.7494 32.7771 41.7101 31.756 41.4114 30.295C41.1294 28.8597 40.6366 27.0681 40.5209 26.3535C40.771 27.3054 41.885 31.029 41.9075 30.856C41.9248 30.8475 41.8901 29.9659 41.7927 29.783C41.8651 29.455 41.2349 28.4438 41.1495 27.792C41.1381 27.715 41.4342 27.9582 41.1762 26.7956C41.0868 26.3941 40.6352 25.3797 40.5158 24.2137C40.4064 23.8873 40.2323 23.268 40.0188 22.4656C39.123 19.0007 38.0673 13.8599 37.7537 13.8461C37.7366 13.8217 37.9408 14.7486 37.6567 14.1708C37.2851 13.4724 37.9187 13.9401 37.6732 13.1763C37.6714 13.1364 37.3825 12.5621 37.4371 12.7041C37.469 12.7652 37.6799 13.0571 38.0661 13.3465C38.4416 13.6367 38.8927 13.8275 38.931 13.849C39.3709 14.0798 39.3911 14.1221 39.118 14.0868C38.8536 14.0518 38.3053 13.8513 37.9175 13.5995C37.0978 13.0374 37.1085 12.9011 37.0807 12.9281C37.0822 12.9462 36.9891 13.0961 37.8296 13.7687C38.2366 14.0803 38.9082 14.388 39.4215 14.5034C39.9464 14.6285 40.2634 14.6242 40.3119 14.625C40.4153 14.6346 39.4692 14.4647 39.1102 14.2444C38.9352 14.1484 38.9042 14.1096 39.2057 14.1932C39.469 14.2688 40.3016 14.4599 41.0604 14.3672C40.7445 14.4542 40.2474 14.5162 39.6807 14.4505C40.7819 14.6553 41.1097 14.4684 41.3083 14.4009C41.4087 14.3271 41.4142 14.2536 41.4522 14.2343C41.5536 14.1778 41.607 14.2275 41.6157 14.2551C41.6198 14.2857 41.5739 14.2866 41.3434 14.2184C41.217 14.1875 41.2042 14.0206 41.1883 14.0136C41.0109 13.9766 41.2504 14.3129 40.9232 14.2615C40.8982 14.2636 40.9462 13.9619 40.7349 14.2012C40.6648 14.2992 40.7638 14.1429 40.8406 13.9207C40.8401 14.0122 40.8159 14.1404 40.8064 14.2205C40.8339 14.204 40.921 14.0596 40.9779 13.9207C41.0353 13.782 41.0357 13.7668 41.0256 13.9101C41.0002 14.1924 40.9868 14.8776 40.979 15.0157C40.9401 15.6838 40.8204 15.426 40.7694 15.6285C40.7524 15.7127 40.7446 15.8655 40.7533 16.156C41.0318 15.4331 41.1001 18.8529 40.8538 18.6641C41.1664 19.14 40.9645 22.0514 40.9802 23.4237C40.9892 24.2956 41.1551 26.0463 41.145 26.327C41.1321 26.6633 40.9195 26.5554 40.8846 27.1689C40.8745 27.3414 41.0646 29.1387 40.8836 30.7223C40.8484 31.0206 40.5072 31.6869 40.4045 31.1122C40.2288 30.1431 40.477 28.2931 40.2669 28.3211C40.0413 28.3519 40.2296 30.8333 40.2168 31.5041C40.1552 34.5902 39.8727 32.8205 39.8016 32.8962C39.6303 33.1146 39.6784 34.7955 39.6646 34.8696C39.6017 35.1621 39.4315 33.9731 39.3234 33.9534C39.1827 33.9388 38.9717 35.5732 38.9149 35.2042C38.8337 34.6668 39.0071 33.1771 38.9946 33.0759C38.8284 31.8464 38.5462 33.5481 38.3991 34.0168C38.3537 34.1598 38.2591 33.5967 38.2477 33.7151C38.0755 35.5158 38.712 34.076 38.6979 35.276C38.6854 36.3365 38.4372 34.9799 38.4266 35.0185C38.415 35.0724 38.4365 36.3422 38.3665 36.5448C38.3311 36.6482 37.8317 33.3401 37.6504 33.4914C37.7177 34.5454 37.786 35.5986 37.8546 36.654C37.6147 36.7375 37.7532 35.2198 37.7243 35.0637C37.6661 34.7486 37.5665 35.6328 37.489 35.594C37.4399 35.5786 37.2395 34.5506 37.1921 35.4833C37.1757 35.8065 37.3631 36.4772 37.2205 37.6528C36.8923 33.5788 36.8305 36.4147 36.7478 36.5313C36.6651 36.649 36.4127 34.7164 36.5101 37.072C36.042 37.1843 36.3601 37.0302 36.2596 36.3553C36.1367 35.5413 36.0306 37.4398 36.0706 34.4354C35.8541 34.6063 35.933 37.029 35.9187 37.1518C35.9057 37.2619 35.7833 36.7323 35.7515 36.9234C35.3847 39.1909 35.5387 37.6377 35.2838 38.3013C35.2612 38.3555 35.2145 40.5004 35.1337 38.8737C34.9846 35.9108 35.2641 34.6562 34.5841 34.1778C34.3499 36.3818 34.8521 39.027 34.8751 39.6971C34.9104 40.7116 34.7486 39.6645 34.7135 39.7903C34.7023 39.8306 34.7346 40.7146 34.7238 40.7226C34.232 41.3686 34.6172 36.8092 34.4903 35.3795C34.4238 35.7555 34.3579 36.1562 34.2915 36.5338C34.2749 36.0192 34.2582 35.4963 34.2417 34.9736C34.153 37.4615 34.1857 35.0631 33.7577 34.4563C33.6615 34.3198 33.862 35.9411 33.557 34.0907C33.5324 35.4606 33.4371 35.0279 33.5857 36.2685C33.4193 36.2362 33.1605 33.4551 33.0496 32.35C32.9606 36.2542 33.5111 34.0083 33.278 37.3856C33.4991 38.0062 33.4171 36.4029 33.4542 36.5283C33.588 37.0009 33.4247 38.1069 33.8836 39.4169C33.9588 39.6313 34.1513 38.711 34.1744 40.0647C34.1769 40.2207 34.0128 41.0822 33.9991 41.0714C33.8527 40.9587 33.8868 40.1088 33.8256 40.0704C33.7682 40.0428 33.8246 40.9888 33.8087 40.9953C33.6291 41.0266 33.7215 40.2051 33.6677 40.3246C33.5515 40.5858 33.2403 44.009 33.2513 39.5475C33.542 43.2466 33.4646 40.0217 33.3475 38.5758C33.3184 38.2106 33.2081 38.1138 33.157 37.5933C33.0908 36.9164 33.1219 36.1293 33.0929 35.7733C33.0614 35.3993 32.862 37.5445 32.8582 34.4495C32.6444 36.0264 32.9903 38.8074 32.8487 40.3498C32.5605 43.4545 32.3613 38.1925 32.3083 37.6412C32.2951 37.4948 32.1624 37.9898 32.151 37.8921C32.133 37.7264 32.1216 34.7257 31.9941 34.4318C31.8661 34.1383 32.0279 35.536 31.9049 35.6277C31.8214 35.6948 31.5802 32.0713 31.5718 34.0313C31.5664 35.3955 31.9718 37.876 31.6177 38.3039C31.5357 36.319 31.4522 34.3263 31.3741 32.3316C31.2615 33.4222 31.1505 34.5221 31.04 35.6152C30.9377 33.3757 31.0472 31.4459 30.8024 29.3161C30.4721 34.4354 30.4094 27.668 30.3574 27.5913C30.324 27.5648 30.0047 29.5863 29.9464 29.914C29.7641 28.1265 29.6024 22.7052 29.2124 25.8859C29.3024 25.3145 29.0306 23.9178 29.0123 23.9363C28.8169 24.1149 28.9995 27.1637 28.813 26.6685C28.5956 26.0947 28.8609 25.2829 28.8239 24.3982C28.6379 19.8533 27.625 21.1137 27.7432 16.5464C27.7074 16.6373 27.6715 16.728 27.6357 16.8186C27.6368 16.4581 27.6381 16.0943 27.6396 15.7272C27.6465 14.7603 27.6561 13.7721 27.8111 12.444C27.8956 11.7733 28.0172 10.9842 28.321 10.0017C28.6051 9.03325 29.2076 7.86282 29.5826 7.29351C31.4898 4.38879 34.0229 1.97505 38.3804 0.920652C39.8476 0.58434 42.0427 0.567959 43.9753 1.38656C45.9222 2.18825 47.1847 3.45887 47.9766 4.46448C51.3423 8.41999 52.1048 13.6428 52.7728 15.9974C52.8735 16.4532 53.2236 18.4098 53.3017 18.8457C53.31 18.8925 53.3153 18.9253 53.3171 18.9414C53.3266 19.031 53.299 18.9755 53.2549 18.8585C53.1366 18.5569 52.9008 17.7769 52.9757 18.3661C52.9805 18.4023 53.0274 18.6083 53.1007 18.9005C53.3859 20.027 54.0583 22.5278 54.1275 22.2675C54.0189 21.7816 53.5376 20.3627 53.5145 20.1226C53.2556 18.3764 56.4911 29.4022 56.0378 33.509C56.0039 34.6507 55.8083 35.298 55.755 35.5542C55.9452 34.9512 56.0872 34.2528 56.1305 33.5116C56.1706 33.2665 56.2066 33.021 56.239 32.7779C56.2343 33.0208 56.2258 33.2671 56.2133 33.5138C55.8411 37.8502 53.9041 39.128 53.2329 39.9798ZM41.5478 13.9985C41.6615 13.9207 41.6698 13.8773 41.6446 14.0561C41.6206 14.2222 41.582 14.5427 41.6005 14.8041C41.6161 15.0286 41.6948 15.3285 41.7778 15.621C41.9611 16.4065 42.1416 17.041 41.6694 16.5461C41.6556 16.2405 41.6419 15.9325 41.6283 15.6221C41.6033 15.1389 41.5902 14.6881 41.5902 14.3478C41.5844 14.0145 41.6199 13.7859 41.5478 13.9985ZM39.2177 21.2941C39.0504 20.247 39.6141 20.9409 39.6844 21.8303C39.693 21.9297 39.4594 22.7295 39.2177 21.2941ZM37.0903 12.9098C37.0839 12.8804 37.1944 13.1317 37.2016 13.1698C37.2027 13.3689 37.0822 13.155 37.0316 13.0415C36.9788 12.9238 37.0176 12.9172 37.0903 12.9098ZM68.2584 36.7309C67.3539 36.8599 68.0521 37.1159 68.5966 36.9142C68.6314 36.9012 68.3184 36.7228 68.2584 36.7309ZM67.6124 36.8032C66.8596 36.5865 65.5579 37.4603 66.6628 37.2035C66.7688 37.1761 67.645 36.8113 67.6124 36.8032ZM38.4993 17.7338C38.6398 17.8085 38.8216 18.808 38.9005 19.2536C38.7918 19.2661 38.6091 18.1299 38.4993 17.7338ZM53.3391 41.2835C53.3461 41.201 51.4194 41.9569 50.4642 42.4114C50.1319 42.5655 49.8369 42.7024 49.7629 42.7595C49.9273 42.6866 50.1917 42.5781 50.4831 42.4573C51.4761 42.0426 53.3375 41.3548 53.3391 41.2835ZM61.3352 38.2847C61.2527 38.2901 60.2017 38.6451 60.2558 38.7163C60.812 38.6483 61.7025 38.2502 61.3352 38.2847ZM69.2737 33.1373C69.2806 33.1186 69.4353 33.2081 69.5189 33.1629C69.6073 33.1382 69.5943 32.8869 69.4497 32.6275C69.4281 32.5976 69.3768 32.6192 69.33 32.6842C69.2826 32.746 69.2472 32.8606 69.2372 32.8365C69.1978 32.7372 69.1851 32.6747 69.1853 32.633C69.1061 32.8565 69.2107 33.5052 69.309 33.6688C69.3316 33.7205 69.3532 33.7625 69.3652 33.7781C69.5215 33.9842 69.4686 33.8148 69.4082 33.6307C69.35 33.4495 69.2665 33.1444 69.2737 33.1373ZM67.561 35.4789C67.5319 35.633 66.843 36.1458 66.6525 36.2323C66.6205 36.2467 66.609 35.9805 66.2998 36.2232C66.0439 36.4172 66.5774 36.3336 66.0268 36.6594C65.4576 36.9818 66.1021 36.3729 66.0425 36.394C65.9844 36.4259 65.1701 37.0459 65.1226 36.9105C65.1045 36.8165 66.0556 36.3087 66.238 36.1391C66.4835 35.9284 66.0772 36.0244 66.5197 35.7373C66.791 35.5545 66.8281 35.8926 66.8921 35.8612C66.9634 35.8373 67.685 34.9638 67.5591 35.4794C67.5597 35.4793 67.5603 35.4791 67.561 35.4789ZM69.2049 32.5703C69.1932 32.5838 69.1856 32.603 69.1853 32.633C69.1913 32.608 69.1983 32.5872 69.2049 32.5703ZM41.3614 14.2928C41.47 14.2999 41.4248 14.5034 41.2978 14.5499C41.2878 14.5566 41.2799 14.5589 41.273 14.5582C41.2602 14.55 41.2494 14.543 41.2504 14.5206C41.2314 14.4358 41.3456 14.2886 41.3614 14.2928ZM69.442 32.5738C69.3815 32.6492 69.3142 32.6952 69.2989 32.6191C69.2809 32.5564 69.2591 32.4418 69.2049 32.5703C69.2687 32.5085 69.4745 32.5493 69.442 32.5738ZM41.7927 29.783C41.7816 29.8382 41.7546 29.8766 41.701 29.8912C41.7346 29.7468 41.7637 29.7274 41.7927 29.783ZM42.039 32.3232C42.2469 33.0756 42.1532 31.5161 42.0107 31.5084C41.9719 31.527 42.037 32.3028 42.039 32.3232ZM69.4332 36.6303C69.338 36.6242 70.7456 35.9862 68.6758 36.5569C69.7974 36.5084 68.6251 36.6761 68.6487 36.7208C68.7018 36.8332 70.5692 36.5588 71.0084 36.608C71.3297 36.3601 69.7363 36.6504 69.4355 36.6301C69.4347 36.6302 69.434 36.6303 69.4332 36.6303ZM55.425 40.2783C55.4832 40.2067 55.6103 40.1622 55.6523 40.1457C55.9899 40.0657 56.379 39.9938 56.6844 39.9281C56.5301 40.0523 56.1136 40.1595 55.6746 40.2497C55.6376 40.2558 55.5341 40.2668 55.425 40.2783ZM35.8877 45.6484C36.8221 45.7156 37.4149 45.7581 38.4433 45.9176C38.5335 45.9325 38.6785 45.9563 38.8591 45.9935C38.9527 46.0129 39.0613 46.0364 39.2087 46.0737C39.2293 46.079 39.239 46.0815 39.2727 46.0903C39.3336 46.1062 39.4014 46.1247 39.4797 46.1477C39.6374 46.1948 39.831 46.2542 40.1274 46.374C40.4287 46.5044 40.8211 46.6515 41.5279 47.1524C42.1401 47.6641 43.6422 48.6118 44.1782 51.5372C44.4144 52.9309 44.0257 54.6004 43.493 55.5476C43.0834 56.3248 42.6147 56.8619 42.2127 57.2484C41.3953 58.0112 40.8264 58.2718 40.4135 58.473C39.5979 58.8342 39.2593 58.878 38.9781 58.9455C38.7091 59.0006 38.5442 59.0218 38.4075 59.039C38.321 59.0492 38.3022 59.0506 38.2555 59.0552C38.0932 59.0703 37.9807 59.0763 37.8805 59.0808C37.6606 59.0901 37.5942 59.0875 37.5017 59.0871C37.4138 59.0861 37.3314 59.0841 37.2512 59.0816C36.9828 59.0704 36.8146 59.0527 36.6511 59.0343C36.1544 59.0212 36.1549 59.0017 36.0572 58.9907C35.9735 58.9776 35.9506 58.9688 35.9154 58.9591C35.8525 58.9403 35.8293 58.9247 35.8304 58.912C35.8309 58.8992 35.855 58.8891 35.9195 58.8833C35.9557 58.8807 35.9779 58.8774 36.0622 58.8788C36.1609 58.8782 36.1573 58.8862 36.6511 58.8886C36.775 58.8789 36.9261 58.8709 37.0956 58.8641C37.1634 58.8609 37.3127 58.8571 37.4439 58.8526C37.5121 58.8503 37.5831 58.8477 37.6609 58.8444C37.7906 58.8387 37.9293 58.8329 38.1548 58.8125C38.214 58.8069 38.2703 58.8014 38.3581 58.7909C38.5796 58.7567 38.801 58.7554 39.5256 58.5425C39.9092 58.4005 40.4227 58.313 41.5304 57.5005C42.0837 57.0388 42.7942 56.5028 43.4952 54.947C44.4212 53.0515 43.8545 50.1844 42.9754 49.0445C42.1299 47.7942 41.4455 47.4053 40.9993 47.104C40.5429 46.8235 40.2502 46.7016 40.0187 46.6056C39.574 46.4283 39.317 46.3679 39.1863 46.3324C38.7278 46.2179 38.5318 46.1962 38.3877 46.1712C38.1687 46.1362 37.9535 46.1077 37.8121 46.0872C37.6455 46.0639 37.4829 46.0414 37.3303 46.0193C37.1665 45.9961 37.004 45.9724 36.8433 45.9481C36.7405 45.9327 35.6107 45.6777 35.8877 45.6484ZM19.1035 72.5824C18.7992 72.898 18.9895 71.6979 19.2736 70.9132C19.3361 70.7367 19.7283 70.1209 19.5967 70.8964C19.3185 70.8062 18.9455 71.9702 19.1035 72.5824ZM69.5324 32.7758C69.6541 32.9265 69.2697 33.4339 68.997 33.7784C69.0515 33.4813 69.4461 32.8952 69.5324 32.7758ZM27.8575 59.5891C27.4931 59.7044 27.3327 59.9931 27.3996 59.9849C27.6972 59.9505 28.3032 59.5521 27.8575 59.5891ZM69.8472 33.7324C69.8783 33.7433 69.8359 33.6026 69.808 33.4774C69.7514 33.2112 69.7265 32.7858 69.5577 32.7808C69.5596 32.8489 69.6035 33.2966 69.7201 33.5112C69.7661 33.6156 69.829 33.7275 69.8472 33.7324ZM56.099 40.2179C56.221 40.214 56.0084 40.2929 55.7028 40.3808C55.6558 40.419 55.3868 40.4716 55.2455 40.4591C55.253 40.3909 55.6318 40.312 55.6841 40.2937C55.8819 40.2503 56.0445 40.2197 56.099 40.2179ZM22.8046 62.2651C22.564 62.4132 22.0943 62.8026 22.1175 62.9015C22.1126 63.0357 22.7563 62.4483 22.8046 62.2651ZM22.1578 43.0654C22.1888 43.1148 20.6833 42.8528 20.0764 42.5763C18.92 42.0362 22.1177 43.0052 22.1578 43.0654ZM30.795 58.7086C31.7546 58.7885 30.6895 58.7253 30.7635 58.9293C31.3587 58.8325 33.0252 58.7636 31.8756 58.6245C31.6517 58.5985 31.0842 58.6796 30.795 58.7086ZM29.954 58.7794C29.8665 58.8627 29.322 59.2063 29.8329 59.0748C30.0692 59.0156 30.4399 58.7088 29.954 58.7794ZM13.433 40.536C12.4609 40.1036 17.0479 41.3086 17.2049 41.4457C17.2717 41.4832 17.3141 41.5126 17.3369 41.5336C17.5258 41.5271 18.4287 41.7954 18.4871 41.9706C18.2225 41.8722 17.4843 41.6596 17.4051 41.6199C17.3705 41.6023 17.3452 41.5879 17.3283 41.5759C16.963 41.5701 13.5851 40.5657 13.433 40.536ZM12.6515 36.7453C12.6479 36.7049 12.6454 36.665 12.6439 36.6259C12.4785 37.2937 12.1571 37.9274 11.8673 38.3518C11.5756 38.7812 11.3582 39.0209 11.2219 39.1968C10.945 39.5353 10.9862 39.6203 11.0744 39.5704C11.734 39.1526 12.1677 38.5561 12.33 38.2683C12.502 37.9635 12.4947 37.8966 12.4352 37.9493C12.3206 38.0636 11.8883 38.5541 11.915 38.4902C12.035 38.3683 12.7038 37.222 12.7493 36.6443C12.7298 36.7584 12.7019 36.8159 12.652 36.7421C12.6518 36.7431 12.6517 36.7442 12.6515 36.7453ZM11.9784 40.1964C12.0218 40.1924 12.9098 40.3593 12.954 40.379C13.3141 40.5286 12.8444 40.4624 12.406 40.3813C11.9777 40.3012 11.5713 40.2047 11.9784 40.1964ZM63.4383 38.3964C62.8234 38.606 63.3482 38.2058 63.7525 38.0884C63.785 38.0791 63.974 38.2064 63.4383 38.3964ZM29.5451 58.9158C29.5048 58.915 29.1388 58.9784 28.7305 59.0992C27.5761 59.4343 26.0002 60.1292 26.2216 60.2243C26.3758 60.1308 27.7358 59.588 28.781 59.2528C29.3749 59.056 29.8999 58.9312 29.5451 58.9158ZM17.5161 76.5634C18.3199 77.4616 17.7511 76.2716 16.8797 75.9113C16.6055 75.7912 17.3011 76.3256 17.5161 76.5634ZM73.1048 35.9431C73.2287 36.0019 73.2096 35.971 73.213 35.9261C73.1754 35.8978 73.1769 35.8618 73.2129 35.8304C73.209 35.7675 73.2439 35.7309 73.0937 35.7805C73.0785 35.7847 73.09 35.9363 73.1048 35.9431ZM18.4967 75.2091C18.4551 76.3457 18.3256 76.6447 18.1825 76.4666C18.0503 76.281 17.9314 75.4729 18.3074 73.8849C18.3256 73.9903 18.3448 74.0926 18.3641 74.1975C19.1256 70.4725 18.4104 74.0005 18.3756 74.8424C18.3531 75.1723 18.5116 74.9148 18.4979 75.207C18.4975 75.2077 18.4971 75.2084 18.4967 75.2091ZM17.8701 75.8323C19.5447 76.2828 17.2949 76.1955 15.4691 75.8687C15.9295 75.912 16.5602 76.1709 16.9026 76.4295C16.445 76.0469 15.8443 75.8216 15.4853 75.7484C16.3845 75.7735 16.8789 75.8063 15.521 75.4841C15.6359 75.4907 15.772 75.5055 15.9302 75.536C15.7801 75.4962 15.6444 75.4703 15.5252 75.4533C17.0275 75.6393 17.2776 75.662 17.3536 75.7241C17.4052 75.7775 17.1451 75.8164 17.2008 75.8288C17.3373 75.8601 17.7862 75.8078 17.8701 75.8323ZM18.2831 77.5757C18.2569 77.5643 18.3258 76.9393 18.3211 76.6277C18.4084 76.835 18.4251 77.2581 18.4194 77.4583C18.4112 77.6517 18.3603 77.7256 18.2831 77.5757ZM14.4688 39.6062C14.304 39.6437 14.08 39.5766 13.5364 38.9046C13.7719 39.0544 14.1865 39.4061 14.4688 39.6062ZM40.7977 13.8819C40.7473 14.0753 40.6643 15.1533 40.8267 14.8372C40.8335 14.8218 40.8401 14.517 40.8433 14.2768C40.846 14.0307 40.8409 13.8848 40.7977 13.8819ZM21.1824 63.3581C21.1464 63.3773 21.0241 63.6078 21.1021 63.4792C20.9317 64.1017 20.8547 64.4853 21.0807 63.9858C21.1116 63.9158 21.1726 63.738 21.2422 63.5217C21.2221 63.6129 21.2101 63.594 21.2517 63.4869C21.2899 63.3857 21.3173 63.2822 21.1824 63.3581ZM33.1538 58.4248C32.9095 58.4183 31.9533 58.4884 31.9414 58.529C31.8806 58.6451 33.0419 58.5309 33.1538 58.4248ZM40.5908 16.429C40.5758 16.5122 40.6221 18.5484 40.6909 18.3198C40.8198 17.9026 40.6401 16.1265 40.5908 16.429ZM61.2747 39.5778C61.1377 39.629 60.9042 39.5378 60.8554 39.5514C60.7647 39.6013 58.112 40.4005 59.0798 39.9226C59.2891 39.8766 62.9567 38.766 63.3308 38.5579C63.5906 38.693 62.0605 39.0839 61.6858 39.2243C61.6215 39.2508 61.6411 39.4385 61.2756 39.5765C61.2753 39.5769 61.275 39.5773 61.2747 39.5778ZM12.453 37.7486C12.4086 37.7892 12.4043 38.0906 12.3604 37.8825C12.3233 37.7096 12.4167 37.104 12.5002 37.1333C12.3961 37.9274 12.564 38.1316 12.453 37.7486ZM12.3859 37.5831C12.6042 37.9052 12.4104 37.7346 12.1098 37.4156C12.1666 37.4969 12.2716 37.6601 12.3208 37.7208C12.393 37.6998 12.2708 37.4324 12.1864 37.3481C12.2927 37.4684 12.3693 37.5587 12.3859 37.5831ZM28.0898 58.7121C27.8109 58.8434 28.7692 58.7293 28.5811 58.8353C28.462 58.8982 27.7901 59.0526 27.6091 59.19C27.5589 59.2285 28.2749 59.1695 28.4613 59.1004C28.7063 59.0074 28.4623 58.954 28.6548 58.8688C28.6664 58.8632 28.6805 58.8576 28.6972 58.8521C29.4296 58.6137 30.2067 58.5656 31.0525 58.4614C31.1298 58.4514 30.5187 58.4195 31.1775 58.342C31.2823 58.3311 31.9087 58.416 32.7461 58.3718C33.3041 58.2106 33.8386 58.1598 34.3735 58.1688C34.6409 58.1734 34.9071 58.1931 35.1846 58.223C35.3193 58.2377 35.4668 58.2557 35.6164 58.2752C35.6994 58.2857 35.7773 58.2961 35.8767 58.3083C35.9249 58.3142 35.9889 58.3215 36.0617 58.329C36.1769 58.3367 36.1765 58.3511 36.6511 58.3594C36.9524 58.3674 37.1661 58.3771 37.5657 58.3717C37.6259 58.3713 37.827 58.3663 38.045 58.3492C38.1036 58.3446 38.1688 58.3388 38.2467 58.3304C38.2623 58.3287 38.3802 58.3163 38.5376 58.2914C38.6978 58.2648 38.8937 58.234 39.2453 58.1361C39.6121 58.0017 40.0868 57.9761 41.2797 57.101C41.5774 56.8659 41.9259 56.552 42.2903 56.0848C42.4715 55.8513 42.6552 55.5787 42.8253 55.2619C42.9974 54.9524 43.2546 54.3517 43.3755 53.7948C43.9864 51.3046 42.6141 49.0911 41.882 48.4171C41.0867 47.6206 40.6028 47.4135 40.2575 47.2267C39.9134 47.0576 39.6958 46.9812 39.5211 46.9206C39.3483 46.8621 39.2233 46.8271 39.1186 46.7991C39.0329 46.7766 39.038 46.7782 39.0007 46.7688C38.7713 46.7129 38.6387 46.6893 38.5199 46.6679C38.3979 46.6464 38.3199 46.6347 38.2702 46.627C38.1577 46.6098 38.055 46.5958 37.9501 46.5823C37.2745 46.4979 36.7509 46.4601 36.1377 46.4355C36.2 46.4648 36.771 46.5595 37.4333 46.6665C37.6053 46.6942 37.775 46.7218 37.9769 46.7553C38.091 46.7738 38.2012 46.7925 38.3224 46.8147C38.4171 46.8312 38.5282 46.8509 38.6728 46.8811C38.7461 46.8966 38.8293 46.9149 38.9349 46.9411C38.9613 46.9476 38.9892 46.9547 39.0189 46.9625C39.0343 46.9665 39.1837 47.0055 39.3048 47.0436C39.5871 47.1519 39.8996 47.1705 40.8819 47.8082C41.3528 48.1706 42.2089 48.6928 42.9373 50.3904C43.2798 51.2236 43.4509 52.3902 43.2545 53.4582C43.1627 53.9901 42.996 54.4853 42.7966 54.9074C42.6178 55.2811 42.4798 55.4999 42.3123 55.7429C40.9235 57.5207 40.1217 57.558 39.667 57.8008C38.7704 58.1154 38.575 58.0868 38.3399 58.1306C38.1003 58.1591 38.0653 58.1577 37.9658 58.1649C37.8051 58.1744 37.6723 58.1773 37.611 58.1778C37.4973 58.1782 37.4251 58.1773 37.4001 58.1774C37.0737 58.1784 36.937 58.1726 36.6511 58.1679C36.2209 58.1614 36.1991 58.1479 36.0937 58.1413C36.0143 58.1342 35.9626 58.1286 35.9077 58.1228C35.8121 58.1124 35.7294 58.103 35.6465 58.0937C35.4912 58.0762 35.3352 58.0595 35.1858 58.0448C34.8787 58.0147 34.5689 57.9903 34.2486 57.9723C33.6083 57.9362 32.9426 57.9282 32.2964 57.9538C31.0012 58.0007 29.8211 58.2016 29.0441 58.4184C28.615 58.54 28.8538 58.5795 28.6764 58.6376C28.6137 58.659 28.6017 58.6222 28.5652 58.5964C28.5121 58.569 28.4118 58.5594 28.0898 58.7121ZM40.7079 13.7689C40.5109 13.7372 40.5633 14.3939 40.5508 14.9895C40.7184 14.7905 40.6337 13.8547 40.7079 13.7689ZM22.507 44.6704C22.8133 44.728 23.7775 44.9595 23.8712 44.9154C23.9835 44.8627 22.5899 44.5612 22.507 44.6704ZM41.4837 50.1351C41.4908 50.1687 41.5843 50.6701 41.692 51.0713C41.7919 51.458 41.9078 51.817 41.9136 51.8443C42.0471 52.4559 41.7624 51.8003 41.5644 51.0228C41.3418 50.1787 41.2673 49.1158 41.4837 50.1351ZM51.4566 69.6382C51.6866 70.1056 51.9198 70.5547 51.8245 70.7471C51.7582 70.4747 51.3382 69.627 51.4566 69.6382ZM52.0947 79.2507C51.981 79.4082 51.7064 78.7547 51.33 77.8928C51.4676 78.1568 51.4999 78.2515 51.5206 78.2966C51.5256 78.2636 51.536 78.1938 51.394 77.8608C51.8227 78.5868 52.186 79.1959 52.0947 79.2507ZM14.098 40.135C13.3882 39.3807 13.3146 39.741 12.9508 39.1401C12.8902 39.0357 13.1241 38.3558 13.7426 39.377C13.8534 39.5546 13.1865 39.0799 14.098 40.135ZM18.3995 73.3599C18.3098 73.0803 18.5022 72.2579 18.6347 71.6905C18.7015 71.8401 18.4513 72.9722 18.3995 73.3599ZM40.4757 20.0988C40.2927 20.6557 40.4703 23.2511 40.5858 22.6068C40.6001 22.508 40.4724 20.463 40.4757 20.0988ZM69.2866 34.389C69.1282 34.7401 69.3406 34.5551 69.5679 34.2292C69.7463 33.9738 69.8971 33.6666 69.914 33.5011C69.8724 33.5946 69.652 33.9166 69.4637 34.158C69.3676 34.2829 69.293 34.3744 69.2866 34.389ZM53.2511 79.3455C53.2367 79.3563 52.3706 79.2453 52.3133 79.226C51.9313 79.0947 52.4321 79.1388 52.8487 79.1911C53.2693 79.2444 53.5945 79.304 53.2511 79.3455ZM48.8356 64.1346C49.1522 64.4179 50.31 66.6683 50.4358 67.1989C50.0672 66.8343 48.4739 63.8011 48.8356 64.1346ZM17.1119 42.6458C16.5897 42.2839 16.1251 41.8635 15.693 41.4159C15.8567 41.4467 17.0958 42.564 17.1119 42.6458ZM51.9281 79.3937C51.9526 79.4089 51.9811 79.4147 52.0018 79.4283C51.9785 79.4166 51.9535 79.4053 51.9281 79.3937ZM32.7779 46.3412C33.4751 46.451 33.353 46.249 33.3083 46.2389C32.7789 46.1258 31.9894 46.216 32.7779 46.3412ZM40.3918 14.0581C40.2097 14.1481 40.2942 15.0089 40.2718 15.6323C40.2712 15.6473 40.2706 15.662 40.2698 15.6766C40.2772 15.6653 40.284 15.6504 40.2902 15.6321C40.3928 15.3519 40.3759 14.3222 40.3918 14.0581ZM20.0546 76.0979C20.7383 76.235 18.0833 76.6617 17.4535 76.4442C17.4453 76.3739 19.9951 76.1336 20.0546 76.0979ZM70.3697 33.0091C70.4371 33.0209 70.476 32.8878 70.4599 32.818C70.4458 32.7434 70.3889 32.7303 70.3571 32.7321C70.3364 32.7335 70.3338 32.7634 70.3312 32.8349C70.3299 32.9029 70.3282 33.002 70.3697 33.0091ZM15.9922 76.2345C15.8577 76.2378 15.621 76.187 15.4342 76.1265C15.6546 76.1179 15.8585 76.1185 15.6943 76.0349C15.6199 75.9983 15.5357 75.9768 15.4556 75.9687C15.7743 76.0236 16.0504 76.2321 15.9922 76.2345ZM24.0748 60.3536C23.9377 60.3882 22.7 61.3154 23.3106 61.0959C23.7299 60.9467 23.6984 60.7464 23.7885 60.6924C23.8665 60.6198 26.3 59.6318 24.0748 60.3536ZM32.186 66.5876C31.7861 67.21 31.2073 67.8736 30.7479 68.4659C30.8725 68.1801 31.9093 66.781 32.186 66.5876ZM68.4126 35.8421C68.5181 35.8232 69.5397 34.7121 69.7163 34.3306C69.7807 34.2152 69.7798 34.1849 69.6713 34.2999C69.6091 34.365 69.512 34.4761 69.3647 34.6389C69.3267 34.7401 68.0558 35.995 68.4126 35.8421ZM14.098 40.135C14.1876 40.2289 14.287 40.3387 14.3989 40.4686C14.2822 40.3452 14.1844 40.2332 14.098 40.135ZM22.8617 45.0767C22.5967 45.1274 23.8201 45.3799 24.215 45.3879C24.3414 45.2921 22.8837 45.0724 22.8617 45.0767ZM30.8195 68.5944C30.5964 68.9704 30.0644 69.5411 29.7367 69.9465C29.7241 69.8265 30.6324 68.6907 30.8195 68.5944ZM51.0751 78.0529C51.0364 77.4184 50.9381 76.3764 50.8268 76.3677C50.8428 76.3491 50.8582 76.3091 50.8719 76.2414C50.8842 76.1769 50.7754 75.2717 50.7931 74.8554C50.8492 73.6094 50.9715 76.0807 51.1064 77.5954C51.1384 77.9634 51.1713 78.2594 51.1827 78.4038C51.1958 78.5552 51.1733 78.5333 51.1448 78.5265C51.1152 78.5093 51.1097 78.6057 51.0542 78.5082C50.9998 78.4098 50.8945 78.0487 50.7823 77.2946C50.8773 77.5707 50.9753 77.8311 51.0751 78.0529ZM47.2304 60.9372C47.077 60.4237 46.1695 59.2399 46.322 59.5965C46.4326 59.8532 47.3846 61.455 47.2304 60.9372ZM53.1981 76.5228C53.2339 76.3997 53.1343 75.2572 53.0556 75.2316C53.011 75.8885 53.0674 77.078 53.1981 76.5228ZM45.2666 57.3256C45.1118 57.0171 44.6993 56.7273 44.7122 56.7692C44.8214 57.1269 45.4505 57.8852 45.2666 57.3256ZM15.1978 41.9863C15.4552 42.3078 16.5183 42.9436 16.8099 42.9625C16.8325 43.0125 16.917 43.118 17.0871 43.2856C17.0865 43.2852 17.086 43.2848 17.0854 43.2844C17.1828 43.3923 18.708 44.421 20.0809 44.8895C20.7264 45.1262 21.8413 45.3506 22.0337 45.3593C22.1397 45.3654 22.0539 45.3287 21.7047 45.2246C21.4011 45.1296 20.6761 44.9313 20.1498 44.7006C20.125 44.6902 20.1 44.6797 20.0748 44.6689C19.9049 44.5919 20.0947 44.8173 19.3991 44.5009C19.3533 44.479 19.3722 44.3733 19.2338 44.3049C18.9031 44.182 17.2569 43.1508 16.882 42.9464C16.8905 42.9285 16.8797 42.8983 16.8442 42.852C16.5304 42.467 15.0039 41.7636 15.1978 41.9863ZM53.0281 78.7164C53.1026 78.5078 53.1434 77.8074 53.0549 77.7242C52.988 78.0749 52.8649 79.1953 53.0281 78.7164ZM68.755 36.0377C69.1056 35.814 69.6248 34.9581 69.3749 35.1409C69.2471 35.2603 68.3783 36.2996 68.755 36.0377ZM52.7701 71.6921C52.7992 71.854 52.8139 71.9712 52.8228 72.0599C53.0302 73.8623 52.8845 72.1471 53.0643 72.5092C53.0194 72.3545 52.9727 72.199 52.9243 72.0427C52.8799 71.9406 52.8288 71.823 52.7701 71.6921ZM9.78681 39.2039C9.66852 39.1902 9.72199 38.8997 10.0427 39.0331C10.135 39.0759 9.85284 39.2104 9.78681 39.2039ZM29.4866 45.278C29.1839 44.841 31.1973 46.1135 30.3159 45.8139C30.2838 45.8039 29.5223 45.311 29.4866 45.278ZM15.13 39.7834C14.7796 39.8653 14.561 39.825 13.704 39.6011C15.0033 39.8408 13.8336 39.4261 15.13 39.7834ZM50.8101 76.3782C50.8162 76.3723 50.8207 76.3673 50.8268 76.3677C50.8213 76.3742 50.8159 76.3773 50.8101 76.3782ZM43.5653 54.2579C43.4681 53.7791 42.858 52.3666 42.9094 52.839C42.9087 52.8946 43.3831 54.1352 43.5653 54.2579ZM16.8099 42.9625C16.7898 42.918 16.8166 42.9177 16.882 42.9464C16.8741 42.9632 16.8493 42.9669 16.8099 42.9625ZM46.9872 60.0938C46.8783 60.1118 47.768 61.6639 47.8125 61.7153C48.4884 62.4947 47.3795 60.7322 46.9872 60.0938ZM73.0445 34.7354C73.0681 34.7452 72.9944 34.8049 72.8003 34.797C72.6139 34.7939 72.2592 34.6768 72.0207 34.4417C71.8399 34.2558 72.0691 34.3803 72.3649 34.504C72.6692 34.6336 72.9516 34.6934 73.0445 34.7354ZM18.2105 40.5746C18.7141 40.7285 19.4244 40.9591 19.5156 41.1216C19.1838 40.9898 18.1744 40.6581 18.2105 40.5746ZM29.0322 44.8164C28.4566 44.6839 27.2097 44.0984 26.3804 43.716C26.4557 43.5273 28.5575 44.6072 29.0322 44.8164ZM14.3111 41.0702C14.3323 41.1111 15.1589 41.9513 15.1271 41.742C15.0816 41.4568 14.1197 40.7893 14.3111 41.0702ZM70.8856 32.9242C70.9262 32.8343 71.0666 32.8951 71.1319 32.9698C71.1829 33.0673 71.3785 33.4879 71.6175 33.8476C71.7252 34.0062 71.566 33.9044 71.3591 33.6768C71.1487 33.4482 70.9802 33.1423 70.9351 33.0452C70.8992 32.9885 70.8819 32.9326 70.8856 32.9242ZM42.0972 48.4736C42.0908 47.8002 42.1059 47.6666 42.0547 47.9573C42.0089 48.2627 41.9792 48.8236 42.03 49.3865C42.1254 50.4985 42.4329 51.3835 42.5673 51.587C42.3849 51.0652 42.0813 49.4439 42.0972 48.4736ZM53.5219 74.6108C53.7358 72.3961 53.1194 73.6602 53.2199 74.0284C53.2355 74.0817 53.5172 74.662 53.5219 74.6108ZM39.7953 26.6203C39.8567 26.9934 40.0275 25.5943 39.895 25.4255C39.8116 25.3131 39.756 26.3872 39.7953 26.6203ZM50.1358 63.6536C50.1431 63.7671 50.1505 63.8811 50.1574 63.9929C50.1467 63.9094 50.1387 63.7982 50.1358 63.6536ZM53.8061 42.4048C52.1146 41.8763 52.2458 42.2861 52.1011 42.287C51.7618 42.2808 50.9556 42.1234 50.2247 42.1543C51.0569 42.0852 51.8086 42.0327 52.5281 41.9701C52.3462 41.9581 51.7269 41.9247 50.8777 41.8918C49.9684 41.8825 49.1464 41.7566 47.3424 42.0269C45.9076 42.195 43.7187 43.5047 42.9253 45.0261C42.1342 46.4207 42.1483 47.2032 42.128 47.2522C42.1962 47.6062 42.1312 46.0723 43.6229 44.2504C44.3649 43.3777 45.2707 42.844 45.9034 42.573C46.4838 42.323 46.8697 42.2401 46.912 42.2289C46.9986 42.2123 47.1777 42.2183 47.3835 42.2412C47.6587 42.3001 47.9467 42.4127 48.1176 42.402C48.998 42.2507 53.2722 42.3596 53.8061 42.4048ZM52.7681 70.5718C52.8331 70.8871 52.7187 70.999 52.7917 71.1201C52.8159 71.1608 52.948 71.1312 53.0237 71.2695C52.9489 71.044 52.8656 70.8181 52.7681 70.5718ZM56.1458 41.6959C56.302 41.7122 56.2144 41.761 56.0124 41.8206C55.8839 41.9009 55.0201 41.9546 54.9691 41.9392C54.6887 41.8638 55.8349 41.671 55.9858 41.6969C56.0495 41.6922 56.1039 41.6915 56.1458 41.6959ZM46.6225 59.2554C46.5901 59.1872 45.6768 57.5429 45.6051 57.5942C45.8036 58.0834 47.0519 60.2056 46.6225 59.2554ZM53.0804 71.4427C53.1177 71.6097 53.1409 71.8501 53.1516 72.004C53.194 72.3615 53.2397 72.6394 53.3431 72.5607C53.343 72.5599 53.3429 72.5591 53.3428 72.5583C53.308 72.3687 53.2714 72.1813 53.2318 71.9904C53.1957 71.8367 53.1425 71.6392 53.0804 71.4427ZM71.2714 32.9368C71.4561 32.8263 71.4292 32.8176 71.3551 32.8251C71.2782 32.8373 71.151 32.8695 71.0606 33.0071C71.1724 33.1435 71.2136 32.9684 71.2714 32.9368ZM72.1005 33.6056C72.1872 33.6824 72.6444 34.0353 72.9803 34.1443C73.319 34.2634 73.3423 34.2319 73.2117 34.2582C72.5637 34.2909 72.0818 34.3567 72.2916 34.4276C72.3702 34.4536 72.7721 34.4311 73.2118 34.4061C73.287 34.3907 73.2946 34.3787 73.2321 34.3544C73.1731 34.3318 73.0584 34.2899 73.0416 34.2873C72.9925 34.281 73.0602 34.3561 73.0527 34.3999C73.0258 34.4216 73.0474 34.5454 72.437 34.1954C72.5322 34.2104 71.9468 33.5169 72.1005 33.6056ZM71.4984 32.791C71.7383 32.6813 71.3015 32.8526 71.2911 32.7783C71.2899 32.7573 71.4629 32.8065 71.4984 32.791ZM70.5598 34.7819C70.7662 34.5626 71.2107 33.9313 71.2098 33.5186C71.0419 33.8948 70.7745 34.354 70.4398 34.8248C70.353 34.9471 70.2642 35.0669 70.1732 35.1845C70.1892 35.2868 70.3394 35.0544 70.4929 34.861C70.5156 34.8325 70.5384 34.8052 70.5609 34.7802C70.5605 34.7808 70.5602 34.7813 70.5598 34.7819ZM34.8184 47.0283C34.2516 46.401 35.7801 47.5889 35.839 47.6925C35.9652 47.937 35.0645 47.2977 34.8184 47.0283ZM35.8589 33.9591C35.8145 34.2237 35.6509 34.3937 35.7535 34.9604C35.8626 34.387 35.972 33.8105 36.0816 33.2353C35.7867 32.7934 35.9081 33.682 35.8589 33.9591ZM34.8783 36.1742C34.8693 36.0929 34.4444 36.5483 34.7085 35.4933C34.8864 34.7755 35.1796 38.6214 35.0029 39.3124C34.8939 38.549 34.9525 36.87 34.8783 36.1742ZM33.1462 42.9189C33.1134 42.9703 33.0368 41.5269 33.0564 41.3526C33.1673 40.4734 33.3324 42.683 33.1462 42.9189ZM33.1267 38.2918C33.0597 38.9788 32.9657 37.4633 33.0026 37.0124C33.0826 36.9655 33.1362 38.1788 33.1267 38.2918ZM30.1563 37.0733C29.5739 36.4883 28.6885 36.802 29.8218 37.1577C29.876 37.1749 30.18 37.0997 30.1563 37.0733ZM32.6808 41.5193C32.7511 40.8326 32.8381 42.3427 32.7945 42.7856C32.7149 42.8314 32.6713 41.6216 32.6808 41.5193ZM29.9462 36.2068C29.0926 35.6024 29.1409 36.4067 29.2456 36.4822C29.6827 36.7876 31.4287 37.2726 31.8135 37.3889C29.28 36.3207 30.3561 36.5067 29.9462 36.2068ZM25.435 34.8425C24.531 34.5841 26.7189 35.5635 27.2179 35.5568C26.7764 35.3885 25.6922 34.9133 25.435 34.8425ZM20.0871 32.7893C19.6104 32.6142 18.1511 32.1429 17.873 32.1911C18.4249 32.3098 19.8528 32.8362 20.0871 32.7893ZM19.0669 32.1401C18.3317 31.776 18.0265 32.156 18.9564 32.2754C18.9923 32.2802 19.0929 32.1563 19.0669 32.1401ZM14.6242 30.9139C14.0996 30.6356 13.4101 30.9612 14.2896 31.1235C14.552 31.1734 14.6792 30.9451 14.6242 30.9139ZM29.0656 34.9902C28.4022 34.6303 27.3777 34.5468 28.8568 35.1926C28.3177 35.0187 27.7815 34.852 27.2373 34.6878C29.1194 35.6285 29.1353 35.1891 29.6903 35.4417C30.4528 35.7994 30.2576 36.1042 30.0533 36.1349C30.5139 36.1864 31.7927 36.6936 33.0747 37.3195C33.1161 37.3388 33.2336 37.4085 33.2736 37.4304C33.8125 37.7351 34.4427 38.0645 34.9656 38.3334C34.4724 38.0215 33.8765 37.6452 33.3636 37.2809C33.3215 37.2578 33.198 37.1846 33.1545 37.1644C32.1119 36.5492 31.0166 35.9743 30.2269 35.5901C29.8416 35.4027 29.4331 35.3334 29.0996 35.1813C28.5808 34.9444 29.1022 35.011 29.0683 34.9913C29.0674 34.991 29.0665 34.9906 29.0656 34.9902ZM7.51427 30.7483C6.19261 31.0152 5.83242 31.4031 6.20661 31.2654C6.53766 31.1702 7.38467 30.9433 8.03285 30.789C8.09225 30.7685 7.58023 30.7319 7.51427 30.7483ZM31.3928 43.4626C31.5457 41.5319 31.8198 42.9568 31.3543 38.8512C31.6566 40.5758 31.5427 38.9442 31.6555 39.2796C31.745 39.5475 31.7012 40.5563 31.8532 39.9699C31.6966 40.7561 31.805 44.0825 31.7638 44.1949C31.7638 44.1936 31.7638 44.1923 31.7638 44.191C31.746 44.275 31.3406 44.0674 31.3928 43.4626ZM20.4064 31.6998C20.0574 31.0468 19.6266 31.7869 18.7502 31.0925C17.2692 31.3225 22.3887 32.1398 22.7804 32.8838C17.5625 31.1193 26.0617 34.5336 22.6712 32.5615C25.5742 33.8634 23.6869 32.8048 24.1839 32.867C24.7182 32.9343 26.36 33.6707 26.3412 33.4572C26.3403 33.4568 26.3393 33.4565 26.3384 33.4561C25.306 33.0793 24.2683 32.7207 23.2194 32.3797C24.1009 33.1269 22.0227 32.2827 21.3884 31.731C21.0626 31.7191 20.7328 31.7079 20.4064 31.6998ZM26.1564 34.0804C26.0661 34.0275 23.8085 33.27 23.9249 33.4077C24.2125 33.5499 27.3827 34.6764 26.1564 34.0804ZM35.7508 38.4688C34.9789 38.0423 33.9734 37.4033 33.5784 37.35C34.1723 37.7025 35.2535 38.3731 35.7508 38.4688ZM9.84864 48.9268C10.826 49.6045 8.11803 47.1721 8.80193 47.9834C8.82774 48.0258 9.7931 48.897 9.84864 48.9268ZM17.9543 31.0948C16.8817 30.6572 17.29 31.2848 18.1318 31.3665C18.1807 31.3712 18.003 31.1149 17.9543 31.0948ZM31.3067 41.8999C31.1825 41.8376 31.203 38.9962 31.1873 38.4854C31.3132 38.7743 31.4554 41.9851 31.3067 41.8999ZM37.403 38.8858C37.3096 38.7939 37.2123 38.7055 37.1114 38.6204C35.6139 37.3856 33.8757 36.9959 33.7456 36.8832C33.5819 36.7723 33.9488 36.7608 33.913 36.7332C33.8995 36.7231 33.8394 36.6867 33.7528 36.6341C33.7019 36.6062 33.5525 36.5175 33.4998 36.4931C32.8375 36.1373 31.0549 35.3283 30.9512 35.3005C30.8618 35.2722 31.1931 35.7245 30.6494 35.5768C31.1031 35.7048 32.2147 36.1802 33.3598 36.7652C33.4088 36.788 33.5477 36.8704 33.595 36.8963C34.6584 37.5212 36.1854 38.3508 36.3228 38.4217C36.5136 38.5062 35.3909 37.5547 37.0843 38.6658C37.1803 38.7305 37.2848 38.8024 37.4001 38.884C37.4011 38.8846 37.4021 38.8852 37.403 38.8858ZM32.9817 36.4068C33.5682 36.8266 31.7678 35.9527 31.3831 35.7407C30.4768 35.2163 32.8939 36.3298 32.9817 36.4068ZM28.8027 34.4068C28.6053 34.2911 26.8151 33.5549 26.6086 33.6198C27.4034 34.0975 29.2335 34.649 28.8027 34.4068ZM4.74753 31.0918C4.0354 31.5258 2.58337 33.3486 2.42824 34.839C2.36398 35.1878 2.32849 35.4967 2.36948 35.5409C2.39025 35.3662 2.43621 35.1103 2.4889 34.8496C2.64165 33.9315 3.1348 32.8743 3.69575 32.192C4.23424 31.5172 4.71427 31.1736 4.74753 31.0918ZM30.077 32.1683C30.0017 32.9762 29.9184 31.1117 29.9519 30.5725C30.0265 30.5417 30.0834 32.1053 30.077 32.1683ZM18.0351 29.999C17.8145 29.8165 11.3511 28.6058 9.85432 28.9148C11.3262 28.7487 17.679 30.0222 17.8971 30.1235C17.9815 30.1321 18.0726 30.0142 18.0351 29.999ZM30.6961 34.3643C31.2974 34.4461 31.544 34.7789 31.6165 34.8145C32.2474 35.1225 33.6434 35.7689 33.2712 35.7654C32.1117 35.0986 29.5267 34.2164 30.6961 34.3643ZM3.16827 31.56C1.94076 33.1829 2.02483 33.8165 2.09044 33.5351C2.18794 33.3162 2.66223 32.202 3.53155 31.3323C5.36941 29.5166 7.18399 29.3585 6.59705 29.375C6.54971 29.3904 5.94572 29.538 5.14167 29.9668C4.3453 30.3608 3.40631 31.2333 3.16827 31.56ZM18.7311 30.1313C19.2699 30.0707 25.1368 32.0735 26.0338 32.4684C25.1175 32.394 24.5153 31.9754 23.3809 31.6041C23.0751 31.505 23.1236 31.6305 23.0909 31.6196C22.5611 31.4485 22.9942 31.4665 22.6682 31.3571C22.48 31.2595 18.0612 30.1199 18.7311 30.1313ZM31.0453 34.3921C31.2641 34.4222 32.7797 35.0564 33.9379 35.6414C34.0022 35.6712 34.1845 35.7794 34.2467 35.8135C34.6805 36.0646 35.1276 36.308 35.1639 36.3395C35.5457 36.6455 34.838 36.3126 34.1758 35.9312C34.1153 35.8981 33.9376 35.7927 33.875 35.7636C32.6718 35.1565 31.1832 34.4723 31.0453 34.3921ZM18.2264 29.7703C18.973 29.6479 21.9195 30.7179 19.826 30.2561C19.6296 30.2126 18.8208 29.8566 18.2264 29.7703ZM3.53918 30.7678C3.44557 30.7963 1.69237 32.5707 1.41515 34.6618C1.29785 35.2812 1.21194 36.0478 1.25758 36.0793C1.2863 35.9252 1.38531 35.2575 1.49611 34.676C1.72143 33.0248 2.9694 31.2868 3.68344 30.7093C4.04677 30.379 4.2616 30.2298 4.26171 30.2159C4.26544 30.2088 4.05369 30.315 3.53918 30.7678ZM6.29126 28.7936C6.22995 28.8149 6.51361 28.7683 6.50544 28.8155C6.49315 28.8859 6.27553 28.8873 4.97973 29.5379C4.86536 29.6055 4.67835 29.625 4.08078 29.9999C3.55322 30.374 2.06333 31.3236 1.32714 33.8882C1.26721 34.1135 1.21787 34.3681 1.18636 34.6218C1.18428 34.8801 1.21901 35.177 1.22962 35.1508C1.28228 35.0055 1.33232 34.8344 1.37848 34.6554C1.59239 33.2301 2.73482 31.1992 4.08941 30.2319C5.37579 29.2468 6.45831 28.9255 7.07194 28.7114C7.74749 28.4983 8.0692 28.42 8.03281 28.3916C7.98103 28.3851 7.58336 28.359 6.29126 28.7936ZM31.1764 34.274C31.021 34.1134 31.5728 34.0842 31.9574 34.3995C32.1209 34.535 31.7029 34.5051 31.1764 34.274ZM2.77923 43.8362C2.11076 42.8496 2.52839 43.8373 3.50264 44.9986C4.02413 45.6377 4.88002 46.5916 4.97744 46.6626C4.95809 46.5486 4.08861 45.5025 3.59921 44.9135C3.12777 44.3672 2.82577 43.896 2.77923 43.8362ZM28.8673 30.3137C28.8673 30.3147 28.8674 30.3156 28.8674 30.3166C28.8793 29.3103 29.0188 29.9302 29.0217 29.8834C29.1598 27.7259 28.8881 28.2947 28.8474 27.9631C28.7605 27.2447 29.1084 27.3504 28.9422 26.1333C29.1921 28.141 29.0686 26.3168 29.1907 26.2536C29.6884 26.0198 29.0069 28.9424 29.1357 29.9461C29.1533 30.0878 29.2912 29.0449 29.3446 29.405C29.5169 30.5696 28.8267 34.2044 28.8673 30.3137ZM32.2932 34.5304C32.5128 34.5608 33.3348 34.935 34.089 35.3476C34.1573 35.3793 34.351 35.4942 34.417 35.5304C35.0113 35.9178 35.7744 36.4099 35.2939 36.2262C35.2438 36.2067 34.7368 35.9499 34.3145 35.7008C34.2508 35.6659 34.0639 35.555 33.998 35.5244C32.9513 34.992 31.8303 34.4617 32.2932 34.5304ZM39.7166 76.8364C39.5264 75.9111 39.5195 78.0763 39.6779 78.5337C39.7429 78.7296 39.7923 77.2208 39.7166 76.8364ZM53.6915 91.4778C55.2754 91.5109 57.6688 90.4922 55.0748 90.9542C54.8015 91.004 53.4983 91.4098 53.6915 91.4778ZM15.6168 87.877C16.9101 88.1749 16.8498 87.8082 15.8996 87.743C15.56 87.7153 15.5782 87.867 15.6168 87.877ZM38.9487 64.4892C38.9426 64.5922 39.024 65.7812 39.1025 65.7337C39.1318 65.2902 38.9982 63.8188 38.9487 64.4892ZM15.2044 87.8868C15.9681 87.9004 14.7012 87.5324 13.8794 87.6389C13.8246 87.6366 13.7699 87.634 13.7156 87.6311C13.7677 87.6383 13.8218 87.6455 13.8775 87.6525C14.2798 87.6991 15.1333 87.8879 15.2044 87.8868ZM16.0183 28.4491C15.4046 28.4625 13.6952 28.1026 12.5919 28.0187C12.5489 27.7961 15.3652 28.3153 16.0183 28.4491ZM47.3856 90.3193C48.6338 90.6539 47.9342 90.4097 47.0304 90.0191C46.1132 89.627 45.1405 88.9525 45.289 89.1617C45.2868 89.2455 47.2527 90.3448 47.3856 90.3193ZM20.9231 48.9916C20.213 49.4279 22.6773 48.5116 21.9385 48.6196C21.9024 48.6227 20.962 48.9635 20.9231 48.9916ZM32.6679 46.2807C32.0292 46.2185 29.203 46.4866 30.3134 46.4957C30.4937 46.476 32.6238 46.3677 32.6679 46.2807ZM28.7108 27.9065C28.5231 28.198 28.5363 26.5341 28.566 26.2952C28.5782 26.2026 28.9545 27.5295 28.7108 27.9065ZM24.4564 87.3256C25.1719 87.1498 27.0335 86.576 27.3143 86.3344C26.4674 86.7305 24.1701 87.206 24.4564 87.3256ZM41.1396 84.2052C41.316 85.1904 42.9637 87.4722 42.7967 86.7477C41.9228 85.5656 42.0075 85.7061 41.9382 85.6938C41.9155 85.7156 41.7062 85.4883 41.1396 84.2052ZM7.28928 83.4507C7.8858 84.5834 8.96777 85.2784 8.84487 85.1361C7.76648 83.8618 6.86306 82.3526 7.28928 83.4507ZM43.9855 70.3815C44.097 70.4188 44.8641 69.2785 44.6982 69.3838C44.641 69.4197 43.9047 70.3371 43.9855 70.3815ZM5.54009 48.1548C5.97911 48.7626 4.33587 47.191 4.02756 46.6473C3.93611 46.2969 5.45917 48.0727 5.54009 48.1548ZM7.32135 66.9156C7.16988 66.7971 6.7239 69.1684 7.07003 68.2722C7.15394 68.0469 7.36875 66.9498 7.32135 66.9156ZM24.0619 47.366C23.4957 47.6444 24.0186 47.516 24.8464 47.2858C26.6416 46.7311 29.4558 46.3373 28.0744 46.3965C27.9674 46.392 26.0113 46.7236 24.7938 47.1258C24.3935 47.2484 24.1008 47.3475 24.0619 47.366ZM36.7529 46.158C36.636 46.1384 36.6054 46.0325 36.6843 45.9379C36.7188 45.8901 36.802 45.8472 36.8873 45.8169C36.9379 45.8025 36.9845 45.7908 37.0265 45.7831C37.0455 45.779 37.0608 45.7757 37.0508 45.7717C37.0159 45.7687 37.0769 45.759 36.6511 45.7529C36.7787 45.7519 36.9078 45.7658 37.0128 45.8005C37.0617 45.8138 36.9824 45.8594 36.8861 45.9049C36.7881 45.9505 36.6515 45.9961 36.7074 46.013C36.7218 46.0178 36.881 46.0263 37.018 46.0344C37.0972 46.039 37.2158 46.0384 37.0962 46.05C37.052 46.0544 36.982 46.0594 36.821 46.0797C36.7129 46.0937 36.5654 46.1113 36.2895 46.1692C35.994 46.2493 35.6452 46.2629 34.6153 46.7808C34.1046 47.0778 33.2979 47.4754 32.331 48.8196C31.9492 49.3249 31.1659 50.8547 31.1908 52.442C31.1723 54.0415 31.791 55.3921 32.3438 56.1723C33.5113 57.7343 34.2502 57.9585 34.7016 58.2362C35.1613 58.4679 35.4177 58.5503 35.6172 58.6182C35.8034 58.6795 35.9738 58.7235 36.0134 58.7333C36.0485 58.7421 36.0801 58.7497 36.1089 58.7563C36.1664 58.7697 36.2129 58.7795 36.2522 58.7875C36.3305 58.8032 36.3809 58.8116 36.4173 58.8174C36.4919 58.8289 36.4961 58.8275 36.5007 58.827C36.4567 58.8096 36.1335 58.7644 35.9433 58.7394C35.7154 58.7103 35.5857 58.6953 35.554 58.6955C35.443 58.6995 35.5553 58.8914 35.4408 58.9006C35.3229 58.9109 33.949 58.6226 33.1991 58.5494C31.7995 58.4123 31.6227 58.5434 31.5109 58.5332C31.1721 58.5004 30.6178 58.3378 29.9258 58.265C26.4395 57.8982 21.1371 57.3956 17.8206 56.1612C20.7474 57.0506 23.0988 57.22 25.6071 57.5204C24.8477 57.746 29.2643 57.726 26.6791 57.7769C27.2145 57.8093 29.5711 58.0535 32.0276 58.2725C33.2614 58.3848 34.5024 58.4927 35.5539 58.5942C35.7996 58.6181 36.0564 58.6441 36.2492 58.6656C36.3602 58.678 36.427 58.6861 36.492 58.6947C36.5185 58.6983 36.5283 58.7001 36.5102 58.6976C36.4695 58.6881 36.4481 58.7011 35.9989 58.589C35.8254 58.5397 35.6061 58.4903 35.1086 58.2779C34.8543 58.1629 34.5247 58.0166 34.0039 57.6543C33.5066 57.2725 32.6708 56.7196 31.8928 55.1002C31.0073 53.5757 31.3429 50.4044 32.1947 49.2906C32.8576 48.1821 33.5468 47.6483 34.0351 47.2975C35.029 46.6351 35.49 46.5484 35.836 46.4282C36.4885 46.2437 36.6779 46.2439 36.8387 46.2184C36.8964 46.2114 36.9409 46.2069 36.9772 46.2034C37.1189 46.1904 37.1487 46.1906 37.1514 46.1898C37.1524 46.1891 37.1025 46.1899 37.0331 46.19C36.919 46.1899 36.7898 46.1883 36.6511 46.1858C36.9457 46.1876 36.9775 46.1955 37.0019 46.1952C37.0262 46.1963 37.0224 46.1956 37.0159 46.1944C37.0017 46.192 36.9614 46.1872 36.9309 46.1831C36.8595 46.174 36.7989 46.1655 36.7559 46.1583C36.7549 46.1582 36.7539 46.1581 36.7529 46.158ZM62.9579 86.3834C62.7442 87.0167 63.4452 85.7727 63.7862 84.6822C64.1612 83.5642 64.3448 82.4112 64.2766 82.203C64.1994 82.4853 64.0098 83.3874 63.7205 84.3291C63.4557 85.2405 62.9927 86.3032 62.9579 86.3834ZM39.0237 80.9345C38.9001 80.4614 38.3932 79.9183 38.416 78.0524C38.4158 78.0507 38.4157 78.0491 38.4155 78.0474C38.4253 77.5047 38.5681 78.1102 38.5923 78.0085C38.5972 77.9546 38.6655 76.3525 38.7952 77.676C39.0349 79.7923 38.5255 77.8773 38.6426 79.0537C38.6525 79.1335 38.7646 79.7189 38.9429 80.423C39.1006 81.0843 39.4498 82.1058 39.4412 81.9768C39.4407 81.9683 39.3294 81.6174 39.2567 81.3372C39.1794 81.0451 39.1213 80.7747 39.1167 80.7014C39.0826 80.1278 39.2507 80.3905 39.2416 80.3102C39.1334 79.8855 38.6457 76.5723 38.8187 76.1689C38.927 76.0821 39.0242 80.7206 40.271 83.2664C40.294 83.3192 40.3106 83.3663 40.3219 83.4087C40.2811 83.4852 40.0395 83.5818 40.0503 83.6678C40.0509 83.6827 40.2508 84.0477 40.5921 84.6651C40.9182 85.2623 41.4138 86.0449 41.5268 86.2388C41.5882 86.3505 41.6359 86.4392 41.6708 86.5051C41.5725 86.2595 41.9212 86.7821 42.4272 87.4179C42.9164 88.0521 43.6462 88.7782 43.5638 88.7742C43.5202 88.767 42.969 88.255 42.5479 87.7457C42.1164 87.2351 41.7957 86.7487 41.7757 86.7142C41.7583 86.6833 41.7448 86.6556 41.7314 86.6305C41.7922 86.7936 41.2728 86.1028 40.8363 85.3543C40.3887 84.5982 40.0183 83.8477 39.8701 83.6351C39.4524 82.8097 39.356 82.4682 39.2717 82.294C39.2016 82.1339 39.1867 82.1843 39.294 82.5827C38.9822 81.7327 38.9671 81.5284 38.9519 81.4093C38.9461 81.3015 38.9922 81.3521 39.0429 81.4202C39.1504 81.5636 39.2493 81.7438 39.0237 80.9345ZM38.2063 74.3211C38.2461 74.4454 38.2859 74.5687 38.3257 74.6911C38.1447 72.5809 38.238 70.2483 38.1436 67.9552C38.1199 67.375 37.9386 68.0512 37.964 67.2877C37.9843 66.6781 38.147 65.9997 38.2052 66.3269C38.22 66.404 38.1478 67.6495 38.1847 68.2716C38.2946 70.1152 38.4547 69.645 38.464 69.7523C38.4736 69.8715 38.3904 71.0475 38.4198 71.6929C38.4988 73.3346 38.6217 74.0365 38.6136 76.4192C38.4175 75.0583 38.2 75.8117 38.2063 74.3211ZM10.948 55.5946C10.9307 55.3715 12.4637 53.7489 12.9882 53.2917C12.9836 53.4212 11.4422 54.8434 10.948 55.5946ZM48.303 28.3295C47.9696 28.6554 50.947 27.5475 50.1115 27.7069C49.9232 27.7413 48.6719 28.1836 48.303 28.3295ZM62.5036 23.9027C62.9538 23.753 61.0719 24.0212 61.1098 24.1677C61.1226 24.2078 62.443 23.9175 62.5036 23.9027ZM41.5959 75.0712C41.5528 75.1403 40.7874 76.067 40.7539 76.0919C40.1218 76.5995 42.5974 73.5433 41.5959 75.0712ZM82.1423 37.7336C82.5328 36.4823 82.0694 37.7699 81.5318 38.8409C80.9978 39.9211 80.4226 40.8542 81.002 40.0416C81.0728 40.0041 82.1248 37.9064 82.1423 37.7336ZM77.0867 45.0965C77.4495 44.781 78.9626 43.1951 78.9222 43.1191C78.8975 43.0531 77.1768 44.8423 77.0867 45.0965ZM6.29065 83.0263C6.29351 83.285 5.7016 82.0677 5.44858 80.912C5.16487 79.7237 5.10788 78.6118 5.0618 78.0569C5.24155 77.7377 5.25157 81.0309 6.29065 83.0263ZM26.8919 87.7489C21.1112 89.6516 18.8976 89.0209 19.2968 89.0672C19.6789 88.9226 22.6983 89.0913 27.5356 87.4046C27.5978 87.5218 27.6079 87.483 26.8919 87.7489ZM10.6759 87.8315C11.2688 88.0654 12.4767 88.522 13.7396 88.6737C14.1104 88.7188 14.599 88.7937 14.9979 88.8417C14.9064 88.8894 14.2468 88.8235 13.7285 88.756C12.5741 88.6164 11.3615 88.1782 10.6759 87.8315ZM44.8344 29.4199C44.8747 29.3749 44.9511 29.3257 45.0696 29.2664C45.8465 28.8908 47.4152 28.4279 47.1051 28.6159C47.0432 28.6516 45.7783 29.1487 45.1147 29.3763C44.9074 29.4432 44.8135 29.4562 44.8344 29.4199ZM41.2797 75.7783C41.5811 75.7323 39.8109 77.8446 39.6212 77.9848C38.9434 78.5381 41.2047 75.9763 41.2797 75.7783ZM6.42585 66.6039C6.38668 66.0872 6.80982 64.7733 7.04547 63.9367C7.06918 64.3516 6.6063 65.8651 6.42585 66.6039ZM5.03587 73.215C5.03229 73.1463 5.23894 71.7846 5.25954 71.7344C5.56953 70.6456 4.99578 74.4917 5.03587 73.215ZM27.3738 31.7559C27.3677 31.7166 27.3578 30.8511 27.3631 30.8212C27.4978 30.0446 27.527 32.6446 27.3738 31.7559Z" fill="#FF3474"/>
</svg>
